<svg width="50" height="50" viewBox="0 0 50 50" fill="none" xmlns="http://www.w3.org/2000/svg">
<path fill-rule="evenodd" clip-rule="evenodd" d="M39.9536 15.5603C42.2351 14.8578 40.1241 13.7534 42.2987 12.3397C44.7245 10.7626 43.3847 11.234 44.8326 9.27641C45.7126 8.08671 46.8723 7.85317 47.5285 6.35466C48.984 3.031 49.3191 4.47266 50.0001 3.17456C48.9988 3.4912 48.6149 3.93971 47.8669 4.38715C47.1811 4.79737 46.2561 4.90468 45.827 5.48002C45.3296 6.1469 45.469 6.92073 44.5638 7.3448C42.3919 8.36227 43.9043 7.82993 43.057 8.88041C42.3419 9.16621 42.2072 8.80742 41.7494 9.64869C40.4851 11.9729 40.8794 11.1075 38.6311 12.5008C37.8414 12.9902 38.2714 13.1307 37.6028 13.4904C36.7674 13.9396 37.0145 13.5823 36.8763 14.5682C36.7464 15.4941 36.6902 15.2666 35.8407 15.6034C35.0962 15.8987 35.3705 16.0951 35.0514 16.717L34.1439 16.5924C33.2162 17.542 33.7148 18.1292 32.1157 18.7381C29.9458 19.5638 31.8873 20.1665 29.9986 20.8161C28.528 21.3221 29.1729 22.6831 26.1667 25.1841C24.9771 26.1737 25.1986 26.5776 24.4258 27.577C23.9542 28.1867 23.8286 28.1636 23.1302 28.4885C22.6424 28.7156 22.3785 29.1222 22.0332 29.4315C20.833 30.5067 21.1895 32.0258 19.2046 32.775C17.9456 33.2501 18.3798 32.7533 18.2345 33.7873C16.4323 33.9442 18.1202 36.0419 15.5535 37.6846C14.6789 38.2444 14.6369 37.918 14.5566 38.8104C13.9255 38.6168 14.1252 38.6291 13.7063 39.2007L12.1683 41.6339C11.516 42.669 10.7823 43.7307 9.82204 44.5794C8.89818 45.3961 7.86387 46.2887 7.0626 47.188C6.57968 47.73 5.10004 49.7113 4.71704 50C5.13691 49.9342 9.84223 47.0866 10.4277 46.6627C12.4447 45.2027 11.4216 43.0981 15.2403 42.5971C15.5773 41.8642 15.1747 42.3961 15.6462 42.0085C16.3293 41.447 16.0611 41.2722 16.6201 40.1469C17.8909 37.5893 20.1156 38.7799 20.6494 36.6062C20.8545 35.7706 20.8364 36.0296 21.5834 35.6554C22.2775 35.3077 21.9468 35.1788 21.9469 34.4944L22.839 34.5677C23.3399 33.9145 23.0387 33.8804 23.9105 33.353C24.606 32.9324 24.5511 32.7364 24.7432 32.0586C25.328 29.9957 26.6672 31.4351 26.7618 29.5908C27.4605 29.7444 26.9896 29.8255 27.6165 29.665C28.0069 28.9853 28.6217 27.6398 29.2013 27.1516C30.2808 26.2426 31.2983 26.3519 31.2632 24.9838C31.9053 25.3189 31.1898 25.2601 31.9912 25.2258C32.393 24.6272 32.2172 24.5174 32.8321 24.0707C33.6379 23.4853 33.2655 23.6512 32.9898 22.9703C34.4094 23.0361 33.9651 22.0343 34.8235 21.2272C35.6961 20.4064 36.1224 20.7496 36.759 19.5216C37.1803 18.7092 37.3092 17.9941 38.2244 17.4343C39.757 16.4967 39.7156 17.2853 39.9532 15.5604L39.9536 15.5603Z" fill="white"/>
<path fill-rule="evenodd" clip-rule="evenodd" d="M17.2207 18.6793C17.0754 19.1459 17.2297 19.0969 16.9226 19.4606C16.4767 19.9893 16.6061 19.3199 16.5208 20.1723C16.445 20.9297 16.0318 20.6474 15.4515 21.4566C14.6636 22.5558 14.1273 23.0962 13.0179 23.9582C10.437 25.9633 12.3461 26.4216 8.75494 29.4881C7.25528 30.7689 7.6107 30.8855 6.6895 32.3071C6.13985 33.155 4.9766 33.7462 4.25061 34.8104C3.59018 35.7782 3.13995 36.8924 2.41554 37.8237C1.74747 38.6826 0.523853 39.609 0 40.4762C0.740108 40.2149 7.37198 34.7499 8.356 33.8662C9.88808 32.4899 10.6092 31.4956 11.9444 30.0501C12.8017 29.1225 15.4176 27.3844 15.1651 26.1443C16.5372 26.2927 17.1403 25.1297 17.798 24.2665C18.1206 23.843 18.4854 23.3959 18.7916 22.9552C19.2548 22.2882 19.1686 21.6641 19.4392 21.3596C20.1832 20.641 19.7626 21.9512 22.2838 19.4692C22.6915 19.0678 23.0734 18.7599 23.4551 18.3162C24.2377 17.4066 23.7993 17.3055 24.1102 16.5591C24.3525 15.977 25.0712 16.126 25.4746 15.591C26.5112 14.2166 25.682 15.2556 26.8699 14.4882C27.3902 14.1521 27.339 13.4277 27.5873 12.9475C27.9254 12.294 28.3628 12.1697 28.8059 11.6959C29.3778 11.0841 29.9184 9.5653 30.4333 8.76839C31.027 7.84926 31.9789 7.08804 32.6552 6.2222C33.4108 5.25495 33.6416 4.10912 34.1674 3.05756C34.6636 2.06545 35.4627 0.986204 35.8491 0C35.0752 0.390149 34.0713 1.57807 33.273 2.16194C32.5067 2.7223 30.916 3.58826 30.3693 4.12906C29.9632 4.53065 29.8092 5.06542 29.4301 5.48523C28.9344 6.03402 28.4573 6.0814 27.9293 6.49826C27.1623 7.10367 26.5657 8.43645 25.8852 9.19927C25.252 9.90954 24.1693 10.7217 23.37 11.3647C21.8873 12.5573 22.846 12.8186 19.7489 14.8806C18.5675 15.6673 19.2484 15.3444 18.8751 16.162C18.2382 17.5575 20.1127 17.9654 17.2207 18.679V18.6793Z" fill="white"/>
<path fill-rule="evenodd" clip-rule="evenodd" d="M21.698 46.8254C25.3561 44.9836 24.2928 44.7743 25.8705 43.7923C26.8897 43.1578 27.2915 43.1317 27.9716 42.3052C28.4241 41.7555 28.6196 42.0543 29.0311 41.5823C29.4691 41.0798 29.1154 41.1704 29.9824 40.6328C31.2457 39.8495 30.798 39.4847 31.694 38.8335C33.8883 37.2388 32.2023 37.8407 33.3555 36.9911C34.1263 36.4235 33.7962 36.8151 34.1407 36.0329C34.3708 35.5098 34.0695 35.9469 34.5261 35.5382L35.9641 34.3257C36.4452 33.9479 36.7679 34.0867 37.1781 33.5882L36.4812 32.9582C36.8107 32.3241 38.0633 31.5725 38.5315 31.0835C38.4137 30.5726 38.3361 31.1488 38.3693 30.5615C39.6037 29.7409 39.2104 30.0712 39.9601 28.9151C40.4301 28.1903 41.3906 28.1689 42.0789 27.6561C42.0543 27.1682 42.1336 27.4346 41.769 27.1689C42.6542 26.4189 42.2612 26.5509 42.7813 25.7568C43.1438 25.2029 43.6718 25.0838 44.1482 24.6134C44.7075 24.0611 44.5627 23.5865 45.1017 23.1213C45.3117 22.9401 45.6249 22.8022 45.7724 22.6167C46.1476 22.1449 45.7567 22.2481 46.171 21.7375C46.7079 21.0754 46.8521 21.5061 47.2609 20.3551C48.0698 18.0773 49.2666 18.676 49.9999 15.873C49.2447 16.5557 48.7589 16.8566 47.9669 17.442C47.3974 17.8629 47.6053 18.1244 47.1552 18.5115C47.007 18.6392 46.2003 19.2279 46.0264 19.3201C45.0757 19.8247 45.1186 20.379 43.8717 21.0163C42.1721 21.8851 42.8836 21.847 41.8977 22.8656C41.2764 23.5071 40.4057 23.923 39.8506 24.5163C39.1436 25.2718 38.9229 25.7351 38.0658 26.525C36.8421 27.653 37.7135 27.5758 35.9967 28.2936C35.4284 28.5312 35.1798 28.7026 34.9934 29.209C34.7116 29.9736 34.7382 29.7879 34.3598 30.4345C34.1969 30.7131 34.4643 31.3915 32.6487 32.0848C31.3729 32.5719 31.4163 33.1024 30.7413 34.0153C30.1747 34.7818 31.3289 34.9074 29.417 35.8436C28.1364 36.4708 27.9982 36.6909 27.5894 37.8255C27.3016 38.6241 26.3443 39.1549 26.1555 39.9555C25.8984 41.0457 26.1467 40.3856 25.4414 41.1424C24.9552 41.6642 25.3577 41.792 24.8951 42.4285C24.223 43.3537 23.7586 43.1243 23.1755 44.4986C22.7673 45.4613 22.115 45.9493 21.6981 46.8252L21.698 46.8254Z" fill="white"/>
</svg>
