<svg width="40" height="32" viewBox="0 0 40 32" fill="none" xmlns="http://www.w3.org/2000/svg">
<g clip-path="url(#clip0_582_5)">
<path d="M39.1981 3.89665C37.7304 4.54696 36.1736 4.97377 34.5794 5.16287C36.2399 4.16766 37.5148 2.59169 38.1152 0.713952C36.5367 1.65061 34.8097 2.31058 33.0088 2.66534C31.5419 1.10255 29.4521 0.125856 27.139 0.125856C22.6979 0.125856 19.0972 3.72639 19.0972 8.1672C19.0972 8.79755 19.1684 9.41121 19.3055 9.99992C12.6222 9.66446 6.69684 6.46308 2.73053 1.59786C2.03847 2.78553 1.64191 4.16704 1.64191 5.64057C1.64191 8.43055 3.0617 10.8918 5.21933 12.3339C3.9423 12.294 2.69337 11.9491 1.57684 11.328C1.57643 11.3617 1.57628 11.3954 1.57638 11.4292C1.57638 15.3254 4.34829 18.5756 8.02691 19.3144C6.84273 19.6364 5.60062 19.6835 4.39545 19.4522C5.41868 22.647 8.38856 24.9718 11.9073 25.0369C9.15518 27.1936 5.68769 28.4792 1.92027 28.4792C1.27108 28.4792 0.631082 28.4411 0.00195312 28.3668C3.56069 30.6485 7.7876 31.9798 12.3288 31.9798C27.1203 31.9798 35.2087 19.7262 35.2087 9.09979C35.2087 8.751 35.2009 8.40421 35.1854 8.05941C36.7596 6.92119 38.1184 5.51157 39.1981 3.89665Z" fill="#55ACEE"/>
</g>
<defs>
<clipPath id="clip0_582_5">
<rect width="39.2" height="32" fill="white"/>
</clipPath>
</defs>
</svg>
