<?xml version="1.0" encoding="UTF-8"?>
<svg id="b" data-name="Слой 2" xmlns="http://www.w3.org/2000/svg" width="329.89" height="163.09" viewBox="0 0 329.89 163.09">
  <g id="c" data-name="Слой 1">
    <g>
      <path d="m328.77,86.19l-35.58-61.94c-1.51-2.62-4.32-4.25-7.35-4.25H18.47c-4.67,0-8.47,3.8-8.47,8.47v126.14c0,4.68,3.8,8.48,8.47,8.48h271.99c3.23,0,6.23-1.89,7.63-4.8l30.96-64.2c1.22-2.52,1.11-5.47-.28-7.9Z" fill="#3b0f46" stroke-width="0"/>
      <path d="m318.77,66.19l-35.58-61.94c-1.51-2.62-4.32-4.25-7.35-4.25H8.47C3.8,0,0,3.8,0,8.47v126.14c0,4.68,3.8,8.48,8.47,8.48h271.99c3.23,0,6.23-1.89,7.63-4.8l30.96-64.2c1.22-2.52,1.11-5.47-.28-7.9Z" fill="#3b0f46" stroke-width="0"/>
      <path d="m313.12,71.46l-30.96,64.2c-.31.65-.98,1.07-1.7,1.07H8.47c-1.04,0-1.88-.85-1.88-1.89V8.7c0-1.03.84-1.88,1.88-1.88h267.37c.68,0,1.3.36,1.64.95l35.58,61.93c.31.54.33,1.2.06,1.76Z" fill="#fffa81" stroke-width="0"/>
    </g>
    <g opacity=".9">
      <path d="m67.45,96.13h-9.95v-48.72h13.02c9.47,0,13.02,2.16,13.02,10.93s-3.2,10.79-10.44,10.79v.7c6.89,0,11.14,1.95,11.14,11v1.81c0,10.02-2.71,14.2-8.7,14.2-4.18,0-7.24-2.02-8.63-9.19h-.7l1.25,8.49Zm1.18-31.6h1.88c1.88,0,2.58-1.25,2.58-3.62s-.7-3.55-2.58-3.55h-1.88v7.17Zm0,9.95v5.01c0,6.06.9,7.38,2.16,7.38,1.67,0,2.3-.97,2.3-6.33,0-5.36-1.04-6.06-3.06-6.06h-1.39Z" fill="#3b0f46" stroke-width="0"/>
      <path d="m85.77,83.53v-36.12s10.44,0,10.44,0v33.34c0,4.94.7,6.12,2.58,6.12s2.58-1.18,2.58-6.12v-33.34h10.44v36.12c0,8.7-3.62,13.29-13.02,13.29s-13.02-4.59-13.02-13.29Z" fill="#3b0f46" stroke-width="0"/>
      <path d="m120.79,96.13v-23.32l-7.8-25.4h11.14l1.88,13.57h.63l1.95-13.57h11.14l-7.8,25.4v23.32h-11.14Z" fill="#3b0f46" stroke-width="0"/>
      <path d="m167.56,47.41l3.76,27.42h.7l-.7-27.42h9.67v48.72h-12.46l-3.76-27.77h-.7l.7,27.77h-9.74v-48.72h12.53Z" fill="#3b0f46" stroke-width="0"/>
      <path d="m196.52,46.72c9.4,0,13.02,4.59,13.01,13.29v23.53c0,8.7-3.62,13.29-13.01,13.29s-13.02-4.59-13.02-13.29v-23.53c0-8.7,3.55-13.29,13.02-13.29Zm2.23,34.04v-17.96c0-4.94-.76-6.12-2.23-6.12s-2.23,1.18-2.23,6.12v17.96c0,4.94.7,6.12,2.23,6.12s2.23-1.18,2.23-6.12Z" fill="#3b0f46" stroke-width="0"/>
      <path d="m232.95,96.13l-2.51-27.08h-.77l-2.58,27.08h-13.02l-3.48-48.72h11.83l.7,27.98h.7l2.09-27.98h8.28l2.09,27.98h.7l.7-27.98h11.76l-3.48,48.72h-13.02Z" fill="#3b0f46" stroke-width="0"/>
    </g>
  </g>
</svg>