<svg width="330" height="163" viewBox="0 0 330 163" fill="none" xmlns="http://www.w3.org/2000/svg">
<path d="M38 0H330L298 163H0L38 0Z" fill="#0B5600"/>
<path d="M46.8485 0H330L298.97 155H10L46.8485 0Z" fill="#9AC923"/>
<g opacity="0.9">
<path d="M78.95 102.41H69V53.6899H82.02C91.49 53.6899 95.04 55.8499 95.04 64.6199C95.04 73.3899 91.84 75.4099 84.6 75.4099V76.1099C91.49 76.1099 95.74 78.0599 95.74 87.1099V88.9199C95.74 98.9399 93.03 103.12 87.04 103.12C82.86 103.12 79.8 101.1 78.41 93.9299H77.71L78.96 102.42L78.95 102.41ZM80.13 70.8099H82.01C83.89 70.8099 84.59 69.5599 84.59 67.1899C84.59 64.8199 83.89 63.6399 82.01 63.6399H80.13V70.8099ZM80.13 80.7599V85.7699C80.13 91.8299 81.03 93.1499 82.29 93.1499C83.96 93.1499 84.59 92.1799 84.59 86.8199C84.59 81.4599 83.55 80.7599 81.53 80.7599H80.14H80.13Z" fill="#0B5600"/>
<path d="M97.2695 89.8099V53.6899H107.71V87.0299C107.71 91.9699 108.41 93.1499 110.29 93.1499C112.17 93.1499 112.87 91.9699 112.87 87.0299V53.6899H123.31V89.8099C123.31 98.5099 119.69 103.1 110.29 103.1C100.89 103.1 97.2695 98.5099 97.2695 89.8099Z" fill="#0B5600"/>
<path d="M132.29 102.41V79.0899L124.49 53.6899H135.63L137.51 67.2599H138.14L140.09 53.6899H151.23L143.43 79.0899V102.41H132.29Z" fill="#0B5600"/>
<path d="M179.06 53.6899L182.82 81.1099H183.52L182.82 53.6899H192.49V102.41H180.03L176.27 74.6399H175.57L176.27 102.41H166.53V53.6899H179.06Z" fill="#0B5600"/>
<path d="M208.02 53C217.42 53 221.04 57.59 221.03 66.29V89.82C221.03 98.52 217.41 103.11 208.02 103.11C198.63 103.11 195 98.52 195 89.82V66.29C195 57.59 198.55 53 208.02 53ZM210.25 87.04V69.08C210.25 64.14 209.49 62.96 208.02 62.96C206.55 62.96 205.79 64.14 205.79 69.08V87.04C205.79 91.98 206.49 93.16 208.02 93.16C209.55 93.16 210.25 91.98 210.25 87.04Z" fill="#0B5600"/>
<path d="M244.45 102.41L241.94 75.3299H241.17L238.59 102.41H225.57L222.09 53.6899H233.92L234.62 81.6699H235.32L237.41 53.6899H245.69L247.78 81.6699H248.48L249.18 53.6899H260.94L257.46 102.41H244.44H244.45Z" fill="#0B5600"/>
</g>
</svg>
