<?xml version="1.0" encoding="UTF-8"?>
<svg id="b" data-name="Слой 2" xmlns="http://www.w3.org/2000/svg" width="241.91" height="19.91" viewBox="0 0 241.91 19.91">
  <g id="c" data-name="Слой 1">
    <path d="m1.41,19.91l-1.41-1.41,9.25-9.25c5.49-5.49,14.42-5.49,19.91,0,2.28,2.28,5.32,3.54,8.54,3.54s6.26-1.26,8.54-3.54c5.49-5.49,14.42-5.49,19.91,0,2.28,2.28,5.32,3.54,8.54,3.54s6.26-1.26,8.54-3.54c5.49-5.49,14.42-5.49,19.91,0,4.71,4.71,12.38,4.71,17.09,0,5.49-5.49,14.42-5.49,19.91,0,4.71,4.71,12.38,4.71,17.09,0,5.49-5.49,14.42-5.49,19.91,0,4.71,4.71,12.38,4.71,17.09,0,5.49-5.49,14.42-5.49,19.91,0,2.28,2.28,5.32,3.54,8.54,3.54s6.26-1.26,8.54-3.54l9.25-9.25,1.41,1.41-9.25,9.25c-2.66,2.66-6.2,4.12-9.96,4.12s-7.3-1.46-9.96-4.12c-4.71-4.71-12.38-4.71-17.09,0-5.49,5.49-14.42,5.49-19.91,0-4.71-4.71-12.38-4.71-17.09,0-5.49,5.49-14.42,5.49-19.91,0-4.71-4.71-12.38-4.71-17.09,0-5.49,5.49-14.42,5.49-19.91,0-4.71-4.71-12.37-4.71-17.09,0-2.66,2.66-6.2,4.12-9.96,4.12s-7.3-1.46-9.96-4.12c-4.71-4.71-12.37-4.71-17.09,0-2.66,2.66-6.2,4.12-9.96,4.12s-7.3-1.46-9.96-4.12c-4.71-4.71-12.37-4.71-17.09,0L1.41,19.91Z" fill="#fff" stroke-width="0"/>
  </g>
</svg>