<svg width="28" height="24" viewBox="0 0 28 24" fill="none" xmlns="http://www.w3.org/2000/svg">
<g clip-path="url(#clip0_561_10)">
<path fill-rule="evenodd" clip-rule="evenodd" d="M12.5493 22.4557C14.6627 21.2917 15.1177 15.4117 15.0151 14.1926C14.9552 13.4815 14.6651 12.6597 13.9323 12.105C13.1836 11.5384 10.6739 11.5748 9.70398 11.5735C7.7323 11.5707 4.80833 11.6543 3.42473 13.4601C2.92115 14.1173 2.9056 14.9393 3.28583 15.5804C4.26161 17.2254 7.66235 17.1679 8.9925 20.1384C9.65448 21.6167 11.1813 23.2091 12.5493 22.4557Z" fill="black"/>
<path fill-rule="evenodd" clip-rule="evenodd" d="M23.8531 8.20253C22.6348 7.4783 20.5346 7.59747 19.2787 8.58315C18.4914 9.20109 17.6664 10.0566 17.3438 10.8913C16.6103 12.7894 17.8382 13.8326 20.0709 13.3564C20.8291 13.1947 21.5894 12.9264 22.3862 12.4869C24.0683 11.559 25.4733 9.16567 23.8531 8.20258L23.8531 8.20253Z" fill="black"/>
<path fill-rule="evenodd" clip-rule="evenodd" d="M18.7926 2.52748C15.882 0.883012 11.6374 8.53002 14.5933 9.33338C15.8928 9.6866 17.9401 8.69969 18.8241 6.99478C19.2056 6.25905 19.4416 5.36258 19.5336 4.68424C19.6401 3.89871 19.8465 3.12289 18.7926 2.52748Z" fill="black"/>
<path fill-rule="evenodd" clip-rule="evenodd" d="M20.9414 19.7521C22.447 18.7656 23.5738 16.5269 21.589 15.7072C20.6216 15.3077 18.3614 15.4144 17.2932 16.1269C15.7647 17.1462 14.7445 19.1435 16.6379 20.1756C17.7611 20.7879 19.718 20.5535 20.9414 19.752L20.9414 19.7521Z" fill="black"/>
<path fill-rule="evenodd" clip-rule="evenodd" d="M7.92832 4.49346C6.96385 5.69331 6.65342 7.5998 7.1494 8.71501C7.50605 9.51704 8.45663 10.0026 9.10905 9.99494C10.909 9.97378 12.7303 6.11896 11.8697 4.28604C10.9692 2.36852 9.08085 3.0596 7.92822 4.49346L7.92832 4.49346Z" fill="black"/>
</g>
<defs>
<clipPath id="clip0_561_10">
<rect width="28" height="24" fill="white"/>
</clipPath>
</defs>
</svg>
