<svg width="641" height="203" viewBox="0 0 641 203" fill="none" xmlns="http://www.w3.org/2000/svg">
<mask id="path-1-outside-1_2021_39" maskUnits="userSpaceOnUse" x="8.03719" y="58.6773" width="88.8138" height="116.475" fill="black">
<rect fill="white" x="8.03719" y="58.6773" width="88.8138" height="116.475"/>
<path d="M92.9357 154.782L73.3301 161.131L61.066 123.259L49.1322 127.124L61.3962 164.995L41.7905 171.344L11.9389 79.1613L31.5445 72.8124L43.0987 108.492L55.0326 104.628L43.4784 68.9478L63.084 62.5989L92.9357 154.782Z"/>
</mask>
<path d="M92.9357 154.782L73.3301 161.131L61.066 123.259L49.1322 127.124L61.3962 164.995L41.7905 171.344L11.9389 79.1613L31.5445 72.8124L43.0987 108.492L55.0326 104.628L43.4784 68.9478L63.084 62.5989L92.9357 154.782Z" fill="url(#paint0_linear_2021_39)"/>
<path d="M92.9357 154.782L93.8599 157.636L96.714 156.712L95.7898 153.858L92.9357 154.782ZM73.3301 161.131L70.476 162.055L71.4002 164.909L74.2543 163.985L73.3301 161.131ZM61.066 123.259L63.9201 122.335L62.9959 119.481L60.1418 120.405L61.066 123.259ZM49.1322 127.124L48.2079 124.27L45.3538 125.194L46.2781 128.048L49.1322 127.124ZM61.3962 164.995L62.3204 167.85L65.1745 166.925L64.2503 164.071L61.3962 164.995ZM41.7905 171.344L38.9365 172.269L39.8607 175.123L42.7148 174.198L41.7905 171.344ZM11.9389 79.1613L11.0146 76.3072L8.16056 77.2314L9.0848 80.0855L11.9389 79.1613ZM31.5445 72.8124L34.3986 71.8881L33.4744 69.0341L30.6203 69.9583L31.5445 72.8124ZM43.0987 108.492L40.2447 109.416L41.1689 112.271L44.023 111.346L43.0987 108.492ZM55.0326 104.628L55.9568 107.482L58.8109 106.558L57.8867 103.703L55.0326 104.628ZM43.4784 68.9478L42.5541 66.0938L39.7001 67.018L40.6243 69.8721L43.4784 68.9478ZM63.084 62.5989L65.9381 61.6747L65.0139 58.8206L62.1598 59.7449L63.084 62.5989ZM92.0115 151.928L72.4058 158.277L74.2543 163.985L93.8599 157.636L92.0115 151.928ZM76.1841 160.207L63.9201 122.335L58.2119 124.183L70.476 162.055L76.1841 160.207ZM60.1418 120.405L48.2079 124.27L50.0564 129.978L61.9903 126.113L60.1418 120.405ZM46.2781 128.048L58.5421 165.92L64.2503 164.071L51.9862 126.199L46.2781 128.048ZM60.472 162.141L40.8663 168.49L42.7148 174.198L62.3204 167.85L60.472 162.141ZM44.6446 170.42L14.793 78.237L9.0848 80.0855L38.9365 172.269L44.6446 170.42ZM12.8631 82.0154L32.4688 75.6665L30.6203 69.9583L11.0146 76.3072L12.8631 82.0154ZM28.6904 73.7366L40.2447 109.416L45.9528 107.568L34.3986 71.8881L28.6904 73.7366ZM44.023 111.346L55.9568 107.482L54.1084 101.774L42.1745 105.638L44.023 111.346ZM57.8867 103.703L46.3325 68.0236L40.6243 69.8721L52.1785 105.552L57.8867 103.703ZM44.4026 71.8019L64.0083 65.453L62.1598 59.7449L42.5541 66.0938L44.4026 71.8019ZM60.2299 63.5232L90.0816 155.706L95.7898 153.858L65.9381 61.6747L60.2299 63.5232Z" fill="#141414" mask="url(#path-1-outside-1_2021_39)"/>
<mask id="path-3-outside-2_2021_39" maskUnits="userSpaceOnUse" x="75.8464" y="39.5933" width="83.2947" height="118.041" fill="black">
<rect fill="white" x="75.8464" y="39.5933" width="83.2947" height="118.041"/>
<path d="M148.181 134.681C146.347 141.307 141.194 144.517 129.245 147.382C117.171 150.277 111.122 149.753 106.483 144.679C101.874 139.729 99.1317 134.331 92.0286 104.707C84.9255 75.0827 84.9815 69.2777 86.8151 62.6515C88.6785 56.1498 93.8022 52.8152 105.876 49.9203C117.825 47.0552 123.904 47.7037 128.513 52.6535C133.152 57.7277 135.835 62.8761 142.938 92.5005C150.041 122.125 150.044 128.179 148.181 134.681ZM128.518 122.942C128.668 120.273 128.236 116.823 123.401 96.6584C118.417 75.8716 117.237 72.6004 115.923 70.4145C114.913 68.9456 113.614 68.4673 110.502 69.2135C107.39 69.9596 106.325 71.0049 106.215 72.7424C105.91 75.3163 106.343 78.7665 111.327 99.5534C116.162 119.718 117.341 122.989 118.809 125.27C119.695 126.768 121.089 127.092 124.201 126.346C127.313 125.6 128.284 124.709 128.518 122.942Z"/>
</mask>
<path d="M148.181 134.681C146.347 141.307 141.194 144.517 129.245 147.382C117.171 150.277 111.122 149.753 106.483 144.679C101.874 139.729 99.1317 134.331 92.0286 104.707C84.9255 75.0827 84.9815 69.2777 86.8151 62.6515C88.6785 56.1498 93.8022 52.8152 105.876 49.9203C117.825 47.0552 123.904 47.7037 128.513 52.6535C133.152 57.7277 135.835 62.8761 142.938 92.5005C150.041 122.125 150.044 128.179 148.181 134.681ZM128.518 122.942C128.668 120.273 128.236 116.823 123.401 96.6584C118.417 75.8716 117.237 72.6004 115.923 70.4145C114.913 68.9456 113.614 68.4673 110.502 69.2135C107.39 69.9596 106.325 71.0049 106.215 72.7424C105.91 75.3163 106.343 78.7665 111.327 99.5534C116.162 119.718 117.341 122.989 118.809 125.27C119.695 126.768 121.089 127.092 124.201 126.346C127.313 125.6 128.284 124.709 128.518 122.942Z" fill="url(#paint1_linear_2021_39)"/>
<path d="M148.181 134.681L145.297 133.854L145.293 133.867L145.29 133.88L148.181 134.681ZM106.483 144.679L108.697 142.654L108.688 142.644L108.678 142.634L106.483 144.679ZM86.8151 62.6515L83.9312 61.825L83.9274 61.8382L83.9238 61.8514L86.8151 62.6515ZM128.513 52.6535L130.727 50.6292L130.718 50.6191L130.709 50.609L128.513 52.6535ZM128.518 122.942L131.492 123.336L131.507 123.223L131.513 123.11L128.518 122.942ZM115.923 70.4145L118.495 68.869L118.447 68.7901L118.395 68.7144L115.923 70.4145ZM106.215 72.7424L109.194 73.0945L109.203 73.0134L109.209 72.9318L106.215 72.7424ZM118.809 125.27L121.392 123.743L121.363 123.694L121.332 123.646L118.809 125.27ZM145.29 133.88C144.566 136.497 143.258 138.35 140.853 139.938C138.294 141.628 134.44 143.051 128.545 144.465L129.944 150.299C135.999 148.847 140.696 147.233 144.16 144.945C147.777 142.555 149.963 139.491 151.072 135.481L145.29 133.88ZM128.545 144.465C122.586 145.893 118.473 146.381 115.41 146.037C112.532 145.715 110.527 144.656 108.697 142.654L104.269 146.703C107.077 149.775 110.417 151.516 114.742 152C118.881 152.464 123.829 151.765 129.944 150.299L128.545 144.465ZM108.678 142.634C104.697 138.359 102.085 133.781 94.9459 104.008L89.1113 105.407C96.1787 134.882 99.0504 141.099 104.287 146.723L108.678 142.634ZM94.9459 104.008C87.8126 74.2569 88.1122 69.2128 89.7064 63.4516L83.9238 61.8514C81.8508 69.3425 82.0385 75.9085 89.1113 105.407L94.9459 104.008ZM89.699 63.478C90.4343 60.9124 91.7472 59.0461 94.1767 57.4323C96.7503 55.7226 100.632 54.2627 106.576 52.8376L105.177 47.003C99.0464 48.4728 94.3292 50.1277 90.8567 52.4345C87.24 54.837 85.0593 57.8889 83.9312 61.825L89.699 63.478ZM106.576 52.8376C112.454 51.428 116.544 50.9763 119.596 51.3357C122.479 51.6752 124.498 52.7433 126.318 54.6979L130.709 50.609C127.92 47.6139 124.594 45.8828 120.298 45.3769C116.171 44.8909 111.247 45.5475 105.177 47.003L106.576 52.8376ZM126.299 54.6777C130.332 59.0895 132.887 63.4494 140.02 93.2L145.855 91.801C138.782 62.3029 135.972 56.3658 130.727 50.6292L126.299 54.6777ZM140.02 93.2C147.159 122.973 146.907 128.238 145.297 133.854L151.065 135.507C153.182 128.12 152.922 121.276 145.855 91.801L140.02 93.2ZM131.513 123.11C131.694 119.891 131.103 115.914 126.318 95.9589L120.483 97.3579C125.368 117.732 125.642 120.655 125.523 122.773L131.513 123.11ZM126.318 95.9589C123.826 85.5676 122.27 79.4865 121.164 75.7168C120.055 71.9348 119.346 70.2858 118.495 68.869L113.352 71.96C113.814 72.729 114.352 73.8086 115.407 77.4054C116.465 81.0145 117.991 86.9624 120.483 97.3579L126.318 95.9589ZM118.395 68.7144C117.599 67.5563 116.463 66.5064 114.728 66.0728C113.182 65.6866 111.511 65.8864 109.802 66.2961L111.201 72.1308C112.604 71.7944 113.139 71.8602 113.274 71.8939C113.295 71.8993 113.296 71.9015 113.285 71.8959C113.28 71.8935 113.274 71.8906 113.269 71.8876C113.267 71.8862 113.265 71.8849 113.264 71.884C113.262 71.883 113.262 71.8825 113.262 71.8825C113.262 71.8825 113.263 71.8831 113.264 71.8846C113.266 71.8861 113.269 71.8885 113.273 71.892C113.28 71.8989 113.292 71.9105 113.308 71.928C113.34 71.9638 113.388 72.0224 113.452 72.1146L118.395 68.7144ZM109.802 66.2961C108.096 66.7054 106.495 67.2899 105.284 68.3254C103.903 69.5049 103.318 71.0073 103.221 72.553L109.209 72.9318C109.218 72.7845 109.239 72.772 109.215 72.8239C109.186 72.8875 109.153 72.9117 109.182 72.8869C109.308 72.7788 109.797 72.4676 111.201 72.1308L109.802 66.2961ZM103.235 72.3902C103.031 74.1224 103.125 75.9767 103.837 79.8587C104.546 83.7318 105.919 89.8651 108.41 100.253L114.244 98.8539C111.751 88.4548 110.415 82.4695 109.738 78.7773C109.064 75.094 109.094 73.9363 109.194 73.0945L103.235 72.3902ZM108.41 100.253C110.826 110.33 112.347 116.264 113.456 119.977C114.572 123.711 115.33 125.408 116.287 126.894L121.332 123.646C120.82 122.851 120.255 121.772 119.205 118.259C118.149 114.725 116.663 108.941 114.244 98.8539L108.41 100.253ZM116.227 126.796C117.039 128.171 118.277 129.219 120.064 129.588C121.585 129.902 123.247 129.66 124.9 129.263L123.501 123.429C122.811 123.594 122.294 123.681 121.908 123.715C121.519 123.749 121.334 123.723 121.277 123.712C121.245 123.705 121.31 123.717 121.396 123.781C121.47 123.837 121.461 123.86 121.392 123.743L116.227 126.796ZM124.9 129.263C126.554 128.867 128.125 128.334 129.33 127.355C130.727 126.221 131.301 124.777 131.492 123.336L125.544 122.547C125.516 122.758 125.484 122.802 125.501 122.768C125.528 122.715 125.563 122.685 125.547 122.698C125.511 122.728 125.371 122.828 125.027 122.968C124.681 123.109 124.193 123.263 123.501 123.429L124.9 129.263Z" fill="#141414" mask="url(#path-3-outside-2_2021_39)"/>
<mask id="path-5-outside-3_2021_39" maskUnits="userSpaceOnUse" x="144.547" y="25.3263" width="110.328" height="115.44" fill="black">
<rect fill="white" x="144.547" y="25.3263" width="110.328" height="115.44"/>
<path d="M242.013 126.103L213.871 130.038L199.054 72.1401L197.66 72.3351L198.785 132.147L170.643 136.082L148.732 41.3075L168.888 38.4892L182.326 103.171L183.721 102.977L183.339 36.4686L203.369 33.6681L221.371 97.7122L222.765 97.5173L217.82 31.6474L236.835 28.9887L242.013 126.103Z"/>
</mask>
<path d="M242.013 126.103L213.871 130.038L199.054 72.1401L197.66 72.3351L198.785 132.147L170.643 136.082L148.732 41.3075L168.888 38.4892L182.326 103.171L183.721 102.977L183.339 36.4686L203.369 33.6681L221.371 97.7122L222.765 97.5173L217.82 31.6474L236.835 28.9887L242.013 126.103Z" fill="url(#paint2_linear_2021_39)"/>
<path d="M242.013 126.103L242.428 129.074L245.155 128.693L245.009 125.944L242.013 126.103ZM213.871 130.038L210.964 130.782L211.629 133.381L214.286 133.009L213.871 130.038ZM199.054 72.1401L201.961 71.3964L201.296 68.7975L198.639 69.169L199.054 72.1401ZM197.66 72.3351L197.245 69.364L194.61 69.7323L194.661 72.3915L197.66 72.3351ZM198.785 132.147L199.201 135.119L201.835 134.75L201.785 132.091L198.785 132.147ZM170.643 136.082L167.72 136.758L168.339 139.434L171.059 139.054L170.643 136.082ZM148.732 41.3075L148.317 38.3364L145.071 38.7902L145.809 41.9832L148.732 41.3075ZM168.888 38.4892L171.825 37.879L171.254 35.1292L168.473 35.5181L168.888 38.4892ZM182.326 103.172L179.389 103.782L179.96 106.532L182.742 106.143L182.326 103.172ZM183.721 102.977L184.136 105.948L186.736 105.584L186.721 102.959L183.721 102.977ZM183.339 36.4686L182.924 33.4975L180.324 33.861L180.339 36.4858L183.339 36.4686ZM203.369 33.6681L206.257 32.8563L205.548 30.3342L202.953 30.697L203.369 33.6681ZM221.371 97.7122L218.482 98.524L219.191 101.046L221.786 100.683L221.371 97.7122ZM222.765 97.5173L223.18 100.488L225.967 100.099L225.757 97.2927L222.765 97.5173ZM217.82 31.6474L217.405 28.6763L214.618 29.066L214.828 31.872L217.82 31.6474ZM236.835 28.9887L239.831 28.829L239.657 25.565L236.42 26.0176L236.835 28.9887ZM241.597 123.132L213.455 127.067L214.286 133.009L242.428 129.074L241.597 123.132ZM216.777 129.294L201.961 71.3964L196.148 72.8838L210.964 130.782L216.777 129.294ZM198.639 69.169L197.245 69.364L198.075 75.3062L199.47 75.1112L198.639 69.169ZM194.661 72.3915L195.786 132.204L201.785 132.091L200.659 72.2786L194.661 72.3915ZM198.37 129.176L170.228 133.111L171.059 139.054L199.201 135.119L198.37 129.176ZM173.566 135.407L151.655 40.6317L145.809 41.9832L167.72 136.758L173.566 135.407ZM149.147 44.2786L169.303 41.4603L168.473 35.5181L148.317 38.3364L149.147 44.2786ZM165.951 39.0995L179.389 103.782L185.264 102.561L171.825 37.879L165.951 39.0995ZM182.742 106.143L184.136 105.948L183.305 100.005L181.911 100.2L182.742 106.143ZM186.721 102.959L186.339 36.4514L180.339 36.4858L180.721 102.994L186.721 102.959ZM183.755 39.4397L203.784 36.6392L202.953 30.697L182.924 33.4975L183.755 39.4397ZM200.48 34.4799L218.482 98.524L224.259 96.9004L206.257 32.8563L200.48 34.4799ZM221.786 100.683L223.18 100.488L222.35 94.5462L220.955 94.7411L221.786 100.683ZM225.757 97.2927L220.812 31.4228L214.828 31.872L219.773 97.7418L225.757 97.2927ZM218.235 34.6185L237.25 31.9598L236.42 26.0176L217.405 28.6763L218.235 34.6185ZM233.839 29.1484L239.017 126.263L245.009 125.944L239.831 28.829L233.839 29.1484Z" fill="#141414" mask="url(#path-5-outside-3_2021_39)"/>
<mask id="path-7-outside-4_2021_39" maskUnits="userSpaceOnUse" x="283.79" y="22.9833" width="58.8" height="103.448" fill="black">
<rect fill="white" x="283.79" y="22.9833" width="58.8" height="103.448"/>
<path d="M323.56 123.128L303.464 123.285L302.869 46.871L287.638 46.9896L287.478 26.5102L338.037 26.1166L338.196 46.596L322.965 46.7146L323.56 123.128Z"/>
</mask>
<path d="M323.56 123.128L303.464 123.285L302.869 46.871L287.638 46.9896L287.478 26.5102L338.037 26.1166L338.196 46.596L322.965 46.7146L323.56 123.128Z" fill="url(#paint3_linear_2021_39)"/>
<path d="M323.56 123.128L323.583 126.128L326.583 126.105L326.56 123.105L323.56 123.128ZM303.464 123.285L300.464 123.308L300.488 126.308L303.488 126.285L303.464 123.285ZM302.869 46.871L305.869 46.8476L305.846 43.8477L302.846 43.8711L302.869 46.871ZM287.638 46.9896L284.638 47.0129L284.661 50.0128L287.661 49.9895L287.638 46.9896ZM287.478 26.5102L287.455 23.5103L284.455 23.5336L284.479 26.5335L287.478 26.5102ZM338.037 26.1166L341.037 26.0932L341.014 23.0933L338.014 23.1167L338.037 26.1166ZM338.196 46.596L338.22 49.5959L341.22 49.5725L341.196 46.5726L338.196 46.596ZM322.965 46.7146L322.941 43.7146L319.942 43.738L319.965 46.7379L322.965 46.7146ZM323.536 120.128L303.441 120.285L303.488 126.285L323.583 126.128L323.536 120.128ZM306.464 123.261L305.869 46.8476L299.87 46.8943L300.464 123.308L306.464 123.261ZM302.846 43.8711L287.615 43.9896L287.661 49.9895L302.893 49.8709L302.846 43.8711ZM290.638 46.9662L290.478 26.4868L284.479 26.5335L284.638 47.0129L290.638 46.9662ZM287.502 29.5101L338.06 29.1165L338.014 23.1167L287.455 23.5103L287.502 29.5101ZM335.037 26.14L335.196 46.6193L341.196 46.5726L341.037 26.0932L335.037 26.14ZM338.173 43.5961L322.941 43.7146L322.988 49.7145L338.22 49.5959L338.173 43.5961ZM319.965 46.7379L320.56 123.152L326.56 123.105L325.965 46.6912L319.965 46.7379Z" fill="#141414" mask="url(#path-7-outside-4_2021_39)"/>
<mask id="path-9-outside-5_2021_39" maskUnits="userSpaceOnUse" x="343.157" y="21.1869" width="66.8511" height="110.686" fill="black">
<rect fill="white" x="343.157" y="21.1869" width="66.8511" height="110.686"/>
<path d="M395.215 120.066C391.502 125.852 385.629 127.392 373.367 126.591C360.977 125.781 355.355 123.489 352.426 117.269C349.489 111.176 348.468 105.209 350.455 74.8099C352.442 44.4108 354.215 38.8826 357.928 33.0965C361.633 27.4381 367.514 25.7701 379.904 26.58C392.166 27.3814 397.78 29.8007 400.717 35.8933C403.645 42.1135 404.683 47.8254 402.696 78.2245C400.709 108.624 398.92 114.407 395.215 120.066ZM379.909 103.031C380.843 100.527 381.451 97.1031 382.804 76.4112C384.198 55.0807 384.04 51.607 383.432 49.1301C382.902 47.4279 381.803 46.5864 378.61 46.3777C375.417 46.169 374.089 46.8519 373.47 48.4789C372.417 50.8473 371.808 54.2709 370.414 75.6014C369.062 96.2933 369.22 99.7669 369.947 102.38C370.349 104.074 371.585 104.796 374.778 105.005C377.971 105.213 379.162 104.65 379.909 103.031Z"/>
</mask>
<path d="M395.215 120.066C391.502 125.852 385.629 127.392 373.367 126.591C360.977 125.781 355.355 123.489 352.426 117.269C349.489 111.176 348.468 105.209 350.455 74.8099C352.442 44.4108 354.215 38.8826 357.928 33.0965C361.633 27.4381 367.514 25.7701 379.904 26.58C392.166 27.3814 397.78 29.8007 400.717 35.8933C403.645 42.1135 404.683 47.8254 402.696 78.2245C400.709 108.624 398.92 114.407 395.215 120.066ZM379.909 103.031C380.843 100.527 381.451 97.1031 382.804 76.4112C384.198 55.0807 384.04 51.607 383.432 49.1301C382.902 47.4279 381.803 46.5864 378.61 46.3777C375.417 46.169 374.089 46.8519 373.47 48.4789C372.417 50.8473 371.808 54.2709 370.414 75.6014C369.062 96.2933 369.22 99.7669 369.947 102.38C370.349 104.074 371.585 104.796 374.778 105.005C377.971 105.213 379.162 104.65 379.909 103.031Z" fill="url(#paint4_linear_2021_39)"/>
<path d="M395.215 120.066L392.705 118.422L392.698 118.434L392.69 118.445L395.215 120.066ZM352.426 117.269L355.14 115.991L355.135 115.979L355.129 115.966L352.426 117.269ZM357.928 33.0965L355.418 31.4531L355.411 31.4646L355.403 31.4762L357.928 33.0965ZM400.717 35.8933L403.431 34.6154L403.425 34.603L403.419 34.5906L400.717 35.8933ZM379.909 103.031L382.633 104.288L382.681 104.185L382.721 104.079L379.909 103.031ZM383.432 49.1301L386.346 48.4152L386.324 48.3259L386.297 48.2381L383.432 49.1301ZM373.47 48.4789L376.211 49.6975L376.244 49.6227L376.273 49.5463L373.47 48.4789ZM369.947 102.38L372.865 101.687L372.852 101.631L372.837 101.576L369.947 102.38ZM392.69 118.445C391.224 120.73 389.426 122.113 386.659 122.918C383.714 123.775 379.611 123.992 373.562 123.597L373.171 129.584C379.384 129.99 384.349 129.839 388.335 128.679C392.498 127.468 395.493 125.188 397.74 121.686L392.69 118.445ZM373.562 123.597C367.447 123.197 363.375 122.445 360.55 121.21C357.897 120.05 356.296 118.445 355.14 115.991L349.712 118.547C351.485 122.313 354.159 124.964 358.147 126.707C361.963 128.376 366.897 129.174 373.171 129.584L373.562 123.597ZM355.129 115.966C352.592 110.704 351.452 105.558 353.449 75.0056L347.462 74.6143C345.485 104.861 346.387 111.649 349.724 118.572L355.129 115.966ZM353.449 75.0056C355.444 44.4769 357.224 39.7476 360.453 34.7168L355.403 31.4762C351.205 38.0176 349.44 44.3447 347.462 74.6143L353.449 75.0056ZM360.438 34.7399C361.9 32.507 363.706 31.1132 366.505 30.291C369.469 29.42 373.609 29.1749 379.708 29.5736L380.099 23.5863C373.809 23.1752 368.813 23.3591 364.813 24.5343C360.648 25.7583 357.661 28.0276 355.418 31.4531L360.438 34.7399ZM379.708 29.5736C385.741 29.9679 389.781 30.7473 392.59 31.9944C395.243 33.1723 396.854 34.7901 398.014 37.196L403.419 34.5906C401.642 30.9039 398.978 28.2658 395.024 26.5105C391.227 24.8245 386.329 23.9935 380.099 23.5863L379.708 29.5736ZM398.002 37.1711C400.549 42.5794 401.698 47.5001 399.702 78.0288L405.689 78.4202C407.668 48.1506 406.742 41.6476 403.431 34.6154L398.002 37.1711ZM399.702 78.0288C397.705 108.581 395.905 113.535 392.705 118.422L397.725 121.709C401.934 115.28 403.712 108.667 405.689 78.4202L399.702 78.0288ZM382.721 104.079C383.846 101.058 384.459 97.084 385.797 76.6069L379.81 76.2155C378.444 97.1222 377.839 99.9955 377.098 101.983L382.721 104.079ZM385.797 76.6069C386.494 65.9438 386.808 59.6745 386.868 55.7465C386.929 51.8057 386.74 50.0207 386.346 48.4152L380.519 49.845C380.733 50.7164 380.927 51.9067 380.869 55.6547C380.812 59.4153 380.507 65.5481 379.81 76.2155L385.797 76.6069ZM386.297 48.2381C385.879 46.8961 385.105 45.5572 383.576 44.6292C382.214 43.8027 380.559 43.4987 378.805 43.3841L378.414 49.3713C379.854 49.4654 380.345 49.6865 380.463 49.7586C380.483 49.7702 380.483 49.7725 380.473 49.7638C380.469 49.76 380.465 49.7557 380.461 49.7514C380.459 49.7493 380.458 49.7476 380.457 49.7462C380.456 49.7449 380.455 49.7442 380.455 49.7442C380.455 49.7442 380.456 49.7451 380.457 49.747C380.459 49.749 380.46 49.7521 380.463 49.7565C380.468 49.7653 380.476 49.7798 380.486 49.8013C380.506 49.8451 380.535 49.9153 380.568 50.0221L386.297 48.2381ZM378.805 43.3841C377.054 43.2696 375.352 43.3541 373.888 43.9844C372.221 44.7023 371.217 45.9642 370.666 47.4115L376.273 49.5463C376.326 49.4084 376.35 49.4028 376.312 49.4453C376.265 49.4973 376.226 49.5105 376.261 49.4954C376.414 49.4296 376.972 49.2771 378.414 49.3713L378.805 43.3841ZM370.728 47.2604C370.02 48.8543 369.561 50.6536 369.091 54.5721C368.622 58.4816 368.117 64.7463 367.421 75.4057L373.408 75.7971C374.105 65.1261 374.602 59.0136 375.049 55.2867C375.495 51.5687 375.867 50.472 376.211 49.6975L370.728 47.2604ZM367.421 75.4057C366.745 85.7467 366.44 91.8648 366.401 95.7395C366.361 99.6367 366.583 101.482 367.056 103.184L372.837 101.576C372.583 100.665 372.363 99.4668 372.4 95.801C372.438 92.1126 372.731 86.148 373.408 75.7971L367.421 75.4057ZM367.028 103.073C367.397 104.627 368.269 105.995 369.866 106.876C371.226 107.626 372.886 107.887 374.582 107.998L374.973 102.011C374.265 101.965 373.746 101.894 373.366 101.812C372.986 101.73 372.816 101.65 372.765 101.622C372.736 101.607 372.796 101.637 372.858 101.724C372.912 101.8 372.897 101.819 372.865 101.687L367.028 103.073ZM374.582 107.998C376.279 108.109 377.938 108.065 379.378 107.487C381.048 106.817 382.024 105.608 382.633 104.288L377.186 101.774C377.096 101.967 377.053 101.999 377.079 101.972C377.12 101.929 377.163 101.911 377.144 101.919C377.1 101.936 376.938 101.991 376.567 102.023C376.195 102.054 375.683 102.057 374.973 102.011L374.582 107.998Z" fill="#141414" mask="url(#path-9-outside-5_2021_39)"/>
<mask id="path-11-outside-6_2021_39" maskUnits="userSpaceOnUse" x="434.568" y="30.4128" width="76.9986" height="115.75" fill="black">
<rect fill="white" x="434.568" y="30.4128" width="76.9986" height="115.75"/>
<path d="M478.286 105.08L479.102 100.545L469.905 98.8916L473.347 79.7425L500.307 84.5884C499.844 87.8865 498.77 94.5862 497.185 103.405C493.426 124.318 490.986 129.211 487.182 133.73C482.843 139.062 476.834 139.933 464.74 137.759C452.519 135.562 447.19 132.654 444.979 126.144C442.745 119.76 442.401 113.716 447.926 82.9763C453.225 53.4967 455.629 48.0767 459.947 42.8703C464.241 37.7899 470.502 36.9645 482.47 39.1157C496.328 41.6065 502.29 46.0595 503.522 55.1244C503.999 58.9817 503.665 63.7336 502.646 69.4027C502.216 71.7963 502.058 72.6782 501.637 74.2933L483.244 70.9873C483.461 70.506 483.574 69.8761 483.664 69.3722C484.412 65.2148 484.351 63.3831 484.199 62.0554C484.116 60.3497 482.488 59.2768 478.834 58.6201C475.433 58.0087 473.911 58.5155 472.987 60.04C471.778 62.4238 470.834 65.5054 467.12 86.1663C463.203 107.961 463.002 110.526 463.35 112.929C463.744 115.081 465.624 116.199 468.899 116.788C472.175 117.377 473.696 116.87 474.999 115.413C476.449 113.853 476.928 112.639 478.286 105.08Z"/>
</mask>
<path d="M478.286 105.08L479.102 100.545L469.905 98.8916L473.347 79.7425L500.307 84.5884C499.844 87.8865 498.77 94.5862 497.185 103.405C493.426 124.318 490.986 129.211 487.182 133.73C482.843 139.062 476.834 139.933 464.74 137.759C452.519 135.562 447.19 132.654 444.979 126.144C442.745 119.76 442.401 113.716 447.926 82.9763C453.225 53.4967 455.629 48.0767 459.947 42.8703C464.241 37.7899 470.502 36.9645 482.47 39.1157C496.328 41.6065 502.29 46.0595 503.522 55.1244C503.999 58.9817 503.665 63.7336 502.646 69.4027C502.216 71.7963 502.058 72.6782 501.637 74.2933L483.244 70.9873C483.461 70.506 483.574 69.8761 483.664 69.3722C484.412 65.2148 484.351 63.3831 484.199 62.0554C484.116 60.3497 482.488 59.2768 478.834 58.6201C475.433 58.0087 473.911 58.5155 472.987 60.04C471.778 62.4238 470.834 65.5054 467.12 86.1663C463.203 107.961 463.002 110.526 463.35 112.929C463.744 115.081 465.624 116.199 468.899 116.788C472.175 117.377 473.696 116.87 474.999 115.413C476.449 113.853 476.928 112.639 478.286 105.08Z" fill="url(#paint5_linear_2021_39)"/>
<path d="M479.102 100.545L482.054 101.075L482.585 98.1227L479.632 97.592L479.102 100.545ZM469.905 98.8916L466.952 98.3609L466.422 101.314L469.374 101.844L469.905 98.8916ZM473.347 79.7425L473.878 76.7898L470.925 76.2591L470.394 79.2118L473.347 79.7425ZM500.307 84.5884L503.278 85.0052L503.679 82.1464L500.838 81.6357L500.307 84.5884ZM487.182 133.73L484.887 131.798L484.871 131.817L484.856 131.836L487.182 133.73ZM444.979 126.144L447.819 125.179L447.815 125.166L447.81 125.153L444.979 126.144ZM459.947 42.8703L457.656 40.9336L457.646 40.9444L457.637 40.9554L459.947 42.8703ZM503.522 55.1244L506.499 54.7561L506.497 54.7383L506.495 54.7205L503.522 55.1244ZM501.637 74.2933L501.106 77.246L503.841 77.7375L504.54 75.049L501.637 74.2933ZM483.244 70.9873L480.508 69.7562L478.932 73.2602L482.713 73.9399L483.244 70.9873ZM484.199 62.0554L481.203 62.2022L481.208 62.2991L481.219 62.3955L484.199 62.0554ZM472.987 60.04L470.421 58.4847L470.363 58.5819L470.311 58.6832L472.987 60.04ZM463.35 112.929L460.381 113.36L460.389 113.415L460.399 113.469L463.35 112.929ZM474.999 115.413L472.802 113.37L472.782 113.392L472.762 113.414L474.999 115.413ZM481.239 105.611L482.054 101.075L476.149 100.014L475.334 104.549L481.239 105.611ZM479.632 97.592L470.436 95.9389L469.374 101.844L478.571 103.497L479.632 97.592ZM472.858 99.4224L476.3 80.2732L470.394 79.2118L466.952 98.3609L472.858 99.4224ZM472.816 82.6952L499.776 87.541L500.838 81.6357L473.878 76.7898L472.816 82.6952ZM497.336 84.1715C496.881 87.4162 495.814 94.0741 494.232 102.874L500.138 103.936C501.726 95.0982 502.808 88.3568 503.278 85.0052L497.336 84.1715ZM494.232 102.874C490.48 123.749 488.138 127.936 484.887 131.798L489.478 135.662C493.834 130.486 496.372 124.887 500.138 103.936L494.232 102.874ZM484.856 131.836C483.142 133.941 481.2 135.113 478.36 135.603C475.338 136.123 471.236 135.879 465.27 134.806L464.209 140.712C470.337 141.813 475.287 142.22 479.378 141.516C483.651 140.78 486.883 138.85 489.509 135.623L484.856 131.836ZM465.27 134.806C459.239 133.722 455.277 132.517 452.609 130.972C450.103 129.522 448.692 127.748 447.819 125.179L442.138 127.109C443.477 131.05 445.837 133.985 449.603 136.165C453.207 138.252 458.02 139.599 464.209 140.712L465.27 134.806ZM447.81 125.153C445.882 119.642 445.324 114.409 450.879 83.507L444.973 82.4456C439.477 113.022 439.608 119.877 442.147 127.135L447.81 125.153ZM450.879 83.507C456.202 53.8891 458.524 49.2856 462.256 44.7852L457.637 40.9554C452.735 46.8677 450.247 53.1044 444.973 82.4456L450.879 83.507ZM462.238 44.807C463.893 42.849 465.87 41.7104 468.802 41.2438C471.891 40.7524 476.046 41.009 481.939 42.0683L483.001 36.163C476.926 35.0711 471.967 34.6649 467.859 35.3184C463.596 35.9968 460.295 37.8111 457.656 40.9336L462.238 44.807ZM481.939 42.0683C488.715 43.2863 493.11 44.9179 495.92 47.0462C498.569 49.0527 500.024 51.6647 500.549 55.5284L506.495 54.7205C505.788 49.5193 503.647 45.3723 499.542 42.2634C495.599 39.2762 490.083 37.4359 483.001 36.163L481.939 42.0683ZM500.545 55.4927C500.969 58.9231 500.688 63.3388 499.694 68.872L505.599 69.9334C506.642 64.1284 507.029 59.0402 506.499 54.7561L500.545 55.4927ZM499.694 68.872C499.263 71.2699 499.122 72.0474 498.734 73.5377L504.54 75.049C504.993 73.309 505.17 72.3228 505.599 69.9334L499.694 68.872ZM502.168 71.3406L483.775 68.0346L482.713 73.9399L501.106 77.246L502.168 71.3406ZM485.98 72.2183C486.378 71.3343 486.544 70.3104 486.617 69.9029L480.712 68.8414C480.664 69.1047 480.627 69.3076 480.583 69.4945C480.537 69.6884 480.506 69.7608 480.508 69.7562L485.98 72.2183ZM486.617 69.9029C487.401 65.5415 487.373 63.4067 487.18 61.7153L481.219 62.3955C481.329 63.3595 481.422 64.888 480.712 68.8414L486.617 69.9029ZM487.196 61.9086C487.098 59.9182 486.013 58.4103 484.481 57.4229C483.105 56.536 481.318 56.0184 479.365 55.6674L478.304 61.5728C480.004 61.8785 480.857 62.2256 481.23 62.4658C481.385 62.5655 481.363 62.5882 481.303 62.4931C481.232 62.3803 481.206 62.2604 481.203 62.2022L487.196 61.9086ZM479.365 55.6674C477.521 55.3359 475.776 55.2206 474.223 55.6267C472.473 56.0842 471.246 57.1248 470.421 58.4847L475.552 61.5953C475.63 61.4673 475.666 61.4478 475.649 61.4607C475.627 61.478 475.635 61.459 475.74 61.4315C476.03 61.3559 476.746 61.2929 478.304 61.5728L479.365 55.6674ZM470.311 58.6832C468.853 61.558 467.844 65.1837 464.168 85.6356L470.073 86.697C473.824 65.8271 474.703 63.2896 475.663 61.3968L470.311 58.6832ZM464.168 85.6356C462.211 96.5211 461.169 102.676 460.663 106.417C460.153 110.184 460.148 111.749 460.381 113.36L466.319 112.499C466.204 111.706 466.126 110.787 466.609 107.222C467.095 103.631 468.112 97.6062 470.073 86.697L464.168 85.6356ZM460.399 113.469C460.754 115.408 461.83 116.902 463.374 117.937C464.803 118.894 466.562 119.416 468.368 119.741L469.43 113.835C467.961 113.571 467.142 113.239 466.714 112.952C466.401 112.743 466.34 112.603 466.301 112.39L460.399 113.469ZM468.368 119.741C470.185 120.067 471.864 120.161 473.408 119.78C475.067 119.371 476.273 118.489 477.235 117.413L472.762 113.414C472.422 113.794 472.216 113.894 471.97 113.955C471.608 114.044 470.889 114.097 469.43 113.835L468.368 119.741ZM477.195 117.456C478.197 116.379 478.915 115.311 479.529 113.426C480.075 111.754 480.566 109.355 481.239 105.611L475.334 104.549C474.648 108.364 474.221 110.352 473.825 111.566C473.498 112.568 473.251 112.888 472.802 113.37L477.195 117.456Z" fill="#141414" mask="url(#path-11-outside-6_2021_39)"/>
<mask id="path-13-outside-7_2021_39" maskUnits="userSpaceOnUse" x="497.574" y="45.5317" width="73.8497" height="112.148" fill="black">
<rect fill="white" x="497.574" y="45.5317" width="73.8497" height="112.148"/>
<path d="M542.995 153.811L501.563 143.272L525.451 49.3663L567.007 59.9377L561.958 79.7855L539.877 74.1685L535.68 90.6671L557.389 96.1894L552.561 115.169L530.852 109.647L526.34 127.386L548.296 132.971L542.995 153.811Z"/>
</mask>
<path d="M542.995 153.811L501.563 143.272L525.451 49.3663L567.007 59.9377L561.958 79.7855L539.877 74.1685L535.68 90.6671L557.389 96.1894L552.561 115.169L530.852 109.647L526.34 127.386L548.296 132.971L542.995 153.811Z" fill="url(#paint6_linear_2021_39)"/>
<path d="M542.995 153.811L542.255 156.719L545.163 157.458L545.902 154.551L542.995 153.811ZM501.563 143.272L498.655 142.532L497.915 145.439L500.823 146.179L501.563 143.272ZM525.451 49.3663L526.19 46.4589L523.283 45.7193L522.543 48.6267L525.451 49.3663ZM567.007 59.9377L569.915 60.6773L570.654 57.7699L567.747 57.0303L567.007 59.9377ZM561.958 79.7855L561.218 82.6929L564.126 83.4325L564.865 80.5251L561.958 79.7855ZM539.877 74.1685L540.617 71.2611L537.71 70.5215L536.97 73.4289L539.877 74.1685ZM535.68 90.6671L532.773 89.9275L532.033 92.8349L534.941 93.5745L535.68 90.6671ZM557.389 96.1894L560.296 96.929L561.036 94.0216L558.129 93.282L557.389 96.1894ZM552.561 115.169L551.821 118.076L554.729 118.816L555.468 115.909L552.561 115.169ZM530.852 109.647L531.592 106.739L528.684 106L527.945 108.907L530.852 109.647ZM526.34 127.386L523.432 126.646L522.693 129.553L525.6 130.293L526.34 127.386ZM548.296 132.971L551.204 133.711L551.943 130.803L549.036 130.064L548.296 132.971ZM543.735 150.904L502.302 140.364L500.823 146.179L542.255 156.719L543.735 150.904ZM504.47 144.011L528.358 50.1059L522.543 48.6267L498.655 142.532L504.47 144.011ZM524.711 52.2737L566.267 62.8451L567.747 57.0303L526.19 46.4589L524.711 52.2737ZM564.1 59.1981L559.051 79.0459L564.865 80.5251L569.915 60.6773L564.1 59.1981ZM562.698 76.8781L540.617 71.2611L539.138 77.0759L561.218 82.6929L562.698 76.8781ZM536.97 73.4289L532.773 89.9275L538.588 91.4067L542.785 74.9081L536.97 73.4289ZM534.941 93.5745L556.649 99.0968L558.129 93.282L536.42 87.7597L534.941 93.5745ZM554.482 95.4498L549.653 114.429L555.468 115.909L560.296 96.929L554.482 95.4498ZM553.3 112.262L531.592 106.739L530.113 112.554L551.821 118.076L553.3 112.262ZM527.945 108.907L523.432 126.646L529.247 128.125L533.76 110.386L527.945 108.907ZM525.6 130.293L547.557 135.878L549.036 130.064L527.079 124.478L525.6 130.293ZM545.389 132.231L540.088 153.072L545.902 154.551L551.204 133.711L545.389 132.231Z" fill="#141414" mask="url(#path-13-outside-7_2021_39)"/>
<mask id="path-15-outside-8_2021_39" maskUnits="userSpaceOnUse" x="547.762" y="60.2209" width="87.2939" height="115.97" fill="black">
<rect fill="white" x="547.762" y="60.2209" width="87.2939" height="115.97"/>
<path d="M585.738 167.398L566.649 161.116L590.539 88.5302L576.071 83.7682L582.473 64.3148L630.499 80.1215L624.096 99.5749L609.628 94.8129L585.738 167.398Z"/>
</mask>
<path d="M585.738 167.398L566.649 161.116L590.539 88.5302L576.071 83.7682L582.473 64.3148L630.499 80.1215L624.096 99.5749L609.628 94.8129L585.738 167.398Z" fill="url(#paint7_linear_2021_39)"/>
<path d="M585.738 167.398L584.8 170.248L587.649 171.186L588.587 168.336L585.738 167.398ZM566.649 161.116L563.799 160.178L562.861 163.027L565.711 163.965L566.649 161.116ZM590.539 88.5302L593.389 89.4681L594.327 86.6185L591.477 85.6806L590.539 88.5302ZM576.071 83.7682L573.221 82.8303L572.283 85.6799L575.133 86.6178L576.071 83.7682ZM582.473 64.3148L583.411 61.4651L580.562 60.5272L579.624 63.3769L582.473 64.3148ZM630.499 80.1215L633.349 81.0594L634.286 78.2098L631.437 77.2719L630.499 80.1215ZM624.096 99.5749L623.158 102.425L626.008 103.362L626.946 100.513L624.096 99.5749ZM609.628 94.8129L610.566 91.9633L607.716 91.0254L606.778 93.875L609.628 94.8129ZM586.675 164.549L567.587 158.266L565.711 163.965L584.8 170.248L586.675 164.549ZM569.498 162.054L593.389 89.4681L587.689 87.5923L563.799 160.178L569.498 162.054ZM591.477 85.6806L577.008 80.9186L575.133 86.6178L589.601 91.3798L591.477 85.6806ZM578.92 84.7061L585.323 65.2527L579.624 63.3769L573.221 82.8303L578.92 84.7061ZM581.535 67.1644L629.561 82.9711L631.437 77.2719L583.411 61.4651L581.535 67.1644ZM627.649 79.1836L621.247 98.637L626.946 100.513L633.349 81.0594L627.649 79.1836ZM625.034 96.7253L610.566 91.9633L608.69 97.6625L623.158 102.425L625.034 96.7253ZM606.778 93.875L582.888 166.461L588.587 168.336L612.477 95.7508L606.778 93.875Z" fill="#141414" mask="url(#path-15-outside-8_2021_39)"/>
<defs>
<linearGradient id="paint0_linear_2021_39" x1="-9.83072" y1="58.7724" x2="93.4852" y2="30.6027" gradientUnits="userSpaceOnUse">
<stop stop-color="#E0B5FC"/>
<stop offset="0.49" stop-color="#FFFF7D"/>
<stop offset="0.89" stop-color="#FF4C9D"/>
</linearGradient>
<linearGradient id="paint1_linear_2021_39" x1="62.5221" y1="35.1826" x2="160.885" y2="16.1258" gradientUnits="userSpaceOnUse">
<stop stop-color="#E0B5FC"/>
<stop offset="0.49" stop-color="#FFFF7D"/>
<stop offset="0.89" stop-color="#FF4C9D"/>
</linearGradient>
<linearGradient id="paint2_linear_2021_39" x1="127.992" y1="17.8495" x2="288.026" y2="6.8694" gradientUnits="userSpaceOnUse">
<stop stop-color="#E0B5FC"/>
<stop offset="0.49" stop-color="#FFFF7D"/>
<stop offset="0.89" stop-color="#FF4C9D"/>
</linearGradient>
<linearGradient id="paint3_linear_2021_39" x1="276.612" y1="0.490001" x2="369.855" y2="3.58201" gradientUnits="userSpaceOnUse">
<stop stop-color="#E0B5FC"/>
<stop offset="0.49" stop-color="#FFFF7D"/>
<stop offset="0.89" stop-color="#FF4C9D"/>
</linearGradient>
<linearGradient id="paint4_linear_2021_39" x1="342.858" y1="-0.333596" x2="442.453" y2="10.5887" gradientUnits="userSpaceOnUse">
<stop stop-color="#E0B5FC"/>
<stop offset="0.49" stop-color="#FFFF7D"/>
<stop offset="0.89" stop-color="#FF4C9D"/>
</linearGradient>
<linearGradient id="paint5_linear_2021_39" x1="448.682" y1="8.2108" x2="546.42" y2="30.2522" gradientUnits="userSpaceOnUse">
<stop stop-color="#E0B5FC"/>
<stop offset="0.49" stop-color="#FFFF7D"/>
<stop offset="0.89" stop-color="#FF4C9D"/>
</linearGradient>
<linearGradient id="paint6_linear_2021_39" x1="519.431" y1="20.8996" x2="603.927" y2="45.9086" gradientUnits="userSpaceOnUse">
<stop stop-color="#E0B5FC"/>
<stop offset="0.49" stop-color="#FFFF7D"/>
<stop offset="0.89" stop-color="#FF4C9D"/>
</linearGradient>
<linearGradient id="paint7_linear_2021_39" x1="580.505" y1="36.1853" x2="667.855" y2="68.9543" gradientUnits="userSpaceOnUse">
<stop stop-color="#E0B5FC"/>
<stop offset="0.49" stop-color="#FFFF7D"/>
<stop offset="0.89" stop-color="#FF4C9D"/>
</linearGradient>
</defs>
</svg>
