<svg width="331" height="90" viewBox="0 0 331 90" fill="none" xmlns="http://www.w3.org/2000/svg">
<mask id="path-1-outside-1_2040_363" maskUnits="userSpaceOnUse" x="2.46464" y="29.3835" width="38.2909" height="49.8699" fill="black">
<rect fill="white" x="2.46464" y="29.3835" width="38.2909" height="49.8699"/>
<path d="M37.9392 70.0532L29.9122 72.6525L24.8911 57.1471L20.0052 58.7293L25.0263 74.2347L16.9994 76.8341L4.77756 39.0927L12.8045 36.4933L17.535 51.1013L22.4209 49.5191L17.6904 34.9111L25.7173 32.3117L37.9392 70.0532Z"/>
</mask>
<path d="M37.9392 70.0532L29.9122 72.6525L24.8911 57.1471L20.0052 58.7293L25.0263 74.2347L16.9994 76.8341L4.77756 39.0927L12.8045 36.4933L17.535 51.1013L22.4209 49.5191L17.6904 34.9111L25.7173 32.3117L37.9392 70.0532Z" fill="url(#paint0_linear_2040_363)"/>
<path d="M37.9392 70.0532L38.4235 71.5489L39.9192 71.0645L39.4348 69.5688L37.9392 70.0532ZM29.9122 72.6525L28.4165 73.1369L28.9009 74.6326L30.3966 74.1482L29.9122 72.6525ZM24.8911 57.1471L26.3868 56.6628L25.9025 55.1671L24.4068 55.6514L24.8911 57.1471ZM20.0052 58.7293L19.5208 57.2337L18.0251 57.718L18.5095 59.2137L20.0052 58.7293ZM25.0263 74.2347L25.5106 75.7304L27.0063 75.2461L26.522 73.7504L25.0263 74.2347ZM16.9994 76.8341L15.5037 77.3185L15.988 78.8142L17.4837 78.3298L16.9994 76.8341ZM4.77756 39.0927L4.29321 37.597L2.79751 38.0813L3.28186 39.577L4.77756 39.0927ZM12.8045 36.4933L14.3002 36.009L13.8158 34.5133L12.3201 34.9976L12.8045 36.4933ZM17.535 51.1013L16.0393 51.5856L16.5236 53.0813L18.0193 52.597L17.535 51.1013ZM22.4209 49.5191L22.9053 51.0148L24.401 50.5304L23.9166 49.0347L22.4209 49.5191ZM17.6904 34.9111L17.2061 33.4154L15.7104 33.8997L16.1947 35.3954L17.6904 34.9111ZM25.7173 32.3117L27.213 31.8274L26.7287 30.3317L25.233 30.816L25.7173 32.3117ZM37.4548 68.5575L29.4279 71.1568L30.3966 74.1482L38.4235 71.5489L37.4548 68.5575ZM31.4079 72.1682L26.3868 56.6628L23.3954 57.6315L28.4165 73.1369L31.4079 72.1682ZM24.4068 55.6514L19.5208 57.2337L20.4895 60.225L25.3755 58.6428L24.4068 55.6514ZM18.5095 59.2137L23.5306 74.7191L26.522 73.7504L21.5009 58.245L18.5095 59.2137ZM24.5419 72.7391L16.515 75.3384L17.4837 78.3298L25.5106 75.7304L24.5419 72.7391ZM18.4951 76.3498L6.27326 38.6083L3.28186 39.577L15.5037 77.3185L18.4951 76.3498ZM5.26191 40.5884L13.2888 37.989L12.3201 34.9976L4.29321 37.597L5.26191 40.5884ZM11.3088 36.9777L16.0393 51.5856L19.0307 50.6169L14.3002 36.009L11.3088 36.9777ZM18.0193 52.597L22.9053 51.0148L21.9366 48.0234L17.0506 49.6056L18.0193 52.597ZM23.9166 49.0347L19.1861 34.4267L16.1947 35.3954L20.9252 50.0034L23.9166 49.0347ZM18.1748 36.4068L26.2017 33.8074L25.233 30.816L17.2061 33.4154L18.1748 36.4068ZM24.2216 32.7961L36.4435 70.5375L39.4348 69.5688L27.213 31.8274L24.2216 32.7961Z" fill="#141414" mask="url(#path-1-outside-1_2040_363)"/>
<mask id="path-3-outside-2_2040_363" maskUnits="userSpaceOnUse" x="38.5843" y="19.8581" width="35.7757" height="49.8219" fill="black">
<rect fill="white" x="38.5843" y="19.8581" width="35.7757" height="49.8219"/>
<path d="M68.8295 59.2182C68.0788 61.9311 65.9689 63.2453 61.0766 64.4184C56.1334 65.6036 53.6568 65.3891 51.7575 63.3116C49.8705 61.2851 48.7478 59.0753 45.8397 46.9465C42.9316 34.8178 42.9545 32.4411 43.7052 29.7282C44.4681 27.0663 46.5658 25.701 51.5091 24.5158C56.4013 23.3428 58.8901 23.6083 60.7772 25.6348C62.6765 27.7123 63.7747 29.8202 66.6828 41.9489C69.5909 54.0777 69.5924 56.5563 68.8295 59.2182ZM60.7791 54.4121C60.8405 53.3196 60.6635 51.9069 58.684 43.6512C56.6434 35.1407 56.1606 33.8014 55.6227 32.9065C55.209 32.3051 54.6771 32.1093 53.403 32.4148C52.129 32.7202 51.6927 33.1482 51.6477 33.8596C51.5231 34.9134 51.7002 36.326 53.7408 44.8365C55.7202 53.0922 56.203 54.4315 56.8041 55.3652C57.1668 55.9788 57.7375 56.1114 59.0116 55.8059C60.2856 55.5005 60.6832 55.1357 60.7791 54.4121Z"/>
</mask>
<path d="M68.8295 59.2182C68.0788 61.9311 65.9689 63.2453 61.0766 64.4184C56.1334 65.6036 53.6568 65.3891 51.7575 63.3116C49.8705 61.2851 48.7478 59.0753 45.8397 46.9465C42.9316 34.8178 42.9545 32.4411 43.7052 29.7282C44.4681 27.0663 46.5658 25.701 51.5091 24.5158C56.4013 23.3428 58.8901 23.6083 60.7772 25.6348C62.6765 27.7123 63.7747 29.8202 66.6828 41.9489C69.5909 54.0777 69.5924 56.5563 68.8295 59.2182ZM60.7791 54.4121C60.8405 53.3196 60.6635 51.9069 58.684 43.6512C56.6434 35.1407 56.1606 33.8014 55.6227 32.9065C55.209 32.3051 54.6771 32.1093 53.403 32.4148C52.129 32.7202 51.6927 33.1482 51.6477 33.8596C51.5231 34.9134 51.7002 36.326 53.7408 44.8365C55.7202 53.0922 56.203 54.4315 56.8041 55.3652C57.1668 55.9788 57.7375 56.1114 59.0116 55.8059C60.2856 55.5005 60.6832 55.1357 60.7791 54.4121Z" fill="url(#paint1_linear_2040_363)"/>
<path d="M68.8295 59.2182L67.3182 58.785L67.3162 58.792L67.3143 58.7989L68.8295 59.2182ZM51.7575 63.3116L52.9179 62.2508L52.913 62.2455L52.9081 62.2402L51.7575 63.3116ZM43.7052 29.7282L42.1939 29.295L42.1919 29.302L42.19 29.3089L43.7052 29.7282ZM60.7772 25.6348L61.9375 24.574L61.9326 24.5687L61.9277 24.5634L60.7772 25.6348ZM60.7791 54.4121L62.3376 54.6188L62.3455 54.5597L62.3488 54.5003L60.7791 54.4121ZM55.6227 32.9065L56.9702 32.0966L56.9453 32.0552L56.918 32.0155L55.6227 32.9065ZM51.6477 33.8596L53.209 34.0441L53.214 34.0016L53.2167 33.9588L51.6477 33.8596ZM56.8041 55.3652L58.1576 54.5652L58.1423 54.5394L58.1261 54.5141L56.8041 55.3652ZM67.3143 58.7989C67.04 59.7902 66.5547 60.4795 65.6397 61.0839C64.6439 61.7416 63.1142 62.3131 60.71 62.8895L61.4432 65.9472C63.9313 65.3506 65.9027 64.6785 67.3726 63.7076C68.9233 62.6833 69.8684 61.3591 70.3447 59.6375L67.3143 58.7989ZM60.71 62.8895C58.2792 63.4724 56.6434 63.6597 55.4506 63.5261C54.3553 63.4034 53.6112 63.0091 52.9179 62.2508L50.5972 64.3724C51.8032 65.6915 53.247 66.4432 55.1006 66.6509C56.8567 66.8476 58.9308 66.5496 61.4432 65.9472L60.71 62.8895ZM52.9081 62.2402C51.3501 60.567 50.2954 58.7867 47.3685 46.5799L44.3109 47.3131C47.2003 59.3638 48.3909 62.0031 50.607 64.383L52.9081 62.2402ZM47.3685 46.5799C44.4445 34.385 44.5952 32.407 45.2204 30.1475L42.19 29.3089C41.3138 32.4751 41.4186 35.2505 44.3109 47.3131L47.3685 46.5799ZM45.2165 30.1613C45.4951 29.1895 45.9828 28.4933 46.9094 27.8778C47.9116 27.2121 49.4529 26.6255 51.8756 26.0446L51.1425 22.987C48.622 23.5913 46.6428 24.28 45.1696 25.2587C43.6208 26.2875 42.6782 27.605 42.1939 29.295L45.2165 30.1613ZM51.8756 26.0446C54.2716 25.4701 55.8981 25.2969 57.0862 25.4368C58.1856 25.5663 58.937 25.9656 59.6266 26.7062L61.9277 24.5634C60.7303 23.2775 59.2938 22.5308 57.4539 22.3141C55.7029 22.1079 53.6388 22.3884 51.1425 22.987L51.8756 26.0446ZM59.6168 26.6956C61.1988 28.426 62.23 30.1206 65.154 42.3155L68.2116 41.5823C65.3194 29.5198 64.1541 26.9986 61.9375 24.574L59.6168 26.6956ZM65.154 42.3155C68.0808 54.5223 67.9481 56.5873 67.3182 58.785L70.3408 59.6513C71.2368 56.5253 71.1011 53.6331 68.2116 41.5823L65.154 42.3155ZM62.3488 54.5003C62.4264 53.1194 62.166 51.4307 60.2128 43.2847L57.1552 44.0178C59.1609 52.3832 59.2546 53.5197 59.2094 54.3239L62.3488 54.5003ZM60.2128 43.2847C59.1928 39.0305 58.5538 36.5332 58.0985 34.9806C57.6412 33.4216 57.3412 32.7138 56.9702 32.0966L54.2752 33.7164C54.4421 33.9942 54.6524 34.4035 55.0812 35.8655C55.5119 37.3339 56.1346 39.7614 57.1552 44.0178L60.2128 43.2847ZM56.918 32.0155C56.5585 31.4928 56.0298 30.9985 55.2166 30.7953C54.503 30.617 53.7536 30.714 53.0365 30.8859L53.7696 33.9436C54.032 33.8807 54.2114 33.8547 54.3305 33.8471C54.4477 33.8395 54.4776 33.8516 54.4544 33.8458C54.4204 33.8373 54.3689 33.8152 54.3236 33.7804C54.2865 33.7519 54.2892 33.742 54.3273 33.7974L56.918 32.0155ZM53.0365 30.8859C52.3203 31.0576 51.6015 31.3126 51.0431 31.7897C50.3965 32.3423 50.1236 33.0499 50.0787 33.7603L53.2167 33.9588C53.2185 33.9315 53.2197 33.9697 53.1883 34.0375C53.1541 34.1114 53.109 34.1604 53.0858 34.1802C53.0712 34.1927 53.0987 34.1648 53.2146 34.1154C53.3307 34.0658 53.5075 34.0064 53.7696 33.9436L53.0365 30.8859ZM50.0864 33.675C49.9965 34.4352 50.0426 35.2344 50.3359 36.8351C50.6283 38.4312 51.1923 40.9507 52.2119 45.2031L55.2696 44.4699C54.2486 40.2117 53.7038 37.7697 53.4287 36.2684C53.1545 34.7718 53.1743 34.3377 53.209 34.0441L50.0864 33.675ZM52.2119 45.2031C53.2011 49.3284 53.8257 51.7664 54.283 53.2967C54.7436 54.8383 55.0652 55.5685 55.4822 56.2162L58.1261 54.5141C57.942 54.2282 57.7216 53.8219 57.2957 52.3965C56.8664 50.9598 56.2599 48.6003 55.2696 44.4699L52.2119 45.2031ZM55.4507 56.1651C55.8257 56.7996 56.4092 57.2968 57.2483 57.4699C57.9482 57.6144 58.6903 57.4997 59.3781 57.3348L58.645 54.2771C58.3722 54.3425 58.1784 54.3742 58.0426 54.3861C57.9059 54.3981 57.8651 54.3866 57.8839 54.3905C57.9158 54.3971 57.9908 54.4212 58.0703 54.4812C58.1443 54.5371 58.1685 54.5837 58.1576 54.5652L55.4507 56.1651ZM59.3781 57.3348C60.0664 57.1697 60.7729 56.9373 61.3283 56.4861C61.9846 55.9531 62.2509 55.2726 62.3376 54.6188L59.2206 54.2054C59.2127 54.2653 59.208 54.2438 59.2367 54.1866C59.2704 54.1195 59.3163 54.0695 59.3459 54.0455C59.3647 54.0302 59.34 54.0558 59.2204 54.1043C59.1002 54.1531 58.9182 54.2116 58.645 54.2771L59.3781 57.3348Z" fill="#141414" mask="url(#path-3-outside-2_2040_363)"/>
<mask id="path-5-outside-3_2040_363" maskUnits="userSpaceOnUse" x="75.2371" y="11.4032" width="45.7076" height="49.1151" fill="black">
<rect fill="white" x="75.2371" y="11.4032" width="45.7076" height="49.1151"/>
<path d="M115.467 53.7257L103.946 55.3367L97.8795 31.6322L97.3086 31.712L97.7693 56.2003L86.2474 57.8113L77.2766 19.0087L85.5288 17.8549L91.0307 44.337L91.6016 44.2572L91.4454 17.0276L99.6457 15.881L107.016 42.1019L107.587 42.0221L105.562 15.0537L113.348 13.9652L115.467 53.7257Z"/>
</mask>
<path d="M115.467 53.7257L103.946 55.3367L97.8795 31.6322L97.3086 31.712L97.7693 56.2003L86.2474 57.8113L77.2766 19.0087L85.5288 17.8549L91.0307 44.337L91.6016 44.2572L91.4454 17.0276L99.6457 15.881L107.016 42.1019L107.587 42.0221L105.562 15.0537L113.348 13.9652L115.467 53.7257Z" fill="url(#paint2_linear_2040_363)"/>
<path d="M115.467 53.7257L115.685 55.2827L117.114 55.0829L117.037 53.642L115.467 53.7257ZM103.946 55.3367L102.422 55.7265L102.771 57.0884L104.163 56.8938L103.946 55.3367ZM97.8795 31.6322L99.4026 31.2424L99.054 29.8805L97.6618 30.0752L97.8795 31.6322ZM97.3086 31.712L97.0909 30.155L95.7104 30.348L95.7367 31.7416L97.3086 31.712ZM97.7693 56.2003L97.987 57.7573L99.3674 57.5643L99.3412 56.1707L97.7693 56.2003ZM86.2474 57.8113L84.7156 58.1655L85.0398 59.5677L86.4651 59.3684L86.2474 57.8113ZM77.2766 19.0087L77.0588 17.4517L75.3579 17.6896L75.7448 19.3629L77.2766 19.0087ZM85.5288 17.8549L87.0681 17.5351L86.7687 16.0941L85.3111 16.2979L85.5288 17.8549ZM91.0307 44.337L89.4914 44.6568L89.7908 46.0978L91.2484 45.894L91.0307 44.337ZM91.6016 44.2572L91.8193 45.8142L93.1816 45.6237L93.1737 44.2482L91.6016 44.2572ZM91.4454 17.0276L91.2277 15.4706L89.8654 15.6611L89.8733 17.0366L91.4454 17.0276ZM99.6457 15.881L101.159 15.4556L100.788 14.1339L99.428 14.324L99.6457 15.881ZM107.016 42.1019L105.503 42.5273L105.874 43.849L107.234 43.6589L107.016 42.1019ZM107.587 42.0221L107.805 43.5791L109.265 43.3749L109.155 41.9044L107.587 42.0221ZM105.562 15.0537L105.345 13.4967L103.884 13.7009L103.995 15.1714L105.562 15.0537ZM113.348 13.9652L114.917 13.8815L114.826 12.171L113.13 12.4082L113.348 13.9652ZM115.25 52.1687L103.728 53.7797L104.163 56.8938L115.685 55.2827L115.25 52.1687ZM105.469 54.947L99.4026 31.2424L96.3564 32.0219L102.422 55.7265L105.469 54.947ZM97.6618 30.0752L97.0909 30.155L97.5263 33.269L98.0972 33.1892L97.6618 30.0752ZM95.7367 31.7416L96.1974 56.2299L99.3412 56.1707L98.8804 31.6824L95.7367 31.7416ZM97.5516 54.6433L86.0297 56.2543L86.4651 59.3684L97.987 57.7573L97.5516 54.6433ZM87.7791 57.4572L78.8083 18.6546L75.7448 19.3629L84.7156 58.1655L87.7791 57.4572ZM77.4943 20.5658L85.7465 19.4119L85.3111 16.2979L77.0588 17.4517L77.4943 20.5658ZM83.9895 18.1747L89.4914 44.6568L92.57 44.0172L87.0681 17.5351L83.9895 18.1747ZM91.2484 45.894L91.8193 45.8142L91.3839 42.7002L90.813 42.78L91.2484 45.894ZM93.1737 44.2482L93.0176 17.0186L89.8733 17.0366L90.0295 44.2662L93.1737 44.2482ZM91.6631 18.5846L99.8635 17.438L99.428 14.324L91.2277 15.4706L91.6631 18.5846ZM98.1322 16.3064L105.503 42.5273L108.53 41.6765L101.159 15.4556L98.1322 16.3064ZM107.234 43.6589L107.805 43.5791L107.369 40.465L106.798 40.5449L107.234 43.6589ZM109.155 41.9044L107.13 14.936L103.995 15.1714L106.019 42.1398L109.155 41.9044ZM105.78 16.6108L113.565 15.5222L113.13 12.4082L105.345 13.4967L105.78 16.6108ZM111.778 14.0489L113.898 53.8094L117.037 53.642L114.917 13.8815L111.778 14.0489Z" fill="#141414" mask="url(#path-5-outside-3_2040_363)"/>
<mask id="path-7-outside-4_2040_363" maskUnits="userSpaceOnUse" x="148.739" y="8.6923" width="24.3418" height="44.1855" fill="black">
<rect fill="white" x="148.739" y="8.6923" width="24.3418" height="44.1855"/>
<path d="M165.21 50.7522L156.983 50.8162L156.739 19.531L150.503 19.5796L150.438 11.195L171.137 11.0338L171.203 19.4185L164.967 19.467L165.21 50.7522Z"/>
</mask>
<path d="M165.21 50.7522L156.983 50.8162L156.739 19.531L150.503 19.5796L150.438 11.195L171.137 11.0338L171.203 19.4185L164.967 19.467L165.21 50.7522Z" fill="url(#paint3_linear_2040_363)"/>
<path d="M165.21 50.7522L165.222 52.3243L166.795 52.3121L166.782 50.7399L165.21 50.7522ZM156.983 50.8162L155.411 50.8285L155.423 52.4006L156.995 52.3883L156.983 50.8162ZM156.739 19.531L158.311 19.5188L158.299 17.9467L156.727 17.9589L156.739 19.531ZM150.503 19.5796L148.931 19.5918L148.943 21.164L150.515 21.1517L150.503 19.5796ZM150.438 11.195L150.426 9.62284L148.854 9.63508L148.866 11.2072L150.438 11.195ZM171.137 11.0338L172.71 11.0216L172.697 9.44946L171.125 9.4617L171.137 11.0338ZM171.203 19.4185L171.215 20.9906L172.787 20.9783L172.775 19.4062L171.203 19.4185ZM164.967 19.467L164.954 17.8949L163.382 17.9071L163.395 19.4792L164.967 19.467ZM165.198 49.1801L156.971 49.2441L156.995 52.3883L165.222 52.3243L165.198 49.1801ZM158.555 50.804L158.311 19.5188L155.167 19.5433L155.411 50.8285L158.555 50.804ZM156.727 17.9589L150.491 18.0075L150.515 21.1517L156.752 21.1032L156.727 17.9589ZM152.075 19.5674L152.01 11.1827L148.866 11.2072L148.931 19.5918L152.075 19.5674ZM150.45 12.7671L171.15 12.6059L171.125 9.4617L150.426 9.62284L150.45 12.7671ZM169.565 11.0461L169.631 19.4307L172.775 19.4062L172.71 11.0216L169.565 11.0461ZM171.191 17.8463L164.954 17.8949L164.979 21.0391L171.215 20.9906L171.191 17.8463ZM163.395 19.4792L163.638 50.7644L166.782 50.7399L166.539 19.4548L163.395 19.4792Z" fill="#141414" mask="url(#path-7-outside-4_2040_363)"/>
<mask id="path-9-outside-5_2040_363" maskUnits="userSpaceOnUse" x="180.277" y="8.72487" width="28.8797" height="46.6" fill="black">
<rect fill="white" x="180.277" y="8.72487" width="28.8797" height="46.6"/>
<path d="M202.242 49.485C200.721 51.8539 198.317 52.4845 193.297 52.1564C188.224 51.8248 185.922 50.8866 184.723 48.3399C183.521 45.8455 183.103 43.4024 183.916 30.9564C184.73 18.5105 185.455 16.2471 186.976 13.8782C188.492 11.5615 190.9 10.8787 195.973 11.2102C200.993 11.5383 203.292 12.5289 204.494 15.0232C205.693 17.5699 206.118 19.9085 205.304 32.3544C204.491 44.8004 203.758 47.1683 202.242 49.485ZM195.975 42.5107C196.357 41.4853 196.607 40.0837 197.16 31.612C197.731 22.8789 197.666 21.4568 197.418 20.4427C197.201 19.7457 196.75 19.4012 195.443 19.3158C194.136 19.2303 193.592 19.5099 193.339 20.1761C192.908 21.1457 192.659 22.5474 192.088 31.2805C191.534 39.7521 191.599 41.1743 191.896 42.2441C192.061 42.9376 192.567 43.2333 193.874 43.3187C195.182 43.4042 195.669 43.1734 195.975 42.5107Z"/>
</mask>
<path d="M202.242 49.485C200.721 51.8539 198.317 52.4845 193.297 52.1564C188.224 51.8248 185.922 50.8866 184.723 48.3399C183.521 45.8455 183.103 43.4024 183.916 30.9564C184.73 18.5105 185.455 16.2471 186.976 13.8782C188.492 11.5615 190.9 10.8787 195.973 11.2102C200.993 11.5383 203.292 12.5289 204.494 15.0232C205.693 17.5699 206.118 19.9085 205.304 32.3544C204.491 44.8004 203.758 47.1683 202.242 49.485ZM195.975 42.5107C196.357 41.4853 196.607 40.0837 197.16 31.612C197.731 22.8789 197.666 21.4568 197.418 20.4427C197.201 19.7457 196.75 19.4012 195.443 19.3158C194.136 19.2303 193.592 19.5099 193.339 20.1761C192.908 21.1457 192.659 22.5474 192.088 31.2805C191.534 39.7521 191.599 41.1743 191.896 42.2441C192.061 42.9376 192.567 43.2333 193.874 43.3187C195.182 43.4042 195.669 43.1734 195.975 42.5107Z" fill="url(#paint4_linear_2040_363)"/>
<path d="M202.242 49.485L200.926 48.6238L200.922 48.6298L200.918 48.6358L202.242 49.485ZM184.723 48.3399L186.146 47.6703L186.142 47.6637L186.139 47.6572L184.723 48.3399ZM186.976 13.8782L185.66 13.017L185.656 13.023L185.652 13.0291L186.976 13.8782ZM204.494 15.0232L205.917 14.3536L205.913 14.3471L205.91 14.3406L204.494 15.0232ZM195.975 42.5107L197.403 43.1696L197.428 43.1155L197.448 43.0597L195.975 42.5107ZM197.418 20.4427L198.945 20.068L198.933 20.0212L198.919 19.9752L197.418 20.4427ZM193.339 20.1761L194.775 20.8146L194.793 20.7755L194.808 20.7354L193.339 20.1761ZM191.896 42.2441L193.426 41.8808L193.419 41.8515L193.411 41.8226L191.896 42.2441ZM200.918 48.6358C200.363 49.5014 199.695 50.0162 198.642 50.3225C197.497 50.6559 195.866 50.7488 193.399 50.5876L193.194 53.7252C195.747 53.8921 197.829 53.8338 199.521 53.3417C201.305 52.8225 202.6 51.8375 203.565 50.3341L200.918 48.6358ZM193.399 50.5876C190.905 50.4245 189.287 50.1191 188.187 49.6383C187.177 49.1968 186.583 48.5999 186.146 47.6703L183.301 49.0096C184.062 50.6266 185.218 51.7722 186.927 52.5193C188.547 53.2272 190.616 53.5567 193.194 53.7252L193.399 50.5876ZM186.139 47.6572C185.147 45.5978 184.666 43.585 185.485 31.059L182.347 30.8539C181.539 43.2198 181.895 46.0933 183.307 49.0226L186.139 47.6572ZM185.485 31.059C186.303 18.5451 187.032 16.7005 188.299 14.7273L185.652 13.0291C183.878 15.7938 183.156 18.4758 182.347 30.8539L185.485 31.059ZM188.291 14.7394C188.845 13.8936 189.517 13.3731 190.584 13.0595C191.738 12.7204 193.384 12.6165 195.87 12.779L196.075 9.64139C193.489 9.47233 191.395 9.54414 189.698 10.0427C187.914 10.5669 186.623 11.5461 185.66 13.017L188.291 14.7394ZM195.87 12.779C198.329 12.9397 199.934 13.2559 201.027 13.7413C202.039 14.1905 202.638 14.7944 203.078 15.7059L205.91 14.3406C205.147 12.7578 203.996 11.6192 202.303 10.8675C200.692 10.152 198.637 9.80882 196.075 9.64139L195.87 12.779ZM203.072 15.6929C204.07 17.8141 204.554 19.738 203.736 32.2519L206.873 32.457C207.682 20.0789 207.316 17.3258 205.917 14.3536L203.072 15.6929ZM203.736 32.2519C202.917 44.7779 202.179 46.711 200.926 48.6238L203.557 50.3462C205.338 47.6256 206.065 44.8229 206.873 32.457L203.736 32.2519ZM197.448 43.0597C197.931 41.7637 198.183 40.0737 198.729 31.7146L195.591 31.5095C195.03 40.0937 194.783 41.207 194.502 41.9617L197.448 43.0597ZM198.729 31.7146C199.014 27.3492 199.144 24.7746 199.168 23.1568C199.193 21.5323 199.116 20.7674 198.945 20.068L195.891 20.8173C195.968 21.132 196.048 21.5852 196.024 23.1087C196.001 24.6388 195.877 27.1418 195.591 31.5095L198.729 31.7146ZM198.919 19.9752C198.73 19.3695 198.371 18.7407 197.655 18.3059C197.026 17.9243 196.282 17.7951 195.546 17.747L195.341 20.8846C195.61 20.9022 195.789 20.9305 195.905 20.9584C196.019 20.9859 196.044 21.0064 196.024 20.994C195.994 20.9758 195.951 20.9393 195.918 20.8927C195.891 20.8545 195.897 20.8459 195.917 20.9101L198.919 19.9752ZM195.546 17.747C194.811 17.6989 194.049 17.7296 193.374 18.02C192.593 18.3564 192.123 18.9514 191.869 19.6167L194.808 20.7354C194.818 20.7098 194.808 20.7467 194.758 20.8022C194.703 20.8626 194.645 20.8961 194.617 20.9081C194.6 20.9157 194.634 20.8973 194.76 20.8843C194.885 20.8714 195.072 20.867 195.341 20.8846L195.546 17.747ZM191.902 19.5375C191.591 20.237 191.398 21.0139 191.205 22.6297C191.011 24.2409 190.804 26.8144 190.519 31.1779L193.657 31.383C193.942 27.0135 194.145 24.5196 194.327 23.0042C194.508 21.4935 194.655 21.0848 194.775 20.8146L191.902 19.5375ZM190.519 31.1779C190.242 35.4111 190.117 37.9248 190.101 39.5219C190.084 41.1307 190.175 41.9234 190.382 42.6656L193.411 41.8226C193.32 41.495 193.23 41.0417 193.245 39.5541C193.26 38.0547 193.38 35.6215 193.657 31.383L190.519 31.1779ZM190.367 42.6075C190.537 43.3245 190.947 43.9721 191.697 44.386C192.323 44.7312 193.066 44.8414 193.772 44.8875L193.977 41.7499C193.697 41.7316 193.502 41.7044 193.369 41.6756C193.235 41.6466 193.199 41.6236 193.216 41.6328C193.245 41.6486 193.309 41.6938 193.367 41.7747C193.422 41.8499 193.431 41.9017 193.426 41.8808L190.367 42.6075ZM193.772 44.8875C194.478 44.9337 195.222 44.9209 195.886 44.6544C196.67 44.3395 197.126 43.7684 197.403 43.1696L194.548 41.8518C194.522 41.9067 194.524 41.8848 194.569 41.8387C194.621 41.7845 194.679 41.7504 194.715 41.7362C194.737 41.7272 194.706 41.7443 194.578 41.7552C194.448 41.7662 194.257 41.7682 193.977 41.7499L193.772 44.8875Z" fill="#141414" mask="url(#path-9-outside-5_2040_363)"/>
<mask id="path-11-outside-6_2040_363" maskUnits="userSpaceOnUse" x="229.76" y="13.5475" width="33.5508" height="48.8898" fill="black">
<rect fill="white" x="229.76" y="13.5475" width="33.5508" height="48.8898"/>
<path d="M248.409 44.4577L248.743 42.6008L244.977 41.924L246.387 34.084L257.425 36.068C257.235 37.4183 256.795 40.1613 256.146 43.7718C254.607 52.3339 253.608 54.3374 252.051 56.1873C250.274 58.3705 247.814 58.727 242.863 57.837C237.859 56.9377 235.677 55.7468 234.772 53.0816C233.858 50.4679 233.717 47.9933 235.979 35.408C238.148 23.3385 239.133 21.1195 240.9 18.9879C242.659 16.9079 245.222 16.5699 250.122 17.4506C255.795 18.4705 258.237 20.2936 258.741 24.0049C258.936 25.5842 258.799 27.5297 258.382 29.8507C258.206 30.8307 258.141 31.1918 257.969 31.853L250.439 30.4995C250.527 30.3024 250.574 30.0445 250.611 29.8382C250.917 28.1361 250.892 27.3862 250.83 26.8426C250.795 26.1442 250.129 25.705 248.633 25.4361C247.241 25.1858 246.618 25.3933 246.239 26.0175C245.744 26.9934 245.358 28.2551 243.837 36.714C242.233 45.6372 242.151 46.6873 242.294 47.6714C242.455 48.5523 243.225 49.0101 244.566 49.2511C245.907 49.4922 246.53 49.2847 247.063 48.6883C247.657 48.0496 247.853 47.5524 248.409 44.4577Z"/>
</mask>
<path d="M248.409 44.4577L248.743 42.6008L244.977 41.924L246.387 34.084L257.425 36.068C257.235 37.4183 256.795 40.1613 256.146 43.7718C254.607 52.3339 253.608 54.3374 252.051 56.1873C250.274 58.3705 247.814 58.727 242.863 57.837C237.859 56.9377 235.677 55.7468 234.772 53.0816C233.858 50.4679 233.717 47.9933 235.979 35.408C238.148 23.3385 239.133 21.1195 240.9 18.9879C242.659 16.9079 245.222 16.5699 250.122 17.4506C255.795 18.4705 258.237 20.2936 258.741 24.0049C258.936 25.5842 258.799 27.5297 258.382 29.8507C258.206 30.8307 258.141 31.1918 257.969 31.853L250.439 30.4995C250.527 30.3024 250.574 30.0445 250.611 29.8382C250.917 28.1361 250.892 27.3862 250.83 26.8426C250.795 26.1442 250.129 25.705 248.633 25.4361C247.241 25.1858 246.618 25.3933 246.239 26.0175C245.744 26.9934 245.358 28.2551 243.837 36.714C242.233 45.6372 242.151 46.6873 242.294 47.6714C242.455 48.5523 243.225 49.0101 244.566 49.2511C245.907 49.4922 246.53 49.2847 247.063 48.6883C247.657 48.0496 247.853 47.5524 248.409 44.4577Z" fill="url(#paint5_linear_2040_363)"/>
<path d="M248.743 42.6008L250.29 42.8789L250.568 41.3316L249.021 41.0534L248.743 42.6008ZM244.977 41.924L243.43 41.6459L243.152 43.1933L244.699 43.4714L244.977 41.924ZM246.387 34.084L246.665 32.5367L245.117 32.2585L244.839 33.8059L246.387 34.084ZM257.425 36.068L258.981 36.2865L259.192 34.7883L257.703 34.5206L257.425 36.068ZM252.051 56.1874L250.848 55.1749L250.84 55.1849L250.832 55.195L252.051 56.1874ZM234.772 53.0816L236.261 52.5759L236.258 52.5691L236.256 52.5623L234.772 53.0816ZM240.9 18.9879L239.7 17.9729L239.695 17.9786L239.69 17.9843L240.9 18.9879ZM258.741 24.0049L260.301 23.8119L260.3 23.8026L260.299 23.7932L258.741 24.0049ZM257.969 31.853L257.691 33.4004L259.124 33.658L259.491 32.249L257.969 31.853ZM250.439 30.4995L249.005 29.8543L248.179 31.6906L250.16 32.0468L250.439 30.4995ZM250.83 26.8426L249.259 26.9195L249.262 26.9703L249.268 27.0208L250.83 26.8426ZM246.239 26.0175L244.895 25.2024L244.864 25.2533L244.837 25.3064L246.239 26.0175ZM242.294 47.6714L240.738 47.8968L240.742 47.9256L240.747 47.9543L242.294 47.6714ZM247.063 48.6883L245.912 47.6176L245.901 47.6289L245.891 47.6405L247.063 48.6883ZM249.956 44.7358L250.29 42.8789L247.195 42.3227L246.862 44.1795L249.956 44.7358ZM249.021 41.0534L245.256 40.3767L244.699 43.4714L248.465 44.1482L249.021 41.0534ZM246.525 42.2022L247.934 34.3622L244.839 33.8059L243.43 41.6459L246.525 42.2022ZM246.108 35.6314L257.146 37.6154L257.703 34.5206L246.665 32.5367L246.108 35.6314ZM255.868 35.8496C255.682 37.1719 255.246 39.8929 254.599 43.4937L257.694 44.05C258.344 40.4296 258.788 37.6648 258.981 36.2865L255.868 35.8496ZM254.599 43.4937C253.064 52.0358 252.116 53.6692 250.848 55.1749L253.254 57.1998C255.101 55.0057 256.151 52.6321 257.694 44.05L254.599 43.4937ZM250.832 55.195C250.183 55.9927 249.461 56.4291 248.381 56.6153C247.205 56.8178 245.574 56.727 243.141 56.2896L242.584 59.3844C245.103 59.837 247.178 60.013 248.914 59.714C250.746 59.3986 252.143 58.5652 253.27 57.1797L250.832 55.195ZM243.141 56.2896C240.68 55.8474 239.107 55.3622 238.068 54.7609C237.114 54.2087 236.591 53.5489 236.261 52.5759L233.284 53.5872C233.858 55.2795 234.879 56.5477 236.493 57.4822C238.022 58.3675 240.042 58.9273 242.584 59.3844L243.141 56.2896ZM236.256 52.5623C235.502 50.4064 235.249 48.3566 237.526 35.6861L234.431 35.1299C232.185 47.6299 232.213 50.5294 233.288 53.6008L236.256 52.5623ZM237.526 35.6861C239.709 23.5441 240.65 21.753 242.11 19.9914L239.69 17.9843C237.616 20.4859 236.588 23.1329 234.431 35.1299L237.526 35.6861ZM242.101 20.0028C242.722 19.2679 243.456 18.8405 244.58 18.6616C245.786 18.4697 247.441 18.5662 249.844 18.998L250.4 15.9033C247.903 15.4544 245.826 15.2795 244.086 15.5563C242.264 15.8462 240.837 16.6278 239.7 17.9729L242.101 20.0028ZM249.844 18.998C252.6 19.4935 254.335 20.1496 255.421 20.9717C256.422 21.73 256.978 22.7114 257.183 24.2166L260.299 23.7932C259.999 21.5871 259.083 19.8013 257.319 18.4652C255.639 17.193 253.317 16.4276 250.4 15.9033L249.844 18.998ZM257.181 24.1979C257.348 25.5535 257.239 27.3228 256.835 29.5726L259.93 30.1289C260.36 27.7366 260.524 25.6149 260.301 23.8119L257.181 24.1979ZM256.835 29.5726C256.658 30.5548 256.603 30.8612 256.448 31.457L259.491 32.249C259.68 31.5224 259.754 31.1066 259.93 30.1289L256.835 29.5726ZM258.247 30.3057L250.717 28.9521L250.16 32.0468L257.691 33.4004L258.247 30.3057ZM251.872 31.1446C252.056 30.7365 252.13 30.2721 252.158 30.1163L249.063 29.5601C249.044 29.6691 249.03 29.743 249.014 29.8088C249.007 29.8391 249.002 29.8583 248.998 29.8688C248.995 29.88 248.996 29.8735 249.005 29.8543L251.872 31.1446ZM252.158 30.1163C252.483 28.3073 252.475 27.3986 252.392 26.6644L249.268 27.0208C249.308 27.3738 249.35 27.9649 249.063 29.5601L252.158 30.1163ZM252.4 26.7657C252.354 25.8204 251.834 25.1098 251.131 24.6569C250.511 24.2567 249.725 24.035 248.911 23.8888L248.355 26.9835C248.679 27.0418 248.927 27.1038 249.111 27.1646C249.299 27.2263 249.393 27.2771 249.428 27.2997C249.459 27.3196 249.41 27.2955 249.353 27.2054C249.29 27.1061 249.263 26.9989 249.259 26.9195L252.4 26.7657ZM248.911 23.8888C248.14 23.7501 247.367 23.6926 246.658 23.8778C245.847 24.09 245.274 24.5771 244.895 25.2024L247.584 26.8325C247.598 26.8091 247.586 26.8353 247.54 26.871C247.491 26.909 247.451 26.9205 247.454 26.9199C247.465 26.9169 247.533 26.9017 247.689 26.9053C247.844 26.9089 248.06 26.9304 248.355 26.9835L248.911 23.8888ZM244.837 25.3064C244.212 26.5397 243.791 28.0865 242.29 36.4359L245.385 36.9922C246.925 28.4237 247.277 27.4471 247.641 26.7285L244.837 25.3064ZM242.29 36.4359C241.489 40.8913 241.061 43.4185 240.853 44.9589C240.642 46.513 240.636 47.1907 240.738 47.8968L243.85 47.4459C243.809 47.168 243.773 46.8286 243.969 45.3808C244.166 43.9194 244.582 41.4599 245.385 36.9922L242.29 36.4359ZM240.747 47.9543C240.911 48.8467 241.409 49.5364 242.112 50.0073C242.754 50.4376 243.528 50.662 244.287 50.7985L244.844 47.7037C244.262 47.5991 243.98 47.4742 243.862 47.395C243.816 47.3637 243.816 47.3537 243.829 47.373C243.844 47.3948 243.844 47.408 243.84 47.3885L240.747 47.9543ZM244.287 50.7985C245.052 50.9359 245.794 50.9828 246.494 50.8101C247.254 50.6224 247.805 50.2166 248.235 49.7362L245.891 47.6405C245.829 47.7098 245.795 47.7338 245.784 47.7406C245.778 47.7445 245.769 47.7503 245.74 47.7574C245.66 47.7772 245.42 47.8074 244.844 47.7037L244.287 50.7985ZM248.214 49.759C248.656 49.2838 248.977 48.8037 249.245 47.9815C249.477 47.2704 249.681 46.2648 249.956 44.7358L246.862 44.1795C246.58 45.7453 246.409 46.5357 246.255 47.0065C246.138 47.3663 246.064 47.4542 245.912 47.6176L248.214 49.759Z" fill="#141414" mask="url(#path-11-outside-6_2040_363)"/>
<mask id="path-13-outside-7_2040_363" maskUnits="userSpaceOnUse" x="263.708" y="20.4547" width="31.1993" height="47.8191" fill="black">
<rect fill="white" x="263.708" y="20.4547" width="31.1993" height="47.8191"/>
<path d="M282.891 65.9128L265.927 61.5976L275.708 23.1511L292.722 27.4792L290.655 35.6053L281.614 33.3056L279.896 40.0604L288.784 42.3214L286.807 50.0919L277.919 47.831L276.072 55.0937L285.061 57.3804L282.891 65.9128Z"/>
</mask>
<path d="M282.891 65.9128L265.927 61.5976L275.708 23.1511L292.722 27.4792L290.655 35.6053L281.614 33.3056L279.896 40.0604L288.784 42.3214L286.807 50.0919L277.919 47.831L276.072 55.0937L285.061 57.3804L282.891 65.9128Z" fill="url(#paint6_linear_2040_363)"/>
<path d="M282.891 65.9128L282.503 67.4365L284.027 67.8241L284.414 66.3004L282.891 65.9128ZM265.927 61.5976L264.404 61.2101L264.016 62.7337L265.54 63.1213L265.927 61.5976ZM275.708 23.1511L276.095 21.6275L274.572 21.2399L274.184 22.7635L275.708 23.1511ZM292.722 27.4792L294.245 27.8668L294.633 26.3432L293.109 25.9556L292.722 27.4792ZM290.655 35.6053L290.267 37.1289L291.791 37.5165L292.178 35.9929L290.655 35.6053ZM281.614 33.3056L282.002 31.782L280.478 31.3944L280.091 32.918L281.614 33.3056ZM279.896 40.0604L278.372 39.6728L277.985 41.1964L279.508 41.584L279.896 40.0604ZM288.784 42.3214L290.307 42.7089L290.695 41.1853L289.171 40.7977L288.784 42.3214ZM286.807 50.0919L286.42 51.6156L287.943 52.0032L288.331 50.4795L286.807 50.0919ZM277.919 47.831L278.307 46.3073L276.783 45.9197L276.396 47.4434L277.919 47.831ZM276.072 55.0937L274.548 54.7061L274.16 56.2297L275.684 56.6173L276.072 55.0937ZM285.061 57.3804L286.585 57.768L286.972 56.2444L285.449 55.8568L285.061 57.3804ZM283.278 64.3892L266.315 60.074L265.54 63.1213L282.503 67.4365L283.278 64.3892ZM267.451 61.9852L277.231 23.5387L274.184 22.7635L264.404 61.2101L267.451 61.9852ZM275.32 24.6748L292.334 29.0029L293.109 25.9556L276.095 21.6275L275.32 24.6748ZM291.198 27.0916L289.131 35.2177L292.178 35.9929L294.245 27.8668L291.198 27.0916ZM291.042 34.0817L282.002 31.782L281.227 34.8292L290.267 37.1289L291.042 34.0817ZM280.091 32.918L278.372 39.6728L281.42 40.448L283.138 33.6932L280.091 32.918ZM279.508 41.584L288.396 43.845L289.171 40.7977L280.284 38.5368L279.508 41.584ZM287.26 41.9338L285.283 49.7043L288.331 50.4795L290.307 42.7089L287.26 41.9338ZM287.195 48.5683L278.307 46.3073L277.532 49.3546L286.42 51.6156L287.195 48.5683ZM276.396 47.4434L274.548 54.7061L277.595 55.4812L279.443 48.2186L276.396 47.4434ZM275.684 56.6173L284.674 58.9041L285.449 55.8568L276.459 53.57L275.684 56.6173ZM283.538 56.9929L281.367 65.5252L284.414 66.3004L286.585 57.768L283.538 56.9929Z" fill="#141414" mask="url(#path-13-outside-7_2040_363)"/>
<mask id="path-15-outside-8_2040_363" maskUnits="userSpaceOnUse" x="291.49" y="28.3752" width="36.5528" height="49.2977" fill="black">
<rect fill="white" x="291.49" y="28.3752" width="36.5528" height="49.2977"/>
<path d="M307.451 73.3175L299.636 70.7452L309.417 41.0273L303.493 39.0777L306.115 31.1131L325.777 37.5847L323.156 45.5493L317.232 43.5996L307.451 73.3175Z"/>
</mask>
<path d="M307.451 73.3175L299.636 70.7452L309.417 41.0273L303.493 39.0777L306.115 31.1131L325.777 37.5847L323.156 45.5493L317.232 43.5996L307.451 73.3175Z" fill="url(#paint7_linear_2040_363)"/>
<path d="M307.451 73.3175L306.96 74.8108L308.453 75.3023L308.945 73.809L307.451 73.3175ZM299.636 70.7452L298.143 70.2537L297.651 71.7471L299.144 72.2386L299.636 70.7452ZM309.417 41.0273L310.91 41.5189L311.402 40.0255L309.908 39.534L309.417 41.0273ZM303.493 39.0777L302 38.5862L301.508 40.0795L303.002 40.571L303.493 39.0777ZM306.115 31.1131L306.606 29.6197L305.113 29.1282L304.621 30.6216L306.115 31.1131ZM325.777 37.5847L327.271 38.0762L327.762 36.5828L326.269 36.0913L325.777 37.5847ZM323.156 45.5493L322.664 47.0426L324.158 47.5341L324.649 46.0408L323.156 45.5493ZM317.232 43.5996L317.724 42.1062L316.23 41.6147L315.739 43.1081L317.232 43.5996ZM307.943 71.8241L300.127 69.2519L299.144 72.2386L306.96 74.8108L307.943 71.8241ZM301.129 71.2367L310.91 41.5189L307.924 40.5358L298.143 70.2537L301.129 71.2367ZM309.908 39.534L303.985 37.5843L303.002 40.571L308.925 42.5207L309.908 39.534ZM304.987 39.5692L307.608 31.6046L304.621 30.6216L302 38.5862L304.987 39.5692ZM305.623 32.6065L325.286 39.078L326.269 36.0913L306.606 29.6197L305.623 32.6065ZM324.284 37.0932L321.663 45.0577L324.649 46.0408L327.271 38.0762L324.284 37.0932ZM323.647 44.0559L317.724 42.1062L316.741 45.093L322.664 47.0426L323.647 44.0559ZM315.739 43.1081L305.958 72.8259L308.945 73.809L318.726 44.0911L315.739 43.1081Z" fill="#141414" mask="url(#path-15-outside-8_2040_363)"/>
<defs>
<linearGradient id="paint0_linear_2040_363" x1="-4.12256" y1="31.1177" x2="39.2149" y2="19.3563" gradientUnits="userSpaceOnUse">
<stop stop-color="#E0B5FC"/>
<stop offset="0.49" stop-color="#FFFF7D"/>
<stop offset="0.89" stop-color="#FF4C9D"/>
</linearGradient>
<linearGradient id="paint1_linear_2040_363" x1="33.8017" y1="18.8404" x2="74.5068" y2="10.9755" gradientUnits="userSpaceOnUse">
<stop stop-color="#E0B5FC"/>
<stop offset="0.49" stop-color="#FFFF7D"/>
<stop offset="0.89" stop-color="#FF4C9D"/>
</linearGradient>
<linearGradient id="paint2_linear_2040_363" x1="68.8473" y1="9.75788" x2="134.238" y2="5.26587" gradientUnits="userSpaceOnUse">
<stop stop-color="#E0B5FC"/>
<stop offset="0.49" stop-color="#FFFF7D"/>
<stop offset="0.89" stop-color="#FF4C9D"/>
</linearGradient>
<linearGradient id="paint3_linear_2040_363" x1="145.843" y1="0.90143" x2="185.553" y2="2.28512" gradientUnits="userSpaceOnUse">
<stop stop-color="#E0B5FC"/>
<stop offset="0.49" stop-color="#FFFF7D"/>
<stop offset="0.89" stop-color="#FF4C9D"/>
</linearGradient>
<linearGradient id="paint4_linear_2040_363" x1="180.74" y1="0.546244" x2="221.949" y2="5.08652" gradientUnits="userSpaceOnUse">
<stop stop-color="#E0B5FC"/>
<stop offset="0.49" stop-color="#FFFF7D"/>
<stop offset="0.89" stop-color="#FF4C9D"/>
</linearGradient>
<linearGradient id="paint5_linear_2040_363" x1="236.183" y1="5.14296" x2="276.621" y2="14.2838" gradientUnits="userSpaceOnUse">
<stop stop-color="#E0B5FC"/>
<stop offset="0.49" stop-color="#FFFF7D"/>
<stop offset="0.89" stop-color="#FF4C9D"/>
</linearGradient>
<linearGradient id="paint6_linear_2040_363" x1="273.135" y1="11.8388" x2="307.925" y2="22.1453" gradientUnits="userSpaceOnUse">
<stop stop-color="#E0B5FC"/>
<stop offset="0.49" stop-color="#FFFF7D"/>
<stop offset="0.89" stop-color="#FF4C9D"/>
</linearGradient>
<linearGradient id="paint7_linear_2040_363" x1="305.056" y1="19.8904" x2="342.234" y2="33.9092" gradientUnits="userSpaceOnUse">
<stop stop-color="#E0B5FC"/>
<stop offset="0.49" stop-color="#FFFF7D"/>
<stop offset="0.89" stop-color="#FF4C9D"/>
</linearGradient>
</defs>
</svg>
