<svg width="741" height="206" viewBox="0 0 741 206" fill="none" xmlns="http://www.w3.org/2000/svg">
<mask id="path-1-outside-1_2011_73" maskUnits="userSpaceOnUse" x="4.98429" y="15.0628" width="90.6602" height="129.198" fill="black">
<rect fill="white" x="4.98429" y="15.0628" width="90.6602" height="129.198"/>
<path d="M39.0124 132.633L31.2781 130.35L35.8064 115.005C21.6742 110.434 16.4717 104.094 19.877 92.5543C20.8914 89.1169 21.8836 86.2067 23.2078 83.528L40.7635 88.7084L40.1476 90.7954C38.7348 95.5833 38.7831 98.1332 43.9393 99.6547C49.341 101.249 50.5787 98.411 51.6293 94.8507C52.6437 91.4133 51.9876 90.0186 48.8983 87.372C43.2973 82.3829 36.3157 78.4543 31.9646 73.3001C27.6999 68.3049 28.1085 63.7545 31.224 53.1966C35.3176 39.3239 41.0997 35.5584 57.9771 39.8714L61.8533 26.7354L69.5876 29.0177L65.7114 42.1537C79.4894 47.0201 83.4502 52.5929 79.8275 64.8696C79.103 67.3249 78.2919 69.6213 77.503 71.3903L59.8246 66.1737L60.5853 63.5956C61.8533 59.2987 61.2918 57.1312 56.8722 55.8271C52.0843 54.4142 50.5366 56.4932 49.5585 59.8079C48.5441 63.2454 49.2364 64.5173 52.694 67.2725C59.3496 72.306 63.9704 74.7372 68.3659 78.8368C73.2886 82.9585 74.7578 87.9296 71.3887 99.3469C66.4619 116.043 59.7037 120.855 43.577 117.164L39.0124 132.633Z"/>
</mask>
<path d="M39.0124 132.633L31.2781 130.35L35.8064 115.005C21.6742 110.434 16.4717 104.094 19.877 92.5543C20.8914 89.1169 21.8836 86.2067 23.2078 83.528L40.7635 88.7084L40.1476 90.7954C38.7348 95.5833 38.7831 98.1332 43.9393 99.6547C49.341 101.249 50.5787 98.411 51.6293 94.8507C52.6437 91.4133 51.9876 90.0186 48.8983 87.372C43.2973 82.3829 36.3157 78.4543 31.9646 73.3001C27.6999 68.3049 28.1085 63.7545 31.224 53.1966C35.3176 39.3239 41.0997 35.5584 57.9771 39.8714L61.8533 26.7354L69.5876 29.0177L65.7114 42.1537C79.4894 47.0201 83.4502 52.5929 79.8275 64.8696C79.103 67.3249 78.2919 69.6213 77.503 71.3903L59.8246 66.1737L60.5853 63.5956C61.8533 59.2987 61.2918 57.1312 56.8722 55.8271C52.0843 54.4142 50.5366 56.4932 49.5585 59.8079C48.5441 63.2454 49.2364 64.5173 52.694 67.2725C59.3496 72.306 63.9704 74.7372 68.3659 78.8368C73.2886 82.9585 74.7578 87.9296 71.3887 99.3469C66.4619 116.043 59.7037 120.855 43.577 117.164L39.0124 132.633Z" fill="url(#paint0_linear_2011_73)"/>
<path d="M39.0124 132.633L37.8803 136.469L41.7168 137.601L42.8489 133.765L39.0124 132.633ZM31.2781 130.35L27.4417 129.218L26.3096 133.055L30.146 134.187L31.2781 130.35ZM35.8064 115.005L39.6429 116.137L40.7461 112.398L37.0373 111.199L35.8064 115.005ZM23.2078 83.528L24.3399 79.6915L21.1131 78.7393L19.6221 81.7553L23.2078 83.528ZM40.7635 88.7084L44.5999 89.8404L45.732 86.004L41.8955 84.8719L40.7635 88.7084ZM48.8983 87.372L46.2377 90.3589L46.2665 90.3846L46.2959 90.4098L48.8983 87.372ZM31.9646 73.3001L35.021 70.7198L35.0139 70.7114L35.0067 70.7029L31.9646 73.3001ZM57.9771 39.8714L56.9867 43.7469L60.7223 44.7015L61.8136 41.0035L57.9771 39.8714ZM61.8533 26.7354L62.9854 22.8989L59.149 21.7668L58.0169 25.6033L61.8533 26.7354ZM69.5876 29.0177L73.4241 30.1497L74.5562 26.3133L70.7197 25.1812L69.5876 29.0177ZM65.7114 42.1537L61.8749 41.0216L60.8009 44.6615L64.3792 45.9253L65.7114 42.1537ZM77.503 71.3903L76.3709 75.2268L79.7298 76.2179L81.1561 73.0195L77.503 71.3903ZM59.8246 66.1737L55.9881 65.0416L54.856 68.8781L58.6925 70.0101L59.8246 66.1737ZM52.694 67.2725L50.2012 70.4008L50.2408 70.4323L50.2812 70.4629L52.694 67.2725ZM68.3659 78.8368L65.6376 81.7619L65.7159 81.835L65.798 81.9037L68.3659 78.8368ZM43.577 117.164L44.4694 113.265L40.8045 112.426L39.7405 116.032L43.577 117.164ZM40.1445 128.796L32.4102 126.514L30.146 134.187L37.8803 136.469L40.1445 128.796ZM35.1146 131.482L39.6429 116.137L31.97 113.872L27.4417 129.218L35.1146 131.482ZM37.0373 111.199C30.1852 108.983 26.3643 106.58 24.4897 104.026C22.8255 101.759 22.2322 98.7063 23.7135 93.6864L16.0406 91.4222C14.1165 97.9424 14.4218 103.83 18.0406 108.76C21.449 113.403 27.2954 116.456 34.5755 118.81L37.0373 111.199ZM23.7135 93.6864C24.7073 90.3186 25.6228 87.6689 26.7936 85.3006L19.6221 81.7553C18.1443 84.7444 17.0755 87.9151 16.0406 91.4222L23.7135 93.6864ZM22.0758 87.3644L39.6314 92.5448L41.8955 84.8719L24.3399 79.6915L22.0758 87.3644ZM36.927 87.5763L36.3112 89.6633L43.9841 91.9275L44.5999 89.8404L36.927 87.5763ZM36.3112 89.6633C35.6412 91.9338 34.8536 94.9465 35.789 97.7259C36.8961 101.015 39.788 102.6 42.8072 103.491L45.0713 95.8183C44.0331 95.5119 43.5539 95.2369 43.3647 95.0957C43.2454 95.0067 43.3275 95.0446 43.3711 95.174C43.3882 95.2249 43.3176 95.0626 43.3898 94.4674C43.4629 93.8653 43.6495 93.0613 43.9841 91.9275L36.3112 89.6633ZM42.8072 103.491C46.1614 104.481 49.4481 104.423 52.017 102.224C54.1618 100.389 54.9843 97.6145 55.4658 95.9828L47.7929 93.7187C47.5393 94.5778 47.3347 95.1772 47.1232 95.6279C46.9163 96.0687 46.7932 96.1653 46.8149 96.1467C46.8932 96.0797 46.9626 96.0872 46.8373 96.1009C46.6369 96.1228 46.1024 96.1225 45.0713 95.8183L42.8072 103.491ZM55.4658 95.9828C56.0608 93.9662 56.4305 91.7221 55.5397 89.3883C54.7232 87.2494 53.0632 85.673 51.5006 84.3343L46.2959 90.4098C47.8226 91.7176 48.0353 92.1619 48.0656 92.2413C48.0664 92.2431 48.0664 92.2419 48.0674 92.2494C48.0689 92.2597 48.0749 92.3059 48.07 92.4039C48.059 92.622 47.9996 93.0179 47.7929 93.7187L55.4658 95.9828ZM51.5589 84.3852C48.5957 81.7457 45.2295 79.3557 42.3682 77.2021C39.3907 74.961 36.8801 72.922 35.021 70.7198L28.9081 75.8804C31.4002 78.8324 34.5559 81.3348 37.5573 83.5938C40.6748 85.9403 43.5999 88.0092 46.2377 90.3589L51.5589 84.3852ZM35.0067 70.7029C33.4158 68.8395 32.854 67.3336 32.8264 65.2805C32.794 62.8794 33.4927 59.6414 35.0604 54.3286L27.3875 52.0645C25.8398 57.3097 24.7764 61.6258 24.8271 65.3882C24.8824 69.4986 26.2487 72.7655 28.9224 75.8973L35.0067 70.7029ZM35.0604 54.3286C37.0543 47.5719 39.1324 44.5869 41.6668 43.2555C44.316 41.8639 48.6745 41.6227 56.9867 43.7469L58.9675 35.996C50.4023 33.8071 43.4311 33.2922 37.9465 36.1732C32.3471 39.1146 29.4873 44.9486 27.3875 52.0645L35.0604 54.3286ZM61.8136 41.0035L65.6898 27.8675L58.0169 25.6033L54.1406 38.7393L61.8136 41.0035ZM60.7213 30.5718L68.4556 32.8541L70.7197 25.1812L62.9854 22.8989L60.7213 30.5718ZM65.7512 27.8856L61.8749 41.0216L69.5479 43.2858L73.4241 30.1497L65.7512 27.8856ZM64.3792 45.9253C71.1408 48.3135 74.4351 50.5565 75.9241 52.8867C77.2609 54.9786 77.6738 58.0348 75.991 63.7375L83.6639 66.0017C85.6038 59.4277 85.8477 53.5592 82.6653 48.579C79.6351 43.8369 74.06 40.8603 67.0436 38.382L64.3792 45.9253ZM75.991 63.7375C75.2976 66.0876 74.5438 68.205 73.8498 69.7611L81.1561 73.0195C82.04 71.0376 82.9083 68.5623 83.6639 66.0017L75.991 63.7375ZM78.635 67.5538L60.9566 62.3372L58.6925 70.0101L76.3709 75.2268L78.635 67.5538ZM63.661 67.3058L64.4218 64.7277L56.7489 62.4635L55.9881 65.0416L63.661 67.3058ZM64.4218 64.7277C65.0789 62.5008 65.6745 59.6547 64.536 57.0083C63.2896 54.1112 60.5957 52.7553 58.0042 51.9906L55.7401 59.6635C57.5682 60.203 57.3649 60.5829 57.1872 60.1699C57.1336 60.0454 57.1979 60.0836 57.1709 60.4795C57.1424 60.8961 57.0262 61.5235 56.7489 62.4635L64.4218 64.7277ZM58.0042 51.9906C55.0748 51.1262 52.0597 51.0121 49.5287 52.7429C47.1991 54.336 46.2499 56.8869 45.722 58.6758L53.3949 60.94C53.5984 60.2504 53.7787 59.8148 53.9314 59.5417C54.0736 59.2877 54.1282 59.2893 54.0446 59.3464C53.7289 59.5623 53.8817 59.1151 55.7401 59.6635L58.0042 51.9906ZM45.722 58.6758C45.1298 60.6827 44.7329 62.9988 45.7855 65.4013C46.7093 67.5097 48.5224 69.063 50.2012 70.4008L55.1868 64.1443C54.3655 63.4898 53.8417 63.027 53.4953 62.6644C53.1599 62.3132 53.1047 62.1717 53.113 62.1908C53.2087 62.4092 52.9728 62.3706 53.3949 60.94L45.722 58.6758ZM50.2812 70.4629C53.7006 73.0489 56.6337 74.9922 59.1065 76.6977C61.6079 78.4228 63.6631 79.9203 65.6376 81.7619L71.0941 75.9116C68.6733 73.6537 66.2202 71.8857 63.6485 70.112C61.0481 68.3186 58.343 66.5296 55.1068 64.0822L50.2812 70.4629ZM65.798 81.9037C67.7289 83.5205 68.6882 85.0126 69.0475 87.0504C69.4488 89.327 69.1755 92.7137 67.5522 98.2148L75.2252 100.479C76.9709 94.5628 77.6476 89.7553 76.926 85.6616C76.1622 81.3291 73.9255 78.2749 70.9338 75.7699L65.798 81.9037ZM67.5522 98.2148C65.1405 106.388 62.554 110.55 59.492 112.554C56.5534 114.478 52.1916 115.032 44.4694 113.265L42.6845 121.063C51.089 122.987 58.1696 122.981 63.8735 119.247C69.454 115.595 72.7101 109.002 75.2252 100.479L67.5522 98.2148ZM39.7405 116.032L35.176 131.501L42.8489 133.765L47.4134 118.296L39.7405 116.032Z" fill="#141414" mask="url(#path-1-outside-1_2011_73)"/>
<mask id="path-3-outside-2_2011_73" maskUnits="userSpaceOnUse" x="74.1688" y="38.9855" width="105.571" height="120.808" fill="black">
<rect fill="white" x="74.1688" y="38.9855" width="105.571" height="120.808"/>
<path d="M153.911 154.977L135.909 151.018L148.392 94.2625L147.642 94.0976L120.782 147.691L112.157 145.794L110.138 85.849L109.388 85.684L96.9051 142.439L79.0284 138.508L99.8424 43.8735L127.595 49.9775L127.3 93.0311L128.175 93.2236L146.972 54.2393L174.6 60.3157L153.911 154.977Z"/>
</mask>
<path d="M153.911 154.977L135.909 151.018L148.392 94.2625L147.642 94.0976L120.782 147.691L112.157 145.794L110.138 85.849L109.388 85.684L96.9051 142.439L79.0284 138.508L99.8424 43.8735L127.595 49.9775L127.3 93.0311L128.175 93.2236L146.972 54.2393L174.6 60.3157L153.911 154.977Z" fill="url(#paint1_linear_2011_73)"/>
<path d="M153.911 154.977L153.051 158.884L156.963 159.744L157.818 155.831L153.911 154.977ZM135.909 151.018L132.002 150.159L131.143 154.065L135.05 154.925L135.909 151.018ZM148.392 94.2626L152.298 95.1218L153.158 91.2152L149.251 90.3559L148.392 94.2626ZM147.642 94.0976L148.501 90.1909L145.46 89.5222L144.066 92.3054L147.642 94.0976ZM120.782 147.691L119.923 151.598L122.964 152.266L124.358 149.483L120.782 147.691ZM112.157 145.794L108.159 145.928L108.263 149.033L111.297 149.701L112.157 145.794ZM110.138 85.849L114.136 85.7143L114.031 82.6096L110.997 81.9423L110.138 85.849ZM109.388 85.684L110.247 81.7774L106.341 80.9181L105.481 84.8248L109.388 85.684ZM96.9051 142.439L96.0459 146.346L99.9525 147.205L100.812 143.299L96.9051 142.439ZM79.0284 138.508L75.1218 137.648L74.2625 141.555L78.1692 142.414L79.0284 138.508ZM99.8424 43.8735L100.702 39.9669L96.795 39.1077L95.9358 43.0143L99.8424 43.8735ZM127.595 49.9775L131.595 50.0049L131.617 46.7665L128.454 46.0709L127.595 49.9775ZM127.3 93.0311L123.3 93.0037L123.278 96.2421L126.441 96.9377L127.3 93.0311ZM128.175 93.2236L127.316 97.1302L130.405 97.8095L131.778 94.9608L128.175 93.2236ZM146.972 54.2393L147.831 50.3326L144.742 49.6533L143.369 52.502L146.972 54.2393ZM174.6 60.3157L178.507 61.1698L179.36 57.2672L175.459 56.4091L174.6 60.3157ZM154.77 151.071L136.768 147.111L135.05 154.925L153.051 158.884L154.77 151.071ZM139.815 151.877L152.298 95.1218L144.485 93.4033L132.002 150.159L139.815 151.877ZM149.251 90.3559L148.501 90.1909L146.782 98.0042L147.533 98.1692L149.251 90.3559ZM144.066 92.3054L117.206 145.899L124.358 149.483L151.218 95.8898L144.066 92.3054ZM121.642 143.784L113.016 141.887L111.297 149.701L119.923 151.598L121.642 143.784ZM116.154 145.659L114.136 85.7143L106.14 85.9836L108.159 145.928L116.154 145.659ZM110.997 81.9423L110.247 81.7774L108.529 89.5906L109.279 89.7556L110.997 81.9423ZM105.481 84.8248L92.9985 141.58L100.812 143.299L113.295 86.5432L105.481 84.8248ZM97.7643 138.533L79.8876 134.601L78.1692 142.414L96.0459 146.346L97.7643 138.533ZM82.935 139.367L103.749 44.7327L95.9358 43.0143L75.1218 137.648L82.935 139.367ZM98.9832 47.7801L126.736 53.8841L128.454 46.0709L100.702 39.9669L98.9832 47.7801ZM123.595 49.9501L123.3 93.0037L131.3 93.0585L131.595 50.0049L123.595 49.9501ZM126.441 96.9377L127.316 97.1302L129.034 89.317L128.159 89.1245L126.441 96.9377ZM131.778 94.9608L150.575 55.9765L143.369 52.502L124.572 91.4863L131.778 94.9608ZM146.113 58.1459L173.74 64.2224L175.459 56.4091L147.831 50.3326L146.113 58.1459ZM170.692 59.4617L150.003 154.123L157.818 155.831L178.507 61.1698L170.692 59.4617Z" fill="#141414" mask="url(#path-3-outside-2_2011_73)"/>
<mask id="path-5-outside-3_2011_73" maskUnits="userSpaceOnUse" x="167.174" y="55.4228" width="77.2027" height="116.862" fill="black">
<rect fill="white" x="167.174" y="55.4228" width="77.2027" height="116.862"/>
<path d="M220.834 158.751C216.666 164.219 210.687 165.28 198.53 163.492C186.246 161.685 180.827 158.947 178.41 152.511C175.974 146.201 175.438 140.171 179.872 110.032C184.305 79.8919 186.518 74.5247 190.686 69.0571C194.835 63.7161 200.832 62.5282 213.116 64.3351C225.273 66.1233 230.674 68.9878 233.109 75.2974C235.526 81.7337 236.1 87.5106 231.666 117.65C227.233 147.79 224.983 153.41 220.834 158.751ZM206.953 140.537C208.085 138.116 208.968 134.753 211.985 114.238C215.096 93.0894 215.219 89.6143 214.813 87.0964C214.422 85.357 213.394 84.4295 210.229 83.9639C207.063 83.4982 205.684 84.0717 204.936 85.6435C203.695 87.9192 202.812 91.2825 199.702 112.431C196.684 132.946 196.561 136.421 197.075 139.084C197.339 140.805 198.512 141.625 201.678 142.09C204.844 142.556 206.077 142.091 206.953 140.537Z"/>
</mask>
<path d="M220.834 158.751C216.666 164.219 210.687 165.28 198.53 163.492C186.246 161.685 180.827 158.947 178.41 152.511C175.974 146.201 175.438 140.171 179.872 110.032C184.305 79.8919 186.518 74.5247 190.686 69.0571C194.835 63.7161 200.832 62.5282 213.116 64.3351C225.273 66.1233 230.674 68.9878 233.109 75.2974C235.526 81.7337 236.1 87.5106 231.666 117.65C227.233 147.79 224.983 153.41 220.834 158.751ZM206.953 140.537C208.085 138.116 208.968 134.753 211.985 114.238C215.096 93.0894 215.219 89.6143 214.813 87.0964C214.422 85.357 213.394 84.4295 210.229 83.9639C207.063 83.4982 205.684 84.0717 204.936 85.6435C203.695 87.9192 202.812 91.2825 199.702 112.431C196.684 132.946 196.561 136.421 197.075 139.084C197.339 140.805 198.512 141.625 201.678 142.09C204.844 142.556 206.077 142.091 206.953 140.537Z" fill="url(#paint2_linear_2011_73)"/>
<path d="M220.834 158.751L217.675 156.297L217.664 156.312L217.653 156.326L220.834 158.751ZM178.41 152.511L182.155 151.105L182.148 151.088L182.142 151.071L178.41 152.511ZM190.686 69.0571L187.527 66.6031L187.516 66.6175L187.505 66.6321L190.686 69.0571ZM233.109 75.2974L236.854 73.8912L236.848 73.874L236.841 73.8569L233.109 75.2974ZM206.953 140.537L210.437 142.501L210.512 142.369L210.576 142.232L206.953 140.537ZM214.813 87.0964L218.762 86.4598L218.743 86.3388L218.716 86.2191L214.813 87.0964ZM204.936 85.6435L208.448 87.5578L208.5 87.4621L208.547 87.3637L204.936 85.6435ZM197.075 139.084L201.028 138.477L201.017 138.401L201.002 138.327L197.075 139.084ZM217.653 156.326C216.153 158.294 214.46 159.394 211.874 159.924C209.047 160.504 205.082 160.413 199.112 159.535L197.948 167.449C204.135 168.36 209.238 168.632 213.482 167.761C217.966 166.841 221.346 164.677 224.015 161.176L217.653 156.326ZM199.112 159.535C193.076 158.647 189.22 157.587 186.663 156.214C184.326 154.958 183.024 153.418 182.155 151.105L174.665 153.917C176.214 158.04 178.83 161.087 182.877 163.261C186.705 165.318 191.701 166.531 197.948 167.449L199.112 159.535ZM182.142 151.071C180.148 145.907 179.366 140.955 183.829 110.614L175.914 109.449C171.511 139.387 171.8 146.496 174.679 153.952L182.142 151.071ZM183.829 110.614C188.288 80.3027 190.424 75.9981 193.867 71.4821L187.505 66.6321C182.611 73.0514 180.323 79.4811 175.914 109.449L183.829 110.614ZM193.845 71.5112C195.336 69.5912 197.042 68.4772 199.665 67.9319C202.514 67.3396 206.518 67.4076 212.534 68.2925L213.698 60.3777C207.43 59.4556 202.294 59.2142 198.036 60.0994C193.553 61.0315 190.185 63.1821 187.527 66.6031L193.845 71.5112ZM212.534 68.2925C218.482 69.1675 222.304 70.2502 224.845 71.6337C227.187 72.9085 228.501 74.4674 229.378 76.7379L236.841 73.8569C235.282 69.8178 232.678 66.7896 228.671 64.6077C224.863 62.5345 219.906 61.2909 213.698 60.3777L212.534 68.2925ZM229.365 76.7037C231.361 82.0197 232.168 86.7572 227.709 117.068L235.624 118.232C240.032 88.264 239.692 81.4477 236.854 73.8912L229.365 76.7037ZM227.709 117.068C223.246 147.41 221.071 151.926 217.675 156.297L223.992 161.205C228.895 154.894 231.22 148.17 235.624 118.232L227.709 117.068ZM210.576 142.232C212.02 139.145 212.967 135.051 215.943 114.82L208.028 113.656C204.969 134.455 204.15 137.087 203.329 138.843L210.576 142.232ZM215.943 114.82C217.498 104.249 218.32 98.0026 218.7 94.0645C219.081 90.1094 219.046 88.2162 218.762 86.4598L210.864 87.7331C210.987 88.4945 211.093 89.5979 210.737 93.2969C210.379 97.0129 209.584 103.079 208.028 113.656L215.943 114.82ZM218.716 86.2191C218.37 84.6806 217.605 83.0402 215.906 81.8115C214.419 80.7358 212.601 80.2698 210.811 80.0064L209.646 87.9213C210.293 88.0163 210.713 88.1189 210.979 88.206C211.24 88.2917 211.281 88.3397 211.217 88.2935C211.13 88.2306 211.019 88.1173 210.936 87.9781C210.867 87.8616 210.877 87.8249 210.911 87.9738L218.716 86.2191ZM210.811 80.0064C209.023 79.7435 207.131 79.6638 205.396 80.2499C203.38 80.9307 202.088 82.321 201.325 83.9233L208.547 87.3637C208.569 87.317 208.527 87.4224 208.376 87.5639C208.214 87.7171 208.046 87.7986 207.956 87.8293C207.892 87.8508 207.963 87.8143 208.259 87.8078C208.556 87.8013 209.001 87.8263 209.646 87.9213L210.811 80.0064ZM201.424 83.7292C200.517 85.3919 199.891 87.2638 199.1 91.1646C198.311 95.0536 197.299 101.282 195.744 111.849L203.659 113.013C205.216 102.431 206.2 96.4039 206.94 92.7553C207.678 89.1184 208.114 88.1708 208.448 87.5578L201.424 83.7292ZM195.744 111.849C194.236 122.1 193.435 128.199 193.08 132.089C192.723 136.008 192.787 137.973 193.147 139.842L201.002 138.327C200.849 137.532 200.718 136.428 201.047 132.816C201.38 129.173 202.149 123.277 203.659 113.013L195.744 111.849ZM193.121 139.692C193.4 141.509 194.293 143.209 196.08 144.393C197.566 145.377 199.382 145.796 201.096 146.048L202.26 138.133C201.587 138.034 201.128 137.931 200.819 137.838C200.508 137.744 200.441 137.686 200.497 137.723C200.581 137.779 200.747 137.918 200.886 138.149C201.016 138.364 201.034 138.513 201.028 138.477L193.121 139.692ZM201.096 146.048C202.812 146.3 204.654 146.42 206.36 145.891C208.38 145.265 209.632 143.931 210.437 142.501L203.468 138.573C203.402 138.691 203.421 138.623 203.555 138.504C203.71 138.367 203.88 138.284 203.989 138.251C204.065 138.227 204.003 138.261 203.698 138.263C203.392 138.264 202.935 138.232 202.26 138.133L201.096 146.048Z" fill="#141414" mask="url(#path-5-outside-3_2011_73)"/>
<mask id="path-7-outside-4_2011_73" maskUnits="userSpaceOnUse" x="235.688" y="64.5113" width="67.4945" height="113.74" fill="black">
<rect fill="white" x="235.688" y="64.5113" width="67.4945" height="113.74"/>
<path d="M292.623 105.069L276.049 103.585C276.291 102.321 276.348 101.684 276.554 99.389C277.09 93.397 276.242 91.3933 271.397 90.9593C266.553 90.5253 265.489 92.3577 264.952 98.3497C264.45 103.959 265.715 105.615 268.731 107.813C275.98 112.96 280.977 114.564 285.652 118.324C290.908 122.779 293.058 127.47 291.619 143.533C289.563 166.481 283.198 172.979 263.692 171.232C247.756 169.804 240.957 163.926 242.316 148.755C242.75 143.91 243.508 138.324 244.547 135.332L261.248 136.829C260.902 137.826 260.799 138.973 260.673 140.375C260.011 147.77 260.814 150.284 265.913 150.74C271.013 151.197 272.309 149.643 273.04 141.483C273.485 136.511 272.254 134.473 269.029 131.743C263.159 126.976 255.298 124.344 250.494 119.159C245.678 114.101 245.981 106.417 247.123 93.6681C248.744 75.5646 254.149 69.7516 273.145 71.4534C290.356 72.9953 296.03 78.5156 294.568 94.8342C294.1 100.061 293.605 102.716 292.623 105.069Z"/>
</mask>
<path d="M292.623 105.069L276.049 103.585C276.291 102.321 276.348 101.684 276.554 99.389C277.09 93.397 276.242 91.3933 271.397 90.9593C266.553 90.5253 265.489 92.3577 264.952 98.3497C264.45 103.959 265.715 105.615 268.731 107.813C275.98 112.96 280.977 114.564 285.652 118.324C290.908 122.779 293.058 127.47 291.619 143.533C289.563 166.481 283.198 172.979 263.692 171.232C247.756 169.804 240.957 163.926 242.316 148.755C242.75 143.91 243.508 138.324 244.547 135.332L261.248 136.829C260.902 137.826 260.799 138.973 260.673 140.375C260.011 147.77 260.814 150.284 265.913 150.74C271.013 151.197 272.309 149.643 273.04 141.483C273.485 136.511 272.254 134.473 269.029 131.743C263.159 126.976 255.298 124.344 250.494 119.159C245.678 114.101 245.981 106.417 247.123 93.6681C248.744 75.5646 254.149 69.7516 273.145 71.4534C290.356 72.9953 296.03 78.5156 294.568 94.8342C294.1 100.061 293.605 102.716 292.623 105.069Z" fill="url(#paint3_linear_2011_73)"/>
<path d="M292.623 105.069L292.266 109.054L295.186 109.315L296.314 106.61L292.623 105.069ZM276.049 103.585L272.12 102.833L271.29 107.174L275.692 107.569L276.049 103.585ZM268.731 107.813L266.375 111.045L266.395 111.06L266.415 111.074L268.731 107.813ZM285.652 118.324L288.239 115.273L288.199 115.24L288.159 115.207L285.652 118.324ZM244.547 135.332L244.904 131.348L241.793 131.07L240.768 134.02L244.547 135.332ZM261.248 136.829L265.026 138.141L266.707 133.302L261.605 132.845L261.248 136.829ZM269.029 131.743L271.613 128.69L271.582 128.663L271.55 128.637L269.029 131.743ZM250.494 119.159L253.428 116.44L253.409 116.42L253.391 116.4L250.494 119.159ZM292.98 101.085L276.406 99.6007L275.692 107.569L292.266 109.054L292.98 101.085ZM279.978 104.336C280.263 102.848 280.334 102.018 280.538 99.7459L272.57 99.0321C272.362 101.349 272.319 101.795 272.12 102.833L279.978 104.336ZM280.538 99.7459C280.679 98.1697 280.749 96.6639 280.644 95.2983C280.539 93.9355 280.243 92.4554 279.46 91.0946C277.693 88.0245 274.514 87.2224 271.754 86.9752L271.04 94.9433C272.039 95.0328 272.495 95.1802 272.665 95.2575C272.739 95.291 272.61 95.2308 272.527 95.0852C272.494 95.0286 272.613 95.2 272.667 95.9117C272.722 96.6206 272.697 97.6123 272.57 99.0321L280.538 99.7459ZM271.754 86.9752C269.002 86.7286 265.713 86.9492 263.457 89.7192C262.472 90.9294 261.947 92.3358 261.623 93.6395C261.296 94.9501 261.108 96.4319 260.968 97.9928L268.936 98.7066C269.065 97.2714 269.21 96.2772 269.386 95.5725C269.563 94.861 269.708 94.7129 269.661 94.7702C269.541 94.9172 269.379 94.9723 269.424 94.9606C269.581 94.92 270.038 94.8536 271.04 94.9433L271.754 86.9752ZM260.968 97.9928C260.695 101.041 260.823 103.684 261.879 106.013C262.959 108.394 264.756 109.865 266.375 111.045L271.087 104.58C269.69 103.562 269.346 103.107 269.165 102.708C268.96 102.257 268.707 101.268 268.936 98.7066L260.968 97.9928ZM266.415 111.074C270.24 113.79 273.477 115.572 276.222 117.089C279 118.625 281.118 119.811 283.145 121.441L288.159 115.207C285.512 113.078 282.794 111.581 280.092 110.088C277.358 108.576 274.471 106.982 271.047 104.551L266.415 111.074ZM283.066 121.376C285.269 123.243 286.541 124.88 287.286 127.623C288.107 130.648 288.345 135.249 287.635 143.176L295.603 143.89C296.332 135.754 296.214 129.978 295.006 125.528C293.722 120.796 291.291 117.861 288.239 115.273L283.066 121.376ZM287.635 143.176C286.61 154.618 284.555 160.639 281.375 163.811C278.41 166.768 273.537 168.098 264.049 167.248L263.335 175.216C273.353 176.113 281.415 175.068 287.024 169.476C292.416 164.099 294.572 155.397 295.603 143.89L287.635 143.176ZM264.049 167.248C256.335 166.557 251.853 164.841 249.356 162.328C247.019 159.977 245.671 156.134 246.3 149.112L238.332 148.398C237.602 156.547 238.974 163.229 243.681 167.967C248.228 172.543 255.112 174.479 263.335 175.216L264.049 167.248ZM246.3 149.112C246.738 144.226 247.47 139.108 248.325 136.645L240.768 134.02C239.546 137.539 238.762 143.595 238.332 148.398L246.3 149.112ZM244.19 139.316L260.891 140.813L261.605 132.845L244.904 131.348L244.19 139.316ZM257.469 135.516C256.929 137.073 256.802 138.759 256.689 140.019L264.657 140.732C264.796 139.188 264.874 138.579 265.026 138.141L257.469 135.516ZM256.689 140.019C256.518 141.929 256.425 143.686 256.5 145.243C256.574 146.781 256.821 148.388 257.511 149.859C258.254 151.441 259.421 152.676 260.973 153.5C262.416 154.267 264.017 154.587 265.556 154.724L266.27 146.756C265.26 146.666 264.847 146.5 264.726 146.435C264.715 146.429 264.766 146.487 264.754 146.46C264.688 146.321 264.54 145.884 264.491 144.858C264.442 143.849 264.497 142.519 264.657 140.732L256.689 140.019ZM265.556 154.724C268.286 154.969 271.852 154.905 274.27 151.801C275.301 150.478 275.863 148.9 276.228 147.356C276.598 145.79 276.836 143.939 277.024 141.84L269.056 141.126C268.878 143.108 268.68 144.51 268.442 145.516C268.199 146.545 267.981 146.857 267.959 146.885C267.959 146.885 267.971 146.869 267.997 146.846C268.023 146.822 268.055 146.798 268.088 146.777C268.161 146.731 268.19 146.733 268.12 146.75C267.914 146.801 267.4 146.858 266.27 146.756L265.556 154.724ZM277.024 141.84C277.278 139.007 277.107 136.486 276.065 134.146C275.037 131.837 273.363 130.171 271.613 128.69L266.444 134.795C267.92 136.045 268.473 136.763 268.756 137.399C269.025 138.003 269.247 138.988 269.056 141.126L277.024 141.84ZM271.55 128.637C268.301 125.999 264.499 123.952 261.359 122.142C258.048 120.233 255.373 118.539 253.428 116.44L247.56 121.877C250.419 124.963 254.076 127.178 257.364 129.073C260.823 131.067 263.887 132.72 266.507 134.848L271.55 128.637ZM253.391 116.4C251.808 114.738 250.89 112.529 250.557 108.929C250.212 105.205 250.53 100.46 251.107 94.025L243.139 93.3112C242.573 99.6254 242.168 105.096 242.591 109.666C243.025 114.36 244.363 118.521 247.597 121.917L253.391 116.4ZM251.107 94.025C251.912 85.0378 253.606 80.5049 256.281 78.119C258.883 75.7982 263.469 74.6026 272.788 75.4374L273.502 67.4693C263.824 66.6024 256.21 67.4625 250.956 72.1485C245.775 76.7696 243.955 84.1949 243.139 93.3112L251.107 94.025ZM272.788 75.4374C281.261 76.1965 285.639 77.8836 287.941 80.3384C290.119 82.6617 291.287 86.6262 290.584 94.4773L298.552 95.1911C299.311 86.7235 298.373 79.7686 293.777 74.8666C289.304 70.0962 282.239 68.2521 273.502 67.4693L272.788 75.4374ZM290.584 94.4773C290.121 99.6471 289.662 101.778 288.931 103.529L296.314 106.61C297.548 103.653 298.079 100.475 298.552 95.1911L290.584 94.4773Z" fill="#141414" mask="url(#path-7-outside-4_2011_73)"/>
<mask id="path-9-outside-5_2011_73" maskUnits="userSpaceOnUse" x="302.768" y="71.9422" width="69.1269" height="106.937" fill="black">
<rect fill="white" x="302.768" y="71.9422" width="69.1269" height="106.937"/>
<path d="M364.045 174.736L341.015 174.043L330.169 130.177L328.89 130.139C329.08 132.322 329.003 134.88 328.93 137.311L327.837 173.647L307.238 173.027L310.151 76.1752L330.75 76.7947L329.688 112.107C329.626 114.154 329.452 115.685 329.274 117.345L330.554 117.383L344.696 77.2142L365.806 77.8492L365.787 78.4889L349.773 121.291L364.064 174.096L364.045 174.736Z"/>
</mask>
<path d="M364.045 174.736L341.015 174.043L330.169 130.177L328.89 130.139C329.08 132.322 329.003 134.88 328.93 137.311L327.837 173.647L307.238 173.027L310.151 76.1752L330.75 76.7947L329.688 112.107C329.626 114.154 329.452 115.685 329.274 117.345L330.554 117.383L344.696 77.2142L365.806 77.8492L365.787 78.4889L349.773 121.291L364.064 174.096L364.045 174.736Z" fill="url(#paint4_linear_2011_73)"/>
<path d="M364.045 174.736L363.924 178.734L367.923 178.854L368.043 174.856L364.045 174.736ZM341.015 174.043L337.132 175.003L337.861 177.95L340.895 178.042L341.015 174.043ZM330.169 130.177L334.052 129.217L333.323 126.27L330.289 126.179L330.169 130.177ZM328.89 130.139L329.01 126.141L324.514 126.006L324.905 130.487L328.89 130.139ZM327.837 173.647L327.717 177.645L331.715 177.765L331.835 173.767L327.837 173.647ZM307.238 173.027L303.24 172.907L303.12 176.905L307.118 177.026L307.238 173.027ZM310.151 76.1752L310.272 72.177L306.273 72.0567L306.153 76.0549L310.151 76.1752ZM330.75 76.7947L334.748 76.915L334.869 72.9168L330.87 72.7966L330.75 76.7947ZM329.274 117.345L325.297 116.918L324.837 121.213L329.154 121.343L329.274 117.345ZM330.554 117.383L330.434 121.381L333.356 121.469L334.327 118.712L330.554 117.383ZM344.696 77.2142L344.816 73.216L341.894 73.1281L340.923 75.8859L344.696 77.2142ZM365.806 77.8492L369.804 77.9694L369.925 73.9712L365.927 73.851L365.806 77.8492ZM365.787 78.4889L369.533 79.8905L369.765 79.2707L369.785 78.6091L365.787 78.4889ZM349.773 121.291L346.027 119.889L345.576 121.094L345.912 122.336L349.773 121.291ZM364.064 174.096L368.062 174.217L368.08 173.624L367.925 173.051L364.064 174.096ZM364.165 170.738L341.135 170.045L340.895 178.042L363.924 178.734L364.165 170.738ZM344.898 173.083L334.052 129.217L326.286 131.138L337.132 175.003L344.898 173.083ZM330.289 126.179L329.01 126.141L328.769 134.137L330.049 134.176L330.289 126.179ZM324.905 130.487C325.071 132.389 325.007 134.697 324.932 137.191L332.928 137.432C332.999 135.064 333.089 132.254 332.874 129.791L324.905 130.487ZM324.932 137.191L323.839 173.527L331.835 173.767L332.928 137.432L324.932 137.191ZM327.957 169.649L307.359 169.029L307.118 177.026L327.717 177.645L327.957 169.649ZM311.237 173.148L314.15 76.2954L306.153 76.0549L303.24 172.907L311.237 173.148ZM310.031 80.1734L330.63 80.7929L330.87 72.7966L310.272 72.177L310.031 80.1734ZM326.752 76.6745L325.69 111.987L333.686 112.227L334.748 76.915L326.752 76.6745ZM325.69 111.987C325.634 113.857 325.477 115.241 325.297 116.918L333.252 117.771C333.428 116.129 333.619 114.45 333.686 112.227L325.69 111.987ZM329.154 121.343L330.434 121.381L330.674 113.385L329.395 113.347L329.154 121.343ZM334.327 118.712L348.469 78.5425L340.923 75.8859L326.781 116.055L334.327 118.712ZM344.576 81.2124L365.686 81.8474L365.927 73.851L344.816 73.216L344.576 81.2124ZM361.808 77.7289L361.789 78.3686L369.785 78.6091L369.804 77.9694L361.808 77.7289ZM362.041 77.0872L346.027 119.889L353.519 122.692L369.533 79.8905L362.041 77.0872ZM345.912 122.336L360.203 175.141L367.925 173.051L353.634 120.246L345.912 122.336ZM360.066 173.976L360.046 174.616L368.043 174.856L368.062 174.217L360.066 173.976Z" fill="#141414" mask="url(#path-9-outside-5_2011_73)"/>
<mask id="path-11-outside-6_2011_73" maskUnits="userSpaceOnUse" x="408.031" y="69.413" width="66.376" height="108.508" fill="black">
<rect fill="white" x="408.031" y="69.413" width="66.376" height="108.508"/>
<path d="M438.676 172.418L418.618 173.66L412.628 76.9491L441.629 75.153C458.876 74.0848 463.997 82.2318 465.532 107.016C467.099 132.312 463.062 141.667 445.815 142.735L436.872 143.289L438.676 172.418ZM435.637 123.36L441.003 123.027C444.708 122.798 445.908 119.389 445.188 107.763C444.555 97.5429 442.751 95.3462 438.791 95.5915L433.936 95.8922L435.637 123.36Z"/>
</mask>
<path d="M438.676 172.418L418.618 173.66L412.628 76.9491L441.629 75.153C458.876 74.0848 463.997 82.2318 465.532 107.016C467.099 132.312 463.062 141.667 445.815 142.735L436.872 143.289L438.676 172.418ZM435.637 123.36L441.003 123.027C444.708 122.798 445.908 119.389 445.188 107.763C444.555 97.5429 442.751 95.3462 438.791 95.5915L433.936 95.8922L435.637 123.36Z" fill="url(#paint5_linear_2011_73)"/>
<path d="M438.676 172.418L438.923 176.41L442.915 176.163L442.668 172.17L438.676 172.418ZM418.618 173.66L414.626 173.907L414.873 177.899L418.865 177.652L418.618 173.66ZM412.628 76.9491L412.381 72.9568L408.389 73.204L408.636 77.1964L412.628 76.9491ZM436.872 143.289L436.624 139.297L432.632 139.544L432.879 143.537L436.872 143.289ZM435.637 123.36L431.645 123.607L431.892 127.599L435.885 127.352L435.637 123.36ZM433.936 95.8922L433.689 91.8998L429.697 92.1471L429.944 96.1394L433.936 95.8922ZM438.429 168.425L418.371 169.667L418.865 177.652L438.923 176.41L438.429 168.425ZM422.611 173.413L416.621 76.7018L408.636 77.1964L414.626 173.907L422.611 173.413ZM412.876 80.9415L441.876 79.1453L441.382 71.1606L412.381 72.9568L412.876 80.9415ZM441.876 79.1453C449.877 78.6498 453.768 80.3378 456.235 83.7387C459.106 87.6972 460.77 94.825 461.54 107.264L469.525 106.769C468.76 94.4231 467.095 85.0852 462.71 79.0411C457.921 72.4393 450.627 70.588 441.382 71.1606L441.876 79.1453ZM461.54 107.264C462.326 119.95 461.58 127.56 459.19 132.096C457.132 136 453.467 138.254 445.567 138.743L446.062 146.728C455.409 146.149 462.386 143.191 466.267 135.826C469.815 129.093 470.306 119.378 469.525 106.769L461.54 107.264ZM445.567 138.743L436.624 139.297L437.119 147.282L446.062 146.728L445.567 138.743ZM432.879 143.537L434.683 172.665L442.668 172.17L440.864 143.042L432.879 143.537ZM435.885 127.352L441.25 127.02L440.756 119.035L435.39 119.367L435.885 127.352ZM441.25 127.02C442.793 126.924 444.473 126.462 445.925 125.217C447.333 124.009 448.129 122.404 448.598 120.777C449.485 117.7 449.538 113.3 449.18 107.516L441.195 108.011C441.557 113.853 441.37 116.969 440.911 118.561C440.707 119.267 440.554 119.284 440.718 119.144C440.925 118.966 441.066 119.016 440.756 119.035L441.25 127.02ZM449.18 107.516C448.865 102.439 448.248 98.4632 446.711 95.7702C445.852 94.2646 444.645 93.039 443.014 92.3049C441.462 91.6067 439.883 91.5162 438.544 91.5992L439.038 99.5839C439.679 99.5442 439.811 99.6362 439.731 99.6003C439.571 99.5286 439.597 99.4449 439.763 99.7354C440.276 100.635 440.877 102.867 441.195 108.011L449.18 107.516ZM438.544 91.5992L433.689 91.8998L434.183 99.8845L439.038 99.5839L438.544 91.5992ZM429.944 96.1394L431.645 123.607L439.63 123.112L437.929 95.6449L429.944 96.1394Z" fill="#141414" mask="url(#path-11-outside-6_2011_73)"/>
<mask id="path-13-outside-7_2011_73" maskUnits="userSpaceOnUse" x="471.256" y="63.1395" width="61.8147" height="110.081" fill="black">
<rect fill="white" x="471.256" y="63.1395" width="61.8147" height="110.081"/>
<path d="M527.824 164.018L487.266 168.743L476.053 72.4983L496.014 70.1728L504.739 145.058L525.335 142.659L527.824 164.018Z"/>
</mask>
<path d="M527.824 164.018L487.266 168.743L476.053 72.4983L496.014 70.1728L504.739 145.058L525.335 142.659L527.824 164.018Z" fill="url(#paint6_linear_2011_73)"/>
<path d="M527.824 164.018L528.287 167.991L532.26 167.529L531.797 163.555L527.824 164.018ZM487.266 168.743L483.293 169.206L483.756 173.179L487.729 172.716L487.266 168.743ZM476.053 72.4983L475.59 68.5251L471.617 68.988L472.08 72.9611L476.053 72.4983ZM496.014 70.1728L499.987 69.7099L499.524 65.7368L495.551 66.1996L496.014 70.1728ZM504.739 145.058L500.765 145.521L501.228 149.494L505.201 149.031L504.739 145.058ZM525.335 142.659L529.308 142.196L528.845 138.223L524.872 138.686L525.335 142.659ZM527.361 160.045L486.803 164.77L487.729 172.716L528.287 167.991L527.361 160.045ZM491.239 168.28L480.026 72.0354L472.08 72.9611L483.293 169.206L491.239 168.28ZM476.516 76.4714L496.477 74.1459L495.551 66.1996L475.59 68.5251L476.516 76.4714ZM492.041 70.6356L500.765 145.521L508.712 144.595L499.987 69.7099L492.041 70.6356ZM505.201 149.031L525.798 146.632L524.872 138.686L504.276 141.085L505.201 149.031ZM521.362 143.122L523.851 164.481L531.797 163.555L529.308 142.196L521.362 143.122Z" fill="#141414" mask="url(#path-13-outside-7_2011_73)"/>
<mask id="path-15-outside-8_2011_73" maskUnits="userSpaceOnUse" x="521.309" y="52.5821" width="79.8656" height="114.149" fill="black">
<rect fill="white" x="521.309" y="52.5821" width="79.8656" height="114.149"/>
<path d="M595.988 152.899L575.551 156.409L570.119 134.614L560.531 136.261L562.809 158.598L542.877 162.021L536.693 64.7687L569.997 59.0483L595.988 152.899ZM565.921 115.465L556.768 81.8406L555.381 82.079L558.099 116.808L565.921 115.465Z"/>
</mask>
<path d="M595.988 152.899L575.551 156.409L570.119 134.614L560.531 136.261L562.809 158.598L542.877 162.021L536.693 64.7687L569.997 59.0483L595.988 152.899ZM565.921 115.465L556.768 81.8406L555.381 82.079L558.099 116.808L565.921 115.465Z" fill="url(#paint7_linear_2011_73)"/>
<path d="M595.988 152.899L596.665 156.841L601.023 156.093L599.842 151.831L595.988 152.899ZM575.551 156.409L571.67 157.377L572.568 160.98L576.228 160.352L575.551 156.409ZM570.119 134.614L574 133.647L573.102 130.043L569.442 130.672L570.119 134.614ZM560.531 136.261L559.854 132.319L556.173 132.951L556.552 136.667L560.531 136.261ZM562.809 158.598L563.487 162.54L567.168 161.908L566.789 158.192L562.809 158.598ZM542.877 162.021L538.885 162.275L539.168 166.717L543.554 165.964L542.877 162.021ZM536.693 64.7687L536.016 60.8265L532.473 61.435L532.701 65.0226L536.693 64.7687ZM569.997 59.0483L573.852 57.9807L572.886 54.4935L569.32 55.106L569.997 59.0483ZM565.921 115.465L566.598 119.407L570.936 118.662L569.78 114.414L565.921 115.465ZM556.768 81.8406L560.628 80.7901L559.673 77.2831L556.091 77.8984L556.768 81.8406ZM555.381 82.079L554.704 78.1367L551.108 78.7542L551.393 82.3911L555.381 82.079ZM558.099 116.808L554.111 117.12L554.454 121.493L558.776 120.75L558.099 116.808ZM595.31 148.957L574.874 152.467L576.228 160.352L596.665 156.841L595.31 148.957ZM579.432 155.442L574 133.647L566.238 135.582L571.67 157.377L579.432 155.442ZM569.442 130.672L559.854 132.319L561.208 140.203L570.796 138.557L569.442 130.672ZM556.552 136.667L558.83 159.004L566.789 158.192L564.511 135.855L556.552 136.667ZM562.132 154.656L542.2 158.079L543.554 165.964L563.487 162.54L562.132 154.656ZM546.869 161.768L540.685 64.5149L532.701 65.0226L538.885 162.275L546.869 161.768ZM537.37 68.711L570.674 62.9906L569.32 55.106L536.016 60.8265L537.37 68.711ZM566.142 60.1158L592.133 153.967L599.842 151.831L573.852 57.9807L566.142 60.1158ZM569.78 114.414L560.628 80.7901L552.909 82.8912L562.061 116.515L569.78 114.414ZM556.091 77.8984L554.704 78.1367L556.058 86.0212L557.446 85.7829L556.091 77.8984ZM551.393 82.3911L554.111 117.12L562.087 116.496L559.369 81.7668L551.393 82.3911ZM558.776 120.75L566.598 119.407L565.243 111.522L557.422 112.866L558.776 120.75Z" fill="#141414" mask="url(#path-15-outside-8_2011_73)"/>
<mask id="path-17-outside-9_2011_73" maskUnits="userSpaceOnUse" x="586.201" y="38.0933" width="83.3525" height="116.15" fill="black">
<rect fill="white" x="586.201" y="38.0933" width="83.3525" height="116.15"/>
<path d="M664.458 137.408L654.239 139.804L620.072 94.4359L619.325 94.6111L631.184 145.208L613.363 149.385L591.25 55.0459L610.442 50.5474L631.335 80.2267L632.082 80.0514L624.4 47.2758L642.346 43.0694L664.458 137.408Z"/>
</mask>
<path d="M664.458 137.408L654.239 139.804L620.072 94.4359L619.325 94.6111L631.184 145.208L613.363 149.385L591.25 55.0459L610.442 50.5474L631.335 80.2267L632.082 80.0514L624.4 47.2758L642.346 43.0694L664.458 137.408Z" fill="url(#paint8_linear_2011_73)"/>
<path d="M664.458 137.408L665.371 141.303L669.266 140.39L668.353 136.496L664.458 137.408ZM654.239 139.804L651.044 142.21L652.613 144.293L655.152 143.698L654.239 139.804ZM620.072 94.4359L623.267 92.0295L621.699 89.9463L619.159 90.5414L620.072 94.4359ZM619.325 94.6111L618.412 90.7167L614.517 91.6295L615.43 95.524L619.325 94.6111ZM631.184 145.208L632.097 149.102L635.992 148.189L635.079 144.295L631.184 145.208ZM613.363 149.385L609.469 150.298L610.382 154.192L614.276 153.279L613.363 149.385ZM591.25 55.0459L590.338 51.1515L586.443 52.0643L587.356 55.9588L591.25 55.0459ZM610.442 50.5474L613.713 48.2449L612.159 46.0367L609.529 46.653L610.442 50.5474ZM631.335 80.2267L628.064 82.5292L629.618 84.7374L632.248 84.1211L631.335 80.2267ZM632.082 80.0514L632.995 83.9459L636.89 83.033L635.977 79.1386L632.082 80.0514ZM624.4 47.2758L623.487 43.3813L619.593 44.2942L620.506 48.1886L624.4 47.2758ZM642.346 43.0694L646.24 42.1565L645.327 38.2621L641.433 39.1749L642.346 43.0694ZM663.546 133.514L653.327 135.909L655.152 143.698L665.371 141.303L663.546 133.514ZM657.435 137.397L623.267 92.0295L616.877 96.8422L651.044 142.21L657.435 137.397ZM619.159 90.5414L618.412 90.7167L620.237 98.5056L620.985 98.3303L619.159 90.5414ZM615.43 95.524L627.29 146.121L635.079 144.295L623.219 93.6983L615.43 95.524ZM630.271 141.313L612.45 145.491L614.276 153.279L632.097 149.102L630.271 141.313ZM617.258 148.472L595.145 54.1331L587.356 55.9588L609.469 150.298L617.258 148.472ZM592.163 58.9404L611.355 54.4418L609.529 46.653L590.338 51.1515L592.163 58.9404ZM607.171 52.8499L628.064 82.5292L634.606 77.9242L613.713 48.2449L607.171 52.8499ZM632.248 84.1211L632.995 83.9459L631.17 76.157L630.422 76.3322L632.248 84.1211ZM635.977 79.1386L628.294 46.3629L620.506 48.1886L628.188 80.9643L635.977 79.1386ZM625.313 51.1702L643.258 46.9638L641.433 39.1749L623.487 43.3813L625.313 51.1702ZM638.451 43.9822L660.564 138.321L668.353 136.496L646.24 42.1565L638.451 43.9822Z" fill="#141414" mask="url(#path-17-outside-9_2011_73)"/>
<mask id="path-19-outside-10_2011_73" maskUnits="userSpaceOnUse" x="648.885" y="18.61" width="86.6291" height="121.001" fill="black">
<rect fill="white" x="648.885" y="18.61" width="86.6291" height="121.001"/>
<path d="M707.73 55.3921L691.778 60.129C691.537 58.8655 691.354 58.252 690.698 56.0433C688.986 50.2762 687.458 48.7272 682.795 50.1118C678.132 51.4964 677.82 53.592 679.532 59.3591C681.136 64.7581 682.923 65.8298 686.537 66.7594C695.174 68.8678 700.41 68.5146 706.143 70.2839C712.672 72.4844 716.401 76.0503 720.992 91.5111C727.551 113.598 724.033 121.986 705.26 127.561C689.922 132.116 681.434 129.162 677.098 114.56C675.713 109.897 674.355 104.425 674.217 101.262L690.291 96.4887C690.337 97.5432 690.665 98.6475 691.066 99.9973C693.179 107.114 694.853 109.154 699.761 107.696C704.67 106.239 705.3 104.316 702.968 96.4628C701.547 91.6774 699.651 90.2376 695.646 88.89C688.431 86.6262 680.154 87.0812 673.775 84.0351C667.432 81.1117 664.878 73.8588 661.234 61.5883C656.06 44.1644 658.937 36.7672 677.22 31.338C693.785 26.419 701.096 29.4555 705.76 45.1616C707.254 50.1925 707.774 52.8421 707.73 55.3921Z"/>
</mask>
<path d="M707.73 55.3921L691.778 60.129C691.537 58.8655 691.354 58.252 690.698 56.0433C688.986 50.2762 687.458 48.7272 682.795 50.1118C678.132 51.4964 677.82 53.592 679.532 59.3591C681.136 64.7581 682.923 65.8298 686.537 66.7594C695.174 68.8678 700.41 68.5146 706.143 70.2839C712.672 72.4844 716.401 76.0503 720.992 91.5111C727.551 113.598 724.033 121.986 705.26 127.561C689.922 132.116 681.434 129.162 677.098 114.56C675.713 109.897 674.355 104.425 674.217 101.262L690.291 96.4887C690.337 97.5432 690.665 98.6475 691.066 99.9973C693.179 107.114 694.853 109.154 699.761 107.696C704.67 106.239 705.3 104.316 702.968 96.4628C701.547 91.6774 699.651 90.2376 695.646 88.89C688.431 86.6262 680.154 87.0812 673.775 84.0351C667.432 81.1117 664.878 73.8588 661.234 61.5883C656.06 44.1644 658.937 36.7672 677.22 31.338C693.785 26.419 701.096 29.4555 705.76 45.1616C707.254 50.1925 707.774 52.8421 707.73 55.3921Z" fill="url(#paint9_linear_2011_73)"/>
<path d="M707.73 55.3921L708.868 59.2266L711.679 58.3921L711.729 55.461L707.73 55.3921ZM691.778 60.129L687.849 60.8805L688.68 65.2217L692.917 63.9635L691.778 60.129ZM686.537 66.7594L685.54 70.6333L685.564 70.6394L685.588 70.6453L686.537 66.7594ZM706.143 70.2839L707.421 66.4934L707.372 66.4769L707.323 66.4617L706.143 70.2839ZM674.217 101.262L673.078 97.4275L670.084 98.3165L670.221 101.437L674.217 101.262ZM690.291 96.4887L694.287 96.314L694.064 91.1958L689.152 92.6542L690.291 96.4887ZM695.646 88.89L696.921 85.0989L696.882 85.0858L696.843 85.0735L695.646 88.89ZM673.775 84.0351L675.498 80.4255L675.474 80.4138L675.449 80.4024L673.775 84.0351ZM706.591 51.5576L690.64 56.2945L692.917 63.9635L708.868 59.2266L706.591 51.5576ZM695.707 59.3775C695.422 57.8892 695.183 57.0919 694.533 54.9046L686.864 57.182C687.526 59.4121 687.651 59.8418 687.849 60.8805L695.707 59.3775ZM694.533 54.9046C694.082 53.3876 693.592 51.9623 692.99 50.7318C692.39 49.5039 691.569 48.2374 690.339 47.2617C687.563 45.0605 684.312 45.4886 681.656 46.2773L683.934 53.9463C684.895 53.6609 685.373 53.6294 685.56 53.6386C685.64 53.6426 685.499 53.634 685.367 53.5296C685.316 53.489 685.49 53.6045 685.803 54.2458C686.116 54.8845 686.458 55.8155 686.864 57.182L694.533 54.9046ZM681.656 46.2773C679.007 47.064 676.032 48.4828 674.958 51.8897C674.489 53.378 674.52 54.8787 674.7 56.2102C674.88 57.5487 675.252 58.9955 675.698 60.4978L683.367 58.2205C682.957 56.8392 682.725 55.8614 682.628 55.1417C682.53 54.415 682.61 54.2239 682.588 54.2944C682.531 54.4751 682.401 54.5862 682.438 54.5587C682.569 54.4632 682.969 54.2326 683.934 53.9463L681.656 46.2773ZM675.698 60.4978C676.569 63.4312 677.664 65.8412 679.505 67.6155C681.387 69.4295 683.6 70.1342 685.54 70.6333L687.533 62.8855C685.86 62.455 685.372 62.159 685.056 61.855C684.7 61.5114 684.099 60.686 683.367 58.2205L675.698 60.4978ZM685.588 70.6453C690.146 71.7578 693.812 72.2194 696.923 72.6166C700.071 73.0185 702.478 73.3387 704.964 74.106L707.323 66.4617C704.076 65.4597 700.998 65.0719 697.936 64.681C694.836 64.2853 691.565 63.8693 687.485 62.8735L685.588 70.6453ZM704.866 74.0743C707.602 74.9967 709.389 76.0487 711.093 78.3236C712.973 80.8314 714.892 85.0203 717.158 92.6497L724.827 90.3724C722.501 82.5411 720.261 77.2166 717.495 73.5263C714.555 69.6028 711.213 67.7716 707.421 66.4934L704.866 74.0743ZM717.158 92.6497C720.428 103.662 720.741 110.016 718.955 114.138C717.291 117.98 713.253 121.015 704.121 123.727L706.398 131.396C716.04 128.532 723.148 124.586 726.296 117.318C729.323 110.33 728.116 101.447 724.827 90.3724L717.158 92.6497ZM704.121 123.727C696.697 125.931 691.897 125.991 688.65 124.577C685.61 123.254 682.939 120.18 680.932 113.421L673.263 115.699C675.592 123.542 679.333 129.246 685.456 131.912C691.371 134.487 698.484 133.746 706.398 131.396L704.121 123.727ZM680.932 113.421C679.536 108.719 678.327 103.692 678.213 101.087L670.221 101.437C670.383 105.159 671.89 111.076 673.263 115.699L680.932 113.421ZM675.356 105.096L691.43 100.323L689.152 92.6542L673.078 97.4275L675.356 105.096ZM686.295 96.6633C686.367 98.3097 686.871 99.9233 687.231 101.136L694.9 98.8586C694.459 97.3717 694.308 96.7766 694.287 96.314L686.295 96.6633ZM687.231 101.136C687.777 102.974 688.34 104.642 688.984 106.061C689.621 107.464 690.443 108.866 691.627 109.978C692.902 111.175 694.442 111.891 696.189 112.085C697.813 112.265 699.418 111.971 700.9 111.531L698.623 103.862C697.651 104.151 697.206 104.149 697.07 104.133C697.057 104.132 697.126 104.167 697.104 104.147C696.992 104.041 696.693 103.69 696.268 102.754C695.851 101.835 695.411 100.579 694.9 98.8586L687.231 101.136ZM700.9 111.531C703.528 110.751 706.818 109.375 707.92 105.598C708.39 103.988 708.329 102.313 708.099 100.745C707.865 99.1526 707.403 97.3439 706.803 95.3241L699.134 97.6015C699.7 99.5082 700.033 100.885 700.184 101.908C700.337 102.954 700.25 103.324 700.24 103.358C700.24 103.358 700.245 103.339 700.261 103.308C700.276 103.276 700.297 103.242 700.32 103.21C700.371 103.14 700.399 103.131 700.34 103.173C700.167 103.296 699.71 103.539 698.623 103.862L700.9 111.531ZM706.803 95.3241C705.993 92.5968 704.904 90.3176 703.072 88.5269C701.265 86.7602 699.094 85.8299 696.921 85.0989L694.37 92.6812C696.203 93.2978 696.982 93.7611 697.48 94.2475C697.953 94.71 698.523 95.5434 699.134 97.6015L706.803 95.3241ZM696.843 85.0735C692.849 83.8203 688.561 83.3213 684.974 82.7979C681.192 82.2459 678.081 81.6588 675.498 80.4255L672.051 87.6447C675.847 89.4575 680.064 90.166 683.819 90.714C687.77 91.2906 691.227 91.6959 694.448 92.7066L696.843 85.0735ZM675.449 80.4024C673.365 79.4418 671.696 77.7271 670.058 74.5045C668.363 71.1704 666.908 66.6429 665.068 60.4497L657.399 62.727C659.204 68.8042 660.847 74.0384 662.926 78.1292C665.062 82.3315 667.842 85.7051 672.1 87.6678L675.449 80.4024ZM665.068 60.4497C662.5 51.7998 662.401 46.9618 664.007 43.757C665.569 40.6396 669.39 37.8358 678.359 35.1726L676.081 27.5035C666.767 30.2694 660.008 33.8788 656.854 40.1733C653.744 46.3803 654.794 53.9529 657.399 62.727L665.068 60.4497ZM678.359 35.1726C686.514 32.7507 691.205 32.703 694.251 34.1351C697.133 35.4904 699.682 38.7439 701.925 46.3003L709.594 44.0229C707.174 35.8732 703.736 29.7553 697.655 26.8957C691.738 24.1127 684.491 25.0063 676.081 27.5035L678.359 35.1726ZM701.925 46.3003C703.403 51.276 703.763 53.4262 703.73 55.3233L711.729 55.461C711.784 52.258 711.105 49.1089 709.594 44.0229L701.925 46.3003Z" fill="#141414" mask="url(#path-19-outside-10_2011_73)"/>
<defs>
<linearGradient id="paint0_linear_2011_73" x1="34.3136" y1="-2.73584" x2="129.071" y2="29.8163" gradientUnits="userSpaceOnUse">
<stop stop-color="#E0B5FC"/>
<stop offset="0.49" stop-color="#FFD87D"/>
<stop offset="1" stop-color="#554CFF"/>
</linearGradient>
<linearGradient id="paint1_linear_2011_73" x1="87.6134" y1="14.4559" x2="228.537" y2="55.1124" gradientUnits="userSpaceOnUse">
<stop stop-color="#E0B5FC"/>
<stop offset="0.49" stop-color="#FFD87D"/>
<stop offset="1" stop-color="#554CFF"/>
</linearGradient>
<linearGradient id="paint2_linear_2011_73" x1="178.362" y1="34.52" x2="276.751" y2="53.4431" gradientUnits="userSpaceOnUse">
<stop stop-color="#E0B5FC"/>
<stop offset="0.49" stop-color="#FFD87D"/>
<stop offset="1" stop-color="#554CFF"/>
</linearGradient>
<linearGradient id="paint3_linear_2011_73" x1="240.226" y1="43.9665" x2="332.73" y2="56.0866" gradientUnits="userSpaceOnUse">
<stop stop-color="#E0B5FC"/>
<stop offset="0.49" stop-color="#FFD87D"/>
<stop offset="1" stop-color="#554CFF"/>
</linearGradient>
<linearGradient id="paint4_linear_2011_73" x1="296.091" y1="49.6365" x2="404.572" y2="58.095" gradientUnits="userSpaceOnUse">
<stop stop-color="#E0B5FC"/>
<stop offset="0.49" stop-color="#FFD87D"/>
<stop offset="1" stop-color="#554CFF"/>
</linearGradient>
<linearGradient id="paint5_linear_2011_73" x1="397.023" y1="51.7616" x2="497.199" y2="49.9688" gradientUnits="userSpaceOnUse">
<stop stop-color="#E0B5FC"/>
<stop offset="0.49" stop-color="#FFD87D"/>
<stop offset="1" stop-color="#554CFF"/>
</linearGradient>
<linearGradient id="paint6_linear_2011_73" x1="460.929" y1="47.9797" x2="541.884" y2="41.4611" gradientUnits="userSpaceOnUse">
<stop stop-color="#E0B5FC"/>
<stop offset="0.49" stop-color="#FFD87D"/>
<stop offset="1" stop-color="#554CFF"/>
</linearGradient>
<linearGradient id="paint7_linear_2011_73" x1="511.179" y1="42.6649" x2="608.855" y2="30.2029" gradientUnits="userSpaceOnUse">
<stop stop-color="#E0B5FC"/>
<stop offset="0.49" stop-color="#FFD87D"/>
<stop offset="1" stop-color="#554CFF"/>
</linearGradient>
<linearGradient id="paint8_linear_2011_73" x1="571.282" y1="32.9149" x2="674.867" y2="13.6362" gradientUnits="userSpaceOnUse">
<stop stop-color="#E0B5FC"/>
<stop offset="0.49" stop-color="#FFD87D"/>
<stop offset="1" stop-color="#554CFF"/>
</linearGradient>
<linearGradient id="paint9_linear_2011_73" x1="636.481" y1="17.9409" x2="726.927" y2="-4.93497" gradientUnits="userSpaceOnUse">
<stop stop-color="#E0B5FC"/>
<stop offset="0.49" stop-color="#FFD87D"/>
<stop offset="1" stop-color="#554CFF"/>
</linearGradient>
</defs>
</svg>
