<svg width="336" height="82" viewBox="0 0 336 82" fill="none" xmlns="http://www.w3.org/2000/svg">
<mask id="path-1-outside-1_538_4" maskUnits="userSpaceOnUse" x="1.98119" y="6.7138" width="33.2704" height="47.4683" fill="black">
<rect fill="white" x="1.98119" y="6.7138" width="33.2704" height="47.4683"/>
<path d="M14.2613 49.5245L11.4099 48.6831L13.0793 43.0256C7.86928 41.3406 5.9513 39.0034 7.20672 34.749C7.58067 33.4817 7.94647 32.4088 8.43468 31.4213L14.9068 33.3311L14.6798 34.1005C14.1589 35.8657 14.1767 36.8057 16.0776 37.3667C18.0691 37.9543 18.5254 36.9081 18.9127 35.5956C19.2867 34.3283 19.0448 33.8141 17.9059 32.8385C15.841 30.9991 13.2671 29.5508 11.663 27.6506C10.0908 25.8091 10.2414 24.1315 11.39 20.2391C12.8991 15.1248 15.0308 13.7366 21.2529 15.3266L22.6819 10.4838L25.5333 11.3252L24.1043 16.168C29.1838 17.9621 30.6439 20.0166 29.3084 24.5426C29.0413 25.4478 28.7423 26.2944 28.4514 26.9465L21.934 25.0233L22.2145 24.0729C22.6819 22.4888 22.4749 21.6897 20.8456 21.2089C19.0804 20.688 18.5098 21.4545 18.1493 22.6765C17.7753 23.9438 18.0305 24.4127 19.3052 25.4285C21.7589 27.2841 23.4624 28.1804 25.0829 29.6918C26.8977 31.2113 27.4394 33.044 26.1973 37.2532C24.381 43.4085 21.8894 45.1825 15.9441 43.8218L14.2613 49.5245Z"/>
</mask>
<path d="M14.2613 49.5245L11.4099 48.6831L13.0793 43.0256C7.86928 41.3406 5.9513 39.0034 7.20672 34.749C7.58067 33.4817 7.94647 32.4088 8.43468 31.4213L14.9068 33.3311L14.6798 34.1005C14.1589 35.8657 14.1767 36.8057 16.0776 37.3667C18.0691 37.9543 18.5254 36.9081 18.9127 35.5956C19.2867 34.3283 19.0448 33.8141 17.9059 32.8385C15.841 30.9991 13.2671 29.5508 11.663 27.6506C10.0908 25.8091 10.2414 24.1315 11.39 20.2391C12.8991 15.1248 15.0308 13.7366 21.2529 15.3266L22.6819 10.4838L25.5333 11.3252L24.1043 16.168C29.1838 17.9621 30.6439 20.0166 29.3084 24.5426C29.0413 25.4478 28.7423 26.2944 28.4514 26.9465L21.934 25.0233L22.2145 24.0729C22.6819 22.4888 22.4749 21.6897 20.8456 21.2089C19.0804 20.688 18.5098 21.4545 18.1493 22.6765C17.7753 23.9438 18.0305 24.4127 19.3052 25.4285C21.7589 27.2841 23.4624 28.1804 25.0829 29.6918C26.8977 31.2113 27.4394 33.044 26.1973 37.2532C24.381 43.4085 21.8894 45.1825 15.9441 43.8218L14.2613 49.5245Z" fill="url(#paint0_linear_538_4)"/>
<path d="M14.2613 49.5245L13.9783 50.4836L14.9374 50.7666L15.2204 49.8075L14.2613 49.5245ZM11.4099 48.6831L10.4508 48.4001L10.1678 49.3592L11.1269 49.6422L11.4099 48.6831ZM13.0793 43.0256L14.0385 43.3086L14.3143 42.374L13.3871 42.0741L13.0793 43.0256ZM8.43468 31.4213L8.7177 30.4622L7.91099 30.2241L7.53824 30.9781L8.43468 31.4213ZM14.9068 33.3311L15.8659 33.6141L16.149 32.655L15.1899 32.372L14.9068 33.3311ZM17.9059 32.8385L17.2407 33.5852L17.2479 33.5916L17.2553 33.5979L17.9059 32.8385ZM11.663 27.6506L12.4271 27.0055L12.4235 27.0013L11.663 27.6506ZM21.2529 15.3266L21.0053 16.2955L21.9392 16.5341L22.212 15.6096L21.2529 15.3266ZM22.6819 10.4838L22.965 9.52469L22.0059 9.24167L21.7228 10.2008L22.6819 10.4838ZM25.5333 11.3252L26.4924 11.6082L26.7755 10.6491L25.8163 10.3661L25.5333 11.3252ZM24.1043 16.168L23.1452 15.885L22.8766 16.7949L23.7712 17.1109L24.1043 16.168ZM28.4514 26.9465L28.1684 27.9057L29.0081 28.1534L29.3647 27.3538L28.4514 26.9465ZM21.934 25.0233L20.9749 24.7403L20.6919 25.6994L21.651 25.9825L21.934 25.0233ZM19.3052 25.4285L18.682 26.2105L18.6919 26.2184L18.702 26.226L19.3052 25.4285ZM25.0829 29.6918L24.4008 30.4231L24.4204 30.4413L24.4409 30.4585L25.0829 29.6918ZM15.9441 43.8218L16.1672 42.847L15.251 42.6373L14.985 43.5387L15.9441 43.8218ZM14.5443 48.5654L11.6929 47.724L11.1269 49.6422L13.9783 50.4836L14.5443 48.5654ZM12.369 48.9661L14.0385 43.3086L12.1202 42.7426L10.4508 48.4001L12.369 48.9661ZM13.3871 42.0741C10.8355 41.2489 9.30672 40.3246 8.52462 39.2591C7.79511 38.2652 7.59347 36.9717 8.16583 35.032L6.24761 34.466C5.56456 36.7807 5.69419 38.783 6.91233 40.4425C8.07788 42.0305 10.1131 43.1173 12.7716 43.9771L13.3871 42.0741ZM8.16583 35.032C8.53465 33.7821 8.88127 32.7744 9.33112 31.8644L7.53824 30.9781C7.01166 32.0433 6.6267 33.1813 6.24761 34.466L8.16583 35.032ZM8.15166 32.3804L14.6238 34.2902L15.1899 32.372L8.7177 30.4622L8.15166 32.3804ZM13.9477 33.0481L13.7207 33.8175L15.6389 34.3835L15.8659 33.6141L13.9477 33.0481ZM13.7207 33.8175C13.4694 34.6692 13.232 35.6401 13.5228 36.5041C13.8565 37.4958 14.7339 38.0128 15.7946 38.3258L16.3607 36.4075C15.5205 36.1596 15.4385 35.9261 15.4183 35.8662C15.3552 35.6787 15.3694 35.297 15.6389 34.3835L13.7207 33.8175ZM15.7946 38.3258C16.9537 38.6678 17.9723 38.6165 18.747 37.9534C19.4156 37.3811 19.6891 36.4978 19.8718 35.8786L17.9536 35.3126C17.749 36.0059 17.6007 36.302 17.4464 36.434C17.3983 36.4752 17.193 36.6532 16.3607 36.4075L15.7946 38.3258ZM19.8718 35.8786C20.0808 35.1705 20.1838 34.4661 19.9109 33.7511C19.6565 33.0847 19.1304 32.5707 18.5564 32.079L17.2553 33.5979C17.8202 34.0819 17.9845 34.3128 18.0424 34.4643C18.0816 34.5671 18.1186 34.7534 17.9536 35.3126L19.8718 35.8786ZM18.571 32.0917C17.4979 31.1358 16.2831 30.2738 15.213 29.4684C14.1139 28.6411 13.15 27.8619 12.4271 27.0055L10.8989 28.2957C11.7801 29.3395 12.9052 30.2346 14.0103 31.0663C15.1444 31.9199 16.2489 32.7017 17.2407 33.5852L18.571 32.0917ZM12.4235 27.0013C11.7728 26.2391 11.5179 25.5794 11.5061 24.7004C11.4931 23.7345 11.7723 22.4768 12.3491 20.5221L10.4308 19.9561C9.85905 21.8938 9.48867 23.4211 9.50626 24.7274C9.52503 26.1207 9.98098 27.2206 10.9024 28.2999L12.4235 27.0013ZM12.3491 20.5221C13.0904 18.0099 13.9029 16.7403 15.0191 16.154C16.164 15.5526 17.9259 15.5085 21.0053 16.2955L21.5005 14.3577C18.3578 13.5546 15.9428 13.4097 14.089 14.3834C12.2066 15.3723 11.1987 17.354 10.4308 19.9561L12.3491 20.5221ZM22.212 15.6096L23.6411 10.7668L21.7228 10.2008L20.2938 15.0436L22.212 15.6096ZM22.3989 11.4429L25.2503 12.2843L25.8163 10.3661L22.965 9.52469L22.3989 11.4429ZM24.5742 11.0422L23.1452 15.885L25.0634 16.451L26.4924 11.6082L24.5742 11.0422ZM23.7712 17.1109C26.2791 17.9967 27.6289 18.8671 28.2693 19.8693C28.8717 20.8119 28.9849 22.1055 28.3493 24.2596L30.2675 24.8256C30.9674 22.4537 31.0184 20.457 29.9546 18.7924C28.9289 17.1872 27.0089 16.1334 24.4373 15.2251L23.7712 17.1109ZM28.3493 24.2596C28.0899 25.1384 27.8052 25.9403 27.5381 26.5392L29.3647 27.3538C29.6793 26.6484 29.9926 25.7571 30.2675 24.8256L28.3493 24.2596ZM28.7344 25.9874L22.217 24.0642L21.651 25.9825L28.1684 27.9057L28.7344 25.9874ZM22.8931 25.3064L23.1736 24.3559L21.2554 23.7899L20.9749 24.7403L22.8931 25.3064ZM23.1736 24.3559C23.4131 23.5442 23.583 22.641 23.2349 21.832C22.8599 20.9603 22.0387 20.5183 21.1286 20.2498L20.5625 22.168C21.2818 22.3803 21.3787 22.5782 21.3977 22.6224C21.4437 22.7291 21.4833 23.0174 21.2554 23.7899L23.1736 24.3559ZM21.1286 20.2498C20.1121 19.9498 19.1704 19.9411 18.4062 20.4637C17.6924 20.9518 17.3801 21.7496 17.1901 22.3935L19.1084 22.9595C19.279 22.3814 19.4323 22.1849 19.5352 22.1146C19.5877 22.0786 19.8139 21.9471 20.5625 22.168L21.1286 20.2498ZM17.1901 22.3935C16.9819 23.0991 16.8731 23.8179 17.1931 24.5481C17.4808 25.2048 18.0572 25.7126 18.682 26.2105L19.9284 24.6464C19.2786 24.1286 19.09 23.894 19.0249 23.7455C18.9921 23.6705 18.9426 23.5211 19.1084 22.9595L17.1901 22.3935ZM18.702 26.226C19.9518 27.1712 21.0196 27.8785 21.9388 28.5124C22.8651 29.1513 23.6464 29.7194 24.4008 30.4231L25.765 28.9605C24.8989 28.1528 24.0182 27.517 23.0743 26.866C22.1232 26.2101 21.1124 25.5414 19.9084 24.6309L18.702 26.226ZM24.4409 30.4585C25.2157 31.1073 25.6452 31.7501 25.8016 32.6375C25.9686 33.5846 25.8439 34.9174 25.2382 36.9701L27.1564 37.5362C27.7928 35.3797 28.0183 33.6917 27.7713 32.2903C27.5137 30.8292 26.7649 29.7959 25.7249 28.9251L24.4409 30.4585ZM25.2382 36.9701C24.3429 40.0041 23.3497 41.6826 22.0714 42.5193C20.8239 43.3359 19.0546 43.5078 16.1672 42.847L15.721 44.7965C18.7789 45.4965 21.228 45.4618 23.1668 44.1927C25.0747 42.9438 26.2353 40.6576 27.1564 37.5362L25.2382 36.9701ZM14.985 43.5387L13.3022 49.2415L15.2204 49.8075L16.9032 44.1048L14.985 43.5387Z" fill="#141414" mask="url(#path-1-outside-1_538_4)"/>
<mask id="path-3-outside-2_538_4" maskUnits="userSpaceOnUse" x="33.3419" y="17.0475" width="38.439" height="43.772" fill="black">
<rect fill="white" x="33.3419" y="17.0475" width="38.439" height="43.772"/>
<path d="M62.638 59.58L56.0014 58.1203L60.6034 37.1965L60.3269 37.1357L50.4248 56.8938L47.2447 56.1943L46.5006 34.0947L46.2241 34.0339L41.6221 54.9577L35.0315 53.5081L42.7049 18.6198L52.9364 20.8701L52.8276 36.7425L53.1502 36.8135L60.08 22.4413L70.2653 24.6815L62.638 59.58Z"/>
</mask>
<path d="M62.638 59.58L56.0014 58.1203L60.6034 37.1965L60.3269 37.1357L50.4248 56.8938L47.2447 56.1943L46.5006 34.0947L46.2241 34.0339L41.6221 54.9577L35.0315 53.5081L42.7049 18.6198L52.9364 20.8701L52.8276 36.7425L53.1502 36.8135L60.08 22.4413L70.2653 24.6815L62.638 59.58Z" fill="url(#paint1_linear_538_4)"/>
<path d="M62.638 59.58L62.4232 60.5566L63.4012 60.7717L63.6149 59.7935L62.638 59.58ZM56.0014 58.1203L55.0247 57.9055L54.8099 58.8821L55.7866 59.0969L56.0014 58.1203ZM60.6034 37.1965L61.5801 37.4113L61.7949 36.4347L60.8182 36.2198L60.6034 37.1965ZM60.3269 37.1357L60.5417 36.159L59.7816 35.9918L59.4329 36.6876L60.3269 37.1357ZM50.4248 56.8938L50.21 57.8704L50.9701 58.0376L51.3188 57.3418L50.4248 56.8938ZM47.2447 56.1943L46.2453 56.228L46.2714 57.0042L47.0299 57.171L47.2447 56.1943ZM46.5006 34.0947L47.5 34.061L47.4739 33.2849L46.7154 33.118L46.5006 34.0947ZM46.2241 34.0339L46.4389 33.0572L45.4622 32.8424L45.2474 33.8191L46.2241 34.0339ZM41.6221 54.9577L41.4072 55.9343L42.3839 56.1491L42.5987 55.1725L41.6221 54.9577ZM35.0315 53.5081L34.0549 53.2933L33.8401 54.27L34.8167 54.4848L35.0315 53.5081ZM42.7049 18.6198L42.9197 17.6431L41.9431 17.4283L41.7283 18.405L42.7049 18.6198ZM52.9364 20.8701L53.9364 20.877L53.9419 20.0674L53.1512 19.8935L52.9364 20.8701ZM52.8276 36.7425L51.8276 36.7357L51.822 37.5453L52.6128 37.7192L52.8276 36.7425ZM53.1502 36.8135L52.9354 37.7901L53.7076 37.96L54.0509 37.2478L53.1502 36.8135ZM60.08 22.4413L60.2948 21.4646L59.5226 21.2948L59.1792 22.007L60.08 22.4413ZM70.2653 24.6815L71.2423 24.895L71.4555 23.9194L70.4801 23.7048L70.2653 24.6815ZM62.8528 58.6033L56.2162 57.1436L55.7866 59.0969L62.4232 60.5566L62.8528 58.6033ZM56.978 58.3351L61.5801 37.4113L59.6268 36.9817L55.0247 57.9055L56.978 58.3351ZM60.8182 36.2198L60.5417 36.159L60.1121 38.1123L60.3886 38.1732L60.8182 36.2198ZM59.4329 36.6876L49.5308 56.4457L51.3188 57.3418L61.2209 37.5837L59.4329 36.6876ZM50.6396 55.9171L47.4595 55.2177L47.0299 57.171L50.21 57.8704L50.6396 55.9171ZM48.2442 56.1607L47.5 34.061L45.5012 34.1284L46.2453 56.228L48.2442 56.1607ZM46.7154 33.118L46.4389 33.0572L46.0093 35.0105L46.2858 35.0714L46.7154 33.118ZM45.2474 33.8191L40.6454 54.7429L42.5987 55.1725L47.2007 34.2487L45.2474 33.8191ZM41.8369 53.981L35.2463 52.5315L34.8167 54.4848L41.4072 55.9343L41.8369 53.981ZM36.0082 53.7229L43.6816 18.8346L41.7283 18.405L34.0549 53.2933L36.0082 53.7229ZM42.4901 19.5965L52.7216 21.8468L53.1512 19.8935L42.9197 17.6431L42.4901 19.5965ZM51.9364 20.8633L51.8276 36.7357L53.8275 36.7494L53.9364 20.877L51.9364 20.8633ZM52.6128 37.7192L52.9354 37.7901L53.365 35.8368L53.0424 35.7659L52.6128 37.7192ZM54.0509 37.2478L60.9807 22.8756L59.1792 22.007L52.2494 36.3792L54.0509 37.2478ZM59.8652 23.418L70.0505 25.6581L70.4801 23.7048L60.2948 21.4646L59.8652 23.418ZM69.2884 24.468L61.6611 59.3664L63.6149 59.7935L71.2423 24.895L69.2884 24.468Z" fill="#141414" mask="url(#path-3-outside-2_538_4)"/>
<mask id="path-5-outside-3_538_4" maskUnits="userSpaceOnUse" x="77.2599" y="24.8684" width="27.587" height="42.7758" fill="black">
<rect fill="white" x="77.2599" y="24.8684" width="27.587" height="42.7758"/>
<path d="M96.2821 62.882C94.7455 64.8977 92.5416 65.289 88.0596 64.6297C83.531 63.9636 81.5331 62.9542 80.642 60.5814C79.7441 58.2553 79.5464 56.0321 81.1809 44.9207C82.8153 33.8092 83.631 31.8305 85.1677 29.8148C86.6974 27.8458 88.9082 27.4078 93.4368 28.0739C97.9188 28.7332 99.9098 29.7892 100.808 32.1154C101.699 34.4882 101.91 36.618 100.276 47.7294C98.6413 58.8409 97.8119 60.913 96.2821 62.882ZM91.1646 56.1671C91.5821 55.2746 91.9076 54.0346 93.0201 46.4714C94.167 38.6747 94.2123 37.3935 94.0627 36.4653C93.9185 35.824 93.5395 35.4821 92.3724 35.3104C91.2052 35.1387 90.6971 35.3502 90.4211 35.9296C89.9638 36.7686 89.6383 38.0085 88.4915 45.8052C87.379 53.3685 87.3336 54.6497 87.5231 55.6315C87.6205 56.2659 88.0531 56.568 89.2202 56.7397C90.3874 56.9113 90.8419 56.7397 91.1646 56.1671Z"/>
</mask>
<path d="M96.2821 62.882C94.7455 64.8977 92.5416 65.289 88.0596 64.6297C83.531 63.9636 81.5331 62.9542 80.642 60.5814C79.7441 58.2553 79.5464 56.0321 81.1809 44.9207C82.8153 33.8092 83.631 31.8305 85.1677 29.8148C86.6974 27.8458 88.9082 27.4078 93.4368 28.0739C97.9188 28.7332 99.9098 29.7892 100.808 32.1154C101.699 34.4882 101.91 36.618 100.276 47.7294C98.6413 58.8409 97.8119 60.913 96.2821 62.882ZM91.1646 56.1671C91.5821 55.2746 91.9076 54.0346 93.0201 46.4714C94.167 38.6747 94.2123 37.3935 94.0627 36.4653C93.9185 35.824 93.5395 35.4821 92.3724 35.3104C91.2052 35.1387 90.6971 35.3502 90.4211 35.9296C89.9638 36.7686 89.6383 38.0085 88.4915 45.8052C87.379 53.3685 87.3336 54.6497 87.5231 55.6315C87.6205 56.2659 88.0531 56.568 89.2202 56.7397C90.3874 56.9113 90.8419 56.7397 91.1646 56.1671Z" fill="url(#paint2_linear_538_4)"/>
<path d="M96.2821 62.882L95.4924 62.2685L95.4868 62.2758L96.2821 62.882ZM80.642 60.5814L81.5782 60.2298L81.5749 60.2213L80.642 60.5814ZM85.1677 29.8148L84.3779 29.2013L84.3724 29.2086L85.1677 29.8148ZM100.808 32.1154L101.744 31.7638L101.741 31.7553L100.808 32.1154ZM91.1646 56.1671L92.0358 56.6581L92.0544 56.6251L92.0704 56.5908L91.1646 56.1671ZM94.0627 36.4653L95.0499 36.3061L95.0451 36.2759L95.0383 36.246L94.0627 36.4653ZM90.4211 35.9296L91.2992 36.4082L91.3122 36.3843L91.3239 36.3597L90.4211 35.9296ZM87.5231 55.6315L88.5115 55.4796L88.5086 55.4607L88.5049 55.442L87.5231 55.6315ZM95.4868 62.2758C94.8646 63.0919 94.1404 63.5607 93.0744 63.7794C91.9481 64.0104 90.419 63.966 88.2052 63.6404L87.9141 65.6191C90.1822 65.9527 91.996 66.0423 93.4763 65.7386C95.0169 65.4225 96.163 64.6878 97.0774 63.4883L95.4868 62.2758ZM88.2052 63.6404C85.9672 63.3112 84.4781 62.9115 83.46 62.3646C82.4968 61.8473 81.9388 61.1901 81.5782 60.2299L79.7059 60.933C80.2364 62.3456 81.1228 63.3795 82.5135 64.1265C83.8493 64.844 85.6234 65.2821 87.9141 65.6191L88.2052 63.6404ZM81.5749 60.2213C80.7876 58.1816 80.5283 56.2282 82.1702 45.0662L80.1915 44.7751C78.5645 55.8361 78.7006 58.3289 79.7091 60.9415L81.5749 60.2213ZM82.1702 45.0662C83.811 33.9119 84.6077 32.1989 85.9629 30.4211L84.3724 29.2086C82.6544 31.4622 81.8197 33.7065 80.1915 44.7751L82.1702 45.0662ZM85.9573 30.4283C86.5765 29.6314 87.3038 29.1592 88.3812 28.9352C89.5151 28.6995 91.0586 28.7349 93.2913 29.0633L93.5824 27.0846C91.2864 26.7469 89.4602 26.6682 87.9741 26.9771C86.4315 27.2978 85.2886 28.0292 84.378 29.2013L85.9573 30.4283ZM93.2913 29.0633C95.4998 29.3882 96.9762 29.7969 97.9881 30.3478C98.9501 30.8716 99.5112 31.5335 99.8748 32.4755L101.741 31.7553C101.206 30.3711 100.323 29.3419 98.9445 28.5913C97.6159 27.8679 95.8558 27.419 93.5824 27.0846L93.2913 29.0633ZM99.8716 32.467C100.657 34.5597 100.927 36.4296 99.2864 47.5839L101.265 47.875C102.893 36.8063 102.74 34.4167 101.744 31.7638L99.8716 32.467ZM99.2864 47.5839C97.6445 58.7459 96.8338 60.542 95.4924 62.2685L97.0718 63.4955C98.79 61.284 99.6381 58.9359 101.265 47.875L99.2864 47.5839ZM92.0704 56.5908C92.5657 55.5319 92.9074 54.1092 94.0095 46.6169L92.0307 46.3259C90.9078 53.9601 90.5984 55.0173 90.2588 55.7434L92.0704 56.5908ZM94.0095 46.6169C94.5828 42.7193 94.8843 40.4273 95.023 38.9886C95.162 37.5457 95.1448 36.8946 95.0499 36.3061L93.0754 36.6244C93.1302 36.9642 93.1651 37.4178 93.0322 38.7967C92.8989 40.1799 92.6043 42.4268 92.0307 46.3259L94.0095 46.6169ZM95.0383 36.246C94.9287 35.7581 94.6952 35.2689 94.1872 34.9015C93.7322 34.5724 93.1534 34.4145 92.5179 34.3211L92.2268 36.2998C92.7586 36.378 92.9528 36.4769 93.0151 36.522C93.035 36.5364 93.0384 36.5429 93.0416 36.5483C93.0482 36.5594 93.0671 36.5958 93.087 36.6846L95.0383 36.246ZM92.5179 34.3211C91.8831 34.2277 91.2754 34.211 90.7426 34.3909C90.1397 34.5945 89.7535 35.0057 89.5183 35.4996L91.3239 36.3597C91.3517 36.3014 91.3679 36.2885 91.364 36.2921C91.3571 36.2987 91.3558 36.2948 91.3826 36.2858C91.4646 36.2581 91.6945 36.2214 92.2268 36.2998L92.5179 34.3211ZM89.5431 35.451C89.2429 36.0018 89.0234 36.637 88.7348 38.0595C88.4469 39.4789 88.0753 41.7633 87.5021 45.6597L89.4808 45.9508C90.0545 42.0505 90.4191 39.8165 90.6949 38.4571C90.9701 37.1007 91.142 36.6965 91.2992 36.4082L89.5431 35.451ZM87.5021 45.6597C86.9461 49.4397 86.6527 51.6761 86.5232 53.0955C86.3929 54.5223 86.4205 55.1957 86.5412 55.8209L88.5049 55.442C88.4361 55.0855 88.3917 54.6273 88.5149 53.2773C88.6388 51.9198 88.9243 49.7341 89.4808 45.9508L87.5021 45.6597ZM86.5347 55.7833C86.6202 56.3398 86.8858 56.8402 87.4184 57.1928C87.8755 57.4956 88.4582 57.6383 89.0747 57.729L89.3658 55.7503C88.8151 55.6693 88.5979 55.5751 88.5226 55.5253C88.5008 55.5109 88.5101 55.5128 88.5216 55.5317C88.5307 55.5469 88.5207 55.5397 88.5115 55.4796L86.5347 55.7833ZM89.0747 57.729C89.6915 57.8197 90.2826 57.8498 90.8054 57.6876C91.4071 57.5009 91.7824 57.1076 92.0358 56.6581L90.2935 55.6761C90.2509 55.7516 90.2271 55.7725 90.2264 55.7731C90.2262 55.7733 90.2277 55.7721 90.2292 55.7713C90.2305 55.7706 90.2262 55.7732 90.2128 55.7774C90.1359 55.8013 89.9162 55.8313 89.3658 55.7503L89.0747 57.729Z" fill="#141414" mask="url(#path-5-outside-3_538_4)"/>
<mask id="path-7-outside-4_538_4" maskUnits="userSpaceOnUse" x="107.877" y="29.0053" width="24.4854" height="41.7142" fill="black">
<rect fill="white" x="107.877" y="29.0053" width="24.4854" height="41.7142"/>
<path d="M129.109 44.0085L122.999 43.4611C123.088 42.9953 123.109 42.7603 123.185 41.9143C123.383 39.7053 123.07 38.9666 121.284 38.8066C119.498 38.6466 119.106 39.3221 118.908 41.5311C118.723 43.5992 119.189 44.2095 120.301 45.0198C122.974 46.9175 124.816 47.5089 126.54 48.8951C128.477 50.5374 129.27 52.2667 128.739 58.1888C127.981 66.649 125.635 69.0445 118.443 68.4003C112.568 67.874 110.062 65.707 110.563 60.1138C110.723 58.3278 111.002 56.2682 111.385 55.1654L117.542 55.717C117.415 56.0846 117.377 56.5076 117.331 57.0246C117.086 59.7507 117.382 60.6774 119.262 60.8458C121.142 61.0142 121.62 60.4411 121.89 57.433C122.054 55.6 121.6 54.8487 120.411 53.842C118.247 52.0846 115.349 51.1143 113.578 49.2027C111.802 47.338 111.914 44.5053 112.335 39.8052C112.933 33.1311 114.925 30.988 121.928 31.6154C128.274 32.1838 130.365 34.219 129.826 40.2351C129.654 42.1622 129.471 43.1408 129.109 44.0085Z"/>
</mask>
<path d="M129.109 44.0085L122.999 43.4611C123.088 42.9953 123.109 42.7603 123.185 41.9143C123.383 39.7053 123.07 38.9666 121.284 38.8066C119.498 38.6466 119.106 39.3221 118.908 41.5311C118.723 43.5992 119.189 44.2095 120.301 45.0198C122.974 46.9175 124.816 47.5089 126.54 48.8951C128.477 50.5374 129.27 52.2667 128.739 58.1888C127.981 66.649 125.635 69.0445 118.443 68.4003C112.568 67.874 110.062 65.707 110.563 60.1138C110.723 58.3278 111.002 56.2682 111.385 55.1654L117.542 55.717C117.415 56.0846 117.377 56.5076 117.331 57.0246C117.086 59.7507 117.382 60.6774 119.262 60.8458C121.142 61.0142 121.62 60.4411 121.89 57.433C122.054 55.6 121.6 54.8487 120.411 53.842C118.247 52.0846 115.349 51.1143 113.578 49.2027C111.802 47.338 111.914 44.5053 112.335 39.8052C112.933 33.1311 114.925 30.988 121.928 31.6154C128.274 32.1838 130.365 34.219 129.826 40.2351C129.654 42.1622 129.471 43.1408 129.109 44.0085Z" fill="url(#paint3_linear_538_4)"/>
<path d="M129.109 44.0085L129.02 45.0045L129.75 45.0699L130.032 44.3935L129.109 44.0085ZM122.999 43.4611L122.017 43.2732L121.809 44.3585L122.91 44.4571L122.999 43.4611ZM120.301 45.0198L119.712 45.828L119.722 45.8352L120.301 45.0198ZM126.54 48.8951L127.186 48.1323L127.176 48.124L127.166 48.1159L126.54 48.8951ZM111.385 55.1654L111.475 54.1694L110.697 54.0997L110.441 54.8373L111.385 55.1654ZM117.542 55.717L118.487 56.0451L118.907 54.8353L117.632 54.721L117.542 55.717ZM120.411 53.842L121.057 53.0788L121.049 53.0722L121.041 53.0657L120.411 53.842ZM113.578 49.2027L114.311 48.523L114.302 48.5131L113.578 49.2027ZM129.199 43.0125L123.088 42.4651L122.91 44.4571L129.02 45.0045L129.199 43.0125ZM123.981 43.649C124.081 43.127 124.106 42.844 124.181 42.0035L122.189 41.8251C122.113 42.6767 122.095 42.8636 122.017 43.2732L123.981 43.649ZM124.181 42.0035C124.232 41.4317 124.256 40.9071 124.22 40.4426C124.184 39.9788 124.086 39.5108 123.845 39.0932C123.315 38.1709 122.351 37.8981 121.373 37.8105L121.195 39.8026C122.004 39.875 122.089 40.0515 122.112 40.0909C122.148 40.1541 122.203 40.2949 122.226 40.596C122.249 40.8963 122.237 41.2924 122.189 41.8251L124.181 42.0035ZM121.373 37.8105C120.398 37.7231 119.4 37.8198 118.725 38.6491C118.423 39.02 118.252 39.4639 118.141 39.9094C118.03 40.3566 117.963 40.8739 117.912 41.4419L119.904 41.6204C119.952 41.0838 120.008 40.6884 120.082 40.3926C120.156 40.0952 120.232 39.9659 120.276 39.9118C120.293 39.8911 120.384 39.73 121.195 39.8026L121.373 37.8105ZM117.912 41.4419C117.814 42.5367 117.869 43.4132 118.208 44.1603C118.552 44.9203 119.128 45.4025 119.712 45.828L120.89 44.2116C120.362 43.8268 120.149 43.5987 120.029 43.334C119.903 43.0563 119.817 42.5936 119.904 41.6204L117.912 41.4419ZM119.722 45.8352C121.109 46.8196 122.281 47.4654 123.292 48.0244C124.312 48.588 125.129 49.0436 125.913 49.6744L127.166 48.1159C126.227 47.3604 125.261 46.8272 124.26 46.2741C123.251 45.7164 122.166 45.1176 120.88 44.2044L119.722 45.8352ZM125.893 49.658C126.755 50.3891 127.293 51.0697 127.6 52.199C127.925 53.3986 128.006 55.1647 127.743 58.0996L129.735 58.278C130.003 55.2908 129.952 53.2312 129.53 51.6751C129.088 50.0487 128.261 49.0435 127.186 48.1323L125.893 49.658ZM127.743 58.0996C127.365 62.3215 126.602 64.7004 125.298 66.0006C124.048 67.247 122.062 67.7205 118.533 67.4043L118.354 69.3963C122.016 69.7244 124.799 69.3222 126.71 67.4168C128.567 65.5652 129.355 62.5163 129.735 58.278L127.743 58.0996ZM118.533 67.4043C115.659 67.1469 113.864 66.5011 112.822 65.4523C111.82 64.4439 111.321 62.8588 111.559 60.2031L109.567 60.0246C109.304 62.962 109.808 65.257 111.403 66.862C112.957 68.4266 115.353 69.1275 118.354 69.3963L118.533 67.4043ZM111.559 60.2031C111.72 58.4067 111.993 56.4643 112.33 55.4936L110.441 54.8373C110.012 56.0721 109.726 58.2489 109.567 60.0246L111.559 60.2031ZM111.296 56.1614L117.453 56.713L117.632 54.721L111.475 54.1694L111.296 56.1614ZM116.598 55.3889C116.422 55.8964 116.378 56.454 116.335 56.9354L118.327 57.1138C118.376 56.5612 118.408 56.2728 118.487 56.0451L116.598 55.3889ZM116.335 56.9354C116.272 57.6323 116.24 58.2548 116.266 58.7962C116.292 59.333 116.377 59.856 116.595 60.3191C116.825 60.8103 117.183 61.1887 117.664 61.4442C118.118 61.6851 118.637 61.7938 119.173 61.8418L119.352 59.8498C118.948 59.8136 118.725 59.7433 118.602 59.6779C118.506 59.6271 118.453 59.5718 118.405 59.4695C118.344 59.3392 118.284 59.1088 118.264 58.6999C118.244 58.2956 118.267 57.78 118.327 57.1138L116.335 56.9354ZM119.173 61.8418C120.158 61.9301 121.239 61.8815 121.969 60.9451C122.289 60.5341 122.476 60.0274 122.603 59.489C122.732 58.9449 122.817 58.289 122.886 57.5223L120.894 57.3438C120.828 58.0812 120.752 58.6249 120.657 59.029C120.56 59.4388 120.459 59.6289 120.391 59.7161C120.344 59.7762 120.247 59.93 119.352 59.8498L119.173 61.8418ZM122.886 57.5223C122.976 56.5188 122.91 55.6808 122.571 54.921C122.237 54.1691 121.686 53.6111 121.057 53.0788L119.765 54.6052C120.325 55.0795 120.596 55.4006 120.744 55.7342C120.889 56.0601 120.968 56.5142 120.894 57.3438L122.886 57.5223ZM121.041 53.0657C119.881 52.1232 118.523 51.392 117.346 50.7138C116.127 50.0109 115.083 49.3555 114.311 48.523L112.844 49.8823C113.844 50.9615 115.134 51.7471 116.348 52.4465C117.604 53.1707 118.777 53.8034 119.781 54.6183L121.041 53.0657ZM114.302 48.5131C113.621 47.7975 113.257 46.8671 113.128 45.4751C112.997 44.052 113.119 42.2596 113.331 39.8944L111.339 39.716C111.13 42.051 110.986 44.0249 111.137 45.6593C111.291 47.3249 111.759 48.7432 112.854 49.8922L114.302 48.5131ZM113.331 39.8944C113.628 36.5735 114.26 34.7308 115.395 33.7185C116.512 32.7226 118.382 32.3018 121.839 32.6114L122.018 30.6194C118.471 30.3017 115.844 30.6387 114.064 32.2259C112.303 33.7969 111.639 36.3628 111.339 39.716L113.331 39.8944ZM121.839 32.6114C124.979 32.8927 126.752 33.5239 127.729 34.5664C128.676 35.5759 129.093 37.2149 128.83 40.1459L130.822 40.3243C131.099 37.2392 130.739 34.8526 129.188 33.1984C127.668 31.5771 125.223 30.9066 122.018 30.6194L121.839 32.6114ZM128.83 40.1459C128.659 42.0586 128.486 42.9064 128.186 43.6235L130.032 44.3935C130.457 43.3751 130.648 42.2657 130.822 40.3243L128.83 40.1459Z" fill="#141414" mask="url(#path-7-outside-4_538_4)"/>
<mask id="path-9-outside-5_538_4" maskUnits="userSpaceOnUse" x="138.827" y="32.568" width="25.1316" height="38.7044" fill="black">
<rect fill="white" x="138.827" y="32.568" width="25.1316" height="38.7044"/>
<path d="M161.404 70.2294L152.913 69.974L148.915 53.8022L148.443 53.788C148.513 54.5927 148.485 55.536 148.458 56.4322L148.055 69.8279L140.461 69.5995L141.535 33.8934L149.129 34.1218L148.737 47.1401C148.715 47.8948 148.651 48.4594 148.585 49.0712L149.057 49.0854L154.27 34.2764L162.053 34.5105L162.046 34.7464L156.142 50.526L161.411 69.9935L161.404 70.2294Z"/>
</mask>
<path d="M161.404 70.2294L152.913 69.974L148.915 53.8022L148.443 53.788C148.513 54.5927 148.485 55.536 148.458 56.4322L148.055 69.8279L140.461 69.5995L141.535 33.8934L149.129 34.1218L148.737 47.1401C148.715 47.8948 148.651 48.4594 148.585 49.0712L149.057 49.0854L154.27 34.2764L162.053 34.5105L162.046 34.7464L156.142 50.526L161.411 69.9935L161.404 70.2294Z" fill="url(#paint4_linear_538_4)"/>
<path d="M161.404 70.2294L161.373 71.2289L162.373 71.259L162.403 70.2594L161.404 70.2294ZM152.913 69.974L151.943 70.214L152.125 70.9507L152.883 70.9736L152.913 69.974ZM148.915 53.8022L149.885 53.5621L149.703 52.8254L148.945 52.8026L148.915 53.8022ZM148.443 53.788L148.473 52.7884L147.349 52.7546L147.447 53.8749L148.443 53.788ZM148.055 69.8279L148.025 70.8274L149.024 70.8575L149.055 69.8579L148.055 69.8279ZM140.461 69.5995L139.461 69.5694L139.431 70.569L140.431 70.599L140.461 69.5995ZM141.535 33.8934L141.565 32.8938L140.565 32.8638L140.535 33.8633L141.535 33.8934ZM149.129 34.1218L150.129 34.1519L150.159 33.1523L149.159 33.1223L149.129 34.1218ZM148.585 49.0712L147.591 48.9645L147.475 50.0383L148.555 50.0707L148.585 49.0712ZM149.057 49.0854L149.027 50.0849L149.757 50.1069L150 49.4174L149.057 49.0854ZM154.27 34.2764L154.3 33.2769L153.57 33.2549L153.327 33.9444L154.27 34.2764ZM162.053 34.5105L163.053 34.5406L163.083 33.541L162.083 33.511L162.053 34.5105ZM162.046 34.7464L162.982 35.0968L163.04 34.9418L163.045 34.7764L162.046 34.7464ZM156.142 50.526L155.205 50.1755L155.093 50.4767L155.177 50.7872L156.142 50.526ZM161.411 69.9935L162.41 70.0236L162.415 69.8754L162.376 69.7323L161.411 69.9935ZM161.434 69.2298L152.943 68.9745L152.883 70.9736L161.373 71.2289L161.434 69.2298ZM153.884 69.734L149.885 53.5621L147.944 54.0422L151.943 70.214L153.884 69.734ZM148.945 52.8026L148.473 52.7884L148.413 54.7875L148.885 54.8017L148.945 52.8026ZM147.447 53.8749C147.511 54.6096 147.486 55.4901 147.458 56.4021L149.457 56.4623C149.484 55.5819 149.516 54.5757 149.439 53.701L147.447 53.8749ZM147.458 56.4021L147.055 69.7978L149.055 69.8579L149.457 56.4623L147.458 56.4021ZM148.085 68.8283L140.491 68.5999L140.431 70.599L148.025 70.8274L148.085 68.8283ZM141.461 69.6295L142.534 33.9235L140.535 33.8633L139.461 69.5694L141.461 69.6295ZM141.505 34.8929L149.099 35.1214L149.159 33.1223L141.565 32.8938L141.505 34.8929ZM148.129 34.0917L147.738 47.1101L149.737 47.1702L150.129 34.1519L148.129 34.0917ZM147.738 47.1101C147.716 47.8207 147.657 48.3484 147.591 48.9645L149.579 49.1778C149.644 48.5704 149.713 47.969 149.737 47.1702L147.738 47.1101ZM148.555 50.0707L149.027 50.0849L149.087 48.0858L148.615 48.0716L148.555 50.0707ZM150 49.4174L155.214 34.6085L153.327 33.9444L148.113 48.7533L150 49.4174ZM154.24 35.276L162.023 35.5101L162.083 33.511L154.3 33.2769L154.24 35.276ZM161.053 34.4805L161.046 34.7163L163.045 34.7764L163.053 34.5406L161.053 34.4805ZM161.109 34.3959L155.205 50.1755L157.079 50.8764L162.982 35.0968L161.109 34.3959ZM155.177 50.7872L160.445 70.2548L162.376 69.7323L157.107 50.2647L155.177 50.7872ZM160.411 69.9635L160.404 70.1993L162.403 70.2594L162.41 70.0236L160.411 69.9635Z" fill="#141414" mask="url(#path-9-outside-5_538_4)"/>
<mask id="path-11-outside-6_538_4" maskUnits="userSpaceOnUse" x="188.026" y="31.7669" width="24.3069" height="39.2873" fill="black">
<rect fill="white" x="188.026" y="31.7669" width="24.3069" height="39.2873"/>
<path d="M199.309 69.4989L191.915 69.9569L189.706 34.303L200.398 33.6408C206.756 33.247 208.644 36.2505 209.21 45.3877C209.788 54.7133 208.299 58.1624 201.941 58.5562L198.644 58.7604L199.309 69.4989ZM198.189 51.4129L200.167 51.2904C201.533 51.2058 201.975 49.9491 201.71 45.6631C201.476 41.8952 200.812 41.0854 199.352 41.1758L197.562 41.2866L198.189 51.4129Z"/>
</mask>
<path d="M199.309 69.4989L191.915 69.9569L189.706 34.303L200.398 33.6408C206.756 33.247 208.644 36.2505 209.21 45.3877C209.788 54.7133 208.299 58.1624 201.941 58.5562L198.644 58.7604L199.309 69.4989ZM198.189 51.4129L200.167 51.2904C201.533 51.2058 201.975 49.9491 201.71 45.6631C201.476 41.8952 200.812 41.0854 199.352 41.1758L197.562 41.2866L198.189 51.4129Z" fill="url(#paint5_linear_538_4)"/>
<path d="M199.309 69.4989L199.371 70.497L200.369 70.4352L200.307 69.4371L199.309 69.4989ZM191.915 69.9569L190.917 70.0187L190.978 71.0168L191.976 70.955L191.915 69.9569ZM189.706 34.303L189.645 33.3049L188.647 33.3667L188.708 34.3648L189.706 34.303ZM198.644 58.7604L198.582 57.7623L197.584 57.8241L197.646 58.8222L198.644 58.7604ZM198.189 51.4129L197.191 51.4747L197.253 52.4728L198.251 52.411L198.189 51.4129ZM197.562 41.2866L197.5 40.2886L196.502 40.3504L196.564 41.3485L197.562 41.2866ZM199.247 68.5008L191.853 68.9588L191.976 70.955L199.371 70.497L199.247 68.5008ZM192.913 69.8951L190.705 34.2412L188.708 34.3648L190.917 70.0187L192.913 69.8951ZM189.768 35.3011L200.46 34.6389L200.336 32.6427L189.645 33.3049L189.768 35.3011ZM200.46 34.6389C203.483 34.4516 205.119 35.0837 206.167 36.5273C207.315 38.1104 207.928 40.8694 208.212 45.4495L210.208 45.3259C209.926 40.7689 209.312 37.4575 207.786 35.3529C206.158 33.109 203.671 32.4362 200.336 32.6427L200.46 34.6389ZM208.212 45.4495C208.502 50.1219 208.242 53.0525 207.292 54.8551C206.425 56.4997 204.877 57.3724 201.879 57.5581L202.003 59.5542C205.363 59.3461 207.739 58.2974 209.061 55.7876C210.301 53.4358 210.497 49.9791 210.208 45.3259L208.212 45.4495ZM201.879 57.5581L198.582 57.7623L198.706 59.7584L202.003 59.5542L201.879 57.5581ZM197.646 58.8222L198.311 69.5607L200.307 69.4371L199.642 58.6985L197.646 58.8222ZM198.251 52.411L200.229 52.2885L200.105 50.2923L198.127 50.4148L198.251 52.411ZM200.229 52.2885C200.725 52.2578 201.236 52.1118 201.673 51.7373C202.099 51.3721 202.354 50.8747 202.511 50.3294C202.813 49.2832 202.84 47.7371 202.708 45.6013L200.712 45.725C200.845 47.8752 200.784 49.1004 200.589 49.7752C200.499 50.0904 200.404 50.1908 200.371 50.219C200.349 50.2379 200.293 50.2807 200.105 50.2923L200.229 52.2885ZM202.708 45.6013C202.592 43.7256 202.365 42.3633 201.859 41.4769C201.584 40.994 201.209 40.6198 200.714 40.397C200.238 40.1832 199.742 40.1497 199.29 40.1777L199.413 42.1739C199.691 42.1567 199.826 42.1905 199.893 42.2209C199.94 42.2422 200.02 42.2891 200.122 42.4682C200.372 42.9062 200.595 43.8327 200.712 45.725L202.708 45.6013ZM199.29 40.1777L197.5 40.2886L197.624 42.2847L199.413 42.1739L199.29 40.1777ZM196.564 41.3485L197.191 51.4747L199.187 51.3511L198.56 41.2248L196.564 41.3485Z" fill="#141414" mask="url(#path-11-outside-6_538_4)"/>
<mask id="path-13-outside-7_538_4" maskUnits="userSpaceOnUse" x="217.786" y="29.07" width="22.2764" height="39.8277" fill="black">
<rect fill="white" x="217.786" y="29.07" width="22.2764" height="39.8277"/>
<path d="M238.614 65.9767L223.662 67.7187L219.528 32.2364L226.887 31.3791L230.103 58.9868L237.697 58.1022L238.614 65.9767Z"/>
</mask>
<path d="M238.614 65.9767L223.662 67.7187L219.528 32.2364L226.887 31.3791L230.103 58.9868L237.697 58.1022L238.614 65.9767Z" fill="url(#paint6_linear_538_4)"/>
<path d="M238.614 65.9767L238.73 66.97L239.723 66.8543L239.607 65.861L238.614 65.9767ZM223.662 67.7187L222.668 67.8344L222.784 68.8277L223.777 68.712L223.662 67.7187ZM219.528 32.2364L219.412 31.2432L218.419 31.3589L218.535 32.3522L219.528 32.2364ZM226.887 31.3791L227.88 31.2634L227.764 30.2701L226.771 30.3858L226.887 31.3791ZM230.103 58.9868L229.11 59.1025L229.226 60.0958L230.219 59.9801L230.103 58.9868ZM237.697 58.1022L238.69 57.9865L238.574 56.9932L237.581 57.1089L237.697 58.1022ZM238.498 64.9834L223.546 66.7254L223.777 68.712L238.73 66.97L238.498 64.9834ZM224.655 67.603L220.521 32.1207L218.535 32.3522L222.668 67.8344L224.655 67.603ZM219.644 33.2297L227.003 32.3724L226.771 30.3858L219.412 31.2432L219.644 33.2297ZM225.894 31.4948L229.11 59.1025L231.097 58.8711L227.88 31.2634L225.894 31.4948ZM230.219 59.9801L237.812 59.0955L237.581 57.1089L229.988 57.9935L230.219 59.9801ZM236.703 58.2179L237.621 66.0924L239.607 65.861L238.69 57.9865L236.703 58.2179Z" fill="#141414" mask="url(#path-13-outside-7_538_4)"/>
<mask id="path-15-outside-8_538_4" maskUnits="userSpaceOnUse" x="241.742" y="24.5201" width="29.1008" height="41.3451" fill="black">
<rect fill="white" x="241.742" y="24.5201" width="29.1008" height="41.3451"/>
<path d="M269.129 61.2514L261.595 62.5455L259.592 54.5104L256.058 55.1176L256.898 63.3523L249.549 64.6145L247.269 28.7608L259.547 26.6519L269.129 61.2514ZM258.045 47.4506L254.67 35.0546L254.159 35.1425L255.161 47.9459L258.045 47.4506Z"/>
</mask>
<path d="M269.129 61.2514L261.595 62.5455L259.592 54.5104L256.058 55.1176L256.898 63.3523L249.549 64.6145L247.269 28.7608L259.547 26.6519L269.129 61.2514ZM258.045 47.4506L254.67 35.0546L254.159 35.1425L255.161 47.9459L258.045 47.4506Z" fill="url(#paint7_linear_538_4)"/>
<path d="M269.129 61.2514L269.298 62.237L270.388 62.0498L270.093 60.9845L269.129 61.2514ZM261.595 62.5455L260.625 62.7873L260.849 63.6883L261.764 63.5311L261.595 62.5455ZM259.592 54.5104L260.563 54.2686L260.338 53.3677L259.423 53.5249L259.592 54.5104ZM256.058 55.1176L255.888 54.132L254.968 54.2901L255.063 55.219L256.058 55.1176ZM256.898 63.3523L257.067 64.3379L257.987 64.1798L257.892 63.2509L256.898 63.3523ZM249.549 64.6145L248.551 64.678L248.622 65.7884L249.719 65.6001L249.549 64.6145ZM247.269 28.7608L247.1 27.7752L246.214 27.9274L246.271 28.8243L247.269 28.7608ZM259.547 26.6519L260.511 26.385L260.27 25.5132L259.378 25.6663L259.547 26.6519ZM258.045 47.4506L258.214 48.4362L259.298 48.2499L259.009 47.188L258.045 47.4506ZM254.67 35.0546L255.635 34.792L255.397 33.9152L254.501 34.069L254.67 35.0546ZM254.159 35.1425L253.99 34.1569L253.091 34.3113L253.162 35.2205L254.159 35.1425ZM255.161 47.9459L254.164 48.0239L254.25 49.1171L255.33 48.9315L255.161 47.9459ZM268.96 60.2658L261.426 61.5599L261.764 63.5311L269.298 62.237L268.96 60.2658ZM262.565 62.3037L260.563 54.2686L258.622 54.7523L260.625 62.7873L262.565 62.3037ZM259.423 53.5249L255.888 54.132L256.227 56.1031L259.762 55.496L259.423 53.5249ZM255.063 55.219L255.903 63.4538L257.892 63.2509L257.053 55.0161L255.063 55.219ZM256.728 62.3668L249.38 63.6289L249.719 65.6001L257.067 64.3379L256.728 62.3668ZM250.547 64.551L248.267 28.6973L246.271 28.8243L248.551 64.678L250.547 64.551ZM247.439 29.7464L259.717 27.6374L259.378 25.6663L247.1 27.7752L247.439 29.7464ZM258.584 26.9188L268.165 61.5183L270.093 60.9845L260.511 26.385L258.584 26.9188ZM259.009 47.188L255.635 34.792L253.706 35.3172L257.08 47.7133L259.009 47.188ZM254.501 34.069L253.99 34.1569L254.328 36.128L254.84 36.0402L254.501 34.069ZM253.162 35.2205L254.164 48.0239L256.158 47.8679L255.156 35.0644L253.162 35.2205ZM255.33 48.9315L258.214 48.4362L257.875 46.465L254.992 46.9603L255.33 48.9315Z" fill="#141414" mask="url(#path-15-outside-8_538_4)"/>
<mask id="path-17-outside-9_538_4" maskUnits="userSpaceOnUse" x="271.873" y="18.1793" width="30.0915" height="42.0179" fill="black">
<rect fill="white" x="271.873" y="18.1793" width="30.0915" height="42.0179"/>
<path d="M300.67 54.4529L296.903 55.336L284.306 38.6104L284.031 38.675L288.403 57.3283L281.833 58.8682L273.681 24.0887L280.756 22.4302L288.459 33.372L288.734 33.3074L285.902 21.2241L292.518 19.6733L300.67 54.4529Z"/>
</mask>
<path d="M300.67 54.4529L296.903 55.336L284.306 38.6104L284.031 38.675L288.403 57.3283L281.833 58.8682L273.681 24.0887L280.756 22.4302L288.459 33.372L288.734 33.3074L285.902 21.2241L292.518 19.6733L300.67 54.4529Z" fill="url(#paint8_linear_538_4)"/>
<path d="M300.67 54.4529L300.898 55.4265L301.872 55.1983L301.644 54.2247L300.67 54.4529ZM296.903 55.336L296.104 55.9376L296.496 56.4584L297.131 56.3096L296.903 55.336ZM284.306 38.6104L285.105 38.0088L284.713 37.488L284.078 37.6368L284.306 38.6104ZM284.031 38.675L283.803 37.7014L282.829 37.9296L283.057 38.9032L284.031 38.675ZM288.403 57.3283L288.631 58.3019L289.605 58.0737L289.377 57.1001L288.403 57.3283ZM281.833 58.8682L280.859 59.0965L281.088 60.0701L282.061 59.8419L281.833 58.8682ZM273.681 24.0887L273.453 23.1151L272.479 23.3433L272.707 24.3169L273.681 24.0887ZM280.756 22.4302L281.574 21.8546L281.185 21.3026L280.528 21.4566L280.756 22.4302ZM288.459 33.372L287.641 33.9476L288.029 34.4997L288.687 34.3456L288.459 33.372ZM288.734 33.3074L288.962 34.281L289.936 34.0528L289.708 33.0791L288.734 33.3074ZM285.902 21.2241L285.674 20.2505L284.7 20.4787L284.928 21.4523L285.902 21.2241ZM292.518 19.6733L293.492 19.4451L293.263 18.4715L292.29 18.6997L292.518 19.6733ZM300.442 53.4793L296.675 54.3624L297.131 56.3096L300.898 55.4265L300.442 53.4793ZM297.702 54.7344L285.105 38.0088L283.508 39.212L296.104 55.9376L297.702 54.7344ZM284.078 37.6368L283.803 37.7014L284.259 39.6486L284.535 39.584L284.078 37.6368ZM283.057 38.9032L287.429 57.5565L289.377 57.1001L285.004 38.4468L283.057 38.9032ZM288.175 56.3547L281.605 57.8946L282.061 59.8419L288.631 58.3019L288.175 56.3547ZM282.807 58.64L274.654 23.8605L272.707 24.3169L280.859 59.0965L282.807 58.64ZM273.909 25.0623L280.984 23.4038L280.528 21.4566L273.453 23.1151L273.909 25.0623ZM279.939 23.0059L287.641 33.9476L289.276 32.7963L281.574 21.8546L279.939 23.0059ZM288.687 34.3456L288.962 34.281L288.506 32.3337L288.23 32.3984L288.687 34.3456ZM289.708 33.0791L286.876 20.9959L284.928 21.4523L287.761 33.5356L289.708 33.0791ZM286.13 22.1977L292.746 20.647L292.29 18.6997L285.674 20.2505L286.13 22.1977ZM291.544 19.9016L299.697 54.6811L301.644 54.2247L293.492 19.4451L291.544 19.9016Z" fill="#141414" mask="url(#path-17-outside-9_538_4)"/>
<mask id="path-19-outside-10_538_4" maskUnits="userSpaceOnUse" x="301.305" y="9.23274" width="31.5179" height="44.3231" fill="black">
<rect fill="white" x="301.305" y="9.23274" width="31.5179" height="44.3231"/>
<path d="M323.259 22.6356L317.378 24.382C317.289 23.9162 317.222 23.69 316.98 22.8757C316.349 20.7496 315.785 20.1785 314.066 20.689C312.347 21.1994 312.232 21.972 312.863 24.0981C313.454 26.0886 314.113 26.4836 315.446 26.8264C318.63 27.6037 320.56 27.4735 322.674 28.1257C325.081 28.937 326.456 30.2516 328.148 35.9515C330.566 44.0941 329.269 47.1866 322.348 49.2419C316.694 50.921 313.564 49.832 311.966 44.4488C311.455 42.7298 310.955 40.7126 310.904 39.5463L316.83 37.7865C316.847 38.1753 316.968 38.5824 317.115 39.08C317.895 41.7038 318.512 42.4558 320.321 41.9185C322.131 41.3811 322.363 40.6722 321.503 37.777C320.979 36.0128 320.28 35.482 318.804 34.9852C316.144 34.1506 313.092 34.3183 310.741 33.1953C308.402 32.1176 307.461 29.4437 306.117 24.92C304.21 18.4964 305.271 15.7693 312.011 13.7677C318.118 11.9542 320.813 13.0737 322.533 18.864C323.083 20.7187 323.275 21.6955 323.259 22.6356Z"/>
</mask>
<path d="M323.259 22.6356L317.378 24.382C317.289 23.9162 317.222 23.69 316.98 22.8757C316.349 20.7496 315.785 20.1785 314.066 20.689C312.347 21.1994 312.232 21.972 312.863 24.0981C313.454 26.0886 314.113 26.4836 315.446 26.8264C318.63 27.6037 320.56 27.4735 322.674 28.1257C325.081 28.937 326.456 30.2516 328.148 35.9515C330.566 44.0941 329.269 47.1866 322.348 49.2419C316.694 50.921 313.564 49.832 311.966 44.4488C311.455 42.7298 310.955 40.7126 310.904 39.5463L316.83 37.7865C316.847 38.1753 316.968 38.5824 317.115 39.08C317.895 41.7038 318.512 42.4558 320.321 41.9185C322.131 41.3811 322.363 40.6722 321.503 37.777C320.979 36.0128 320.28 35.482 318.804 34.9852C316.144 34.1506 313.092 34.3183 310.741 33.1953C308.402 32.1176 307.461 29.4437 306.117 24.92C304.21 18.4964 305.271 15.7693 312.011 13.7677C318.118 11.9542 320.813 13.0737 322.533 18.864C323.083 20.7187 323.275 21.6955 323.259 22.6356Z" fill="url(#paint9_linear_538_4)"/>
<path d="M323.259 22.6356L323.543 23.5943L324.246 23.3856L324.259 22.6529L323.259 22.6356ZM317.378 24.382L316.396 24.5698L316.603 25.6551L317.663 25.3406L317.378 24.382ZM315.446 26.8264L315.197 27.7949L315.209 27.7978L315.446 26.8264ZM322.674 28.1257L322.993 27.1781L322.981 27.174L322.969 27.1702L322.674 28.1257ZM310.904 39.5463L310.619 38.5877L309.871 38.8099L309.905 39.5899L310.904 39.5463ZM316.83 37.7865L317.829 37.7429L317.773 36.4633L316.545 36.8279L316.83 37.7865ZM318.804 34.9852L319.123 34.0374L319.113 34.0341L319.103 34.031L318.804 34.9852ZM310.741 33.1953L311.172 32.2929L311.159 32.2872L310.741 33.1953ZM322.974 21.677L317.093 23.4233L317.663 25.3406L323.543 23.5943L322.974 21.677ZM318.36 24.1941C318.26 23.6721 318.179 23.4 317.939 22.5911L316.021 23.1604C316.265 23.98 316.317 24.1602 316.396 24.5698L318.36 24.1941ZM317.939 22.5911C317.775 22.0407 317.603 21.5446 317.398 21.1261C317.194 20.7082 316.93 20.3095 316.552 20.0101C315.719 19.3489 314.722 19.451 313.781 19.7303L314.351 21.6476C315.129 21.4165 315.274 21.5489 315.309 21.5771C315.367 21.6224 315.469 21.7333 315.602 22.0045C315.734 22.2751 315.869 22.6477 316.021 23.1604L317.939 22.5911ZM313.781 19.7303C312.843 20.0092 311.951 20.4671 311.63 21.4871C311.486 21.9433 311.491 22.4189 311.552 22.8738C311.614 23.3306 311.742 23.8362 311.905 24.3828L313.822 23.8135C313.669 23.2971 313.575 22.9088 313.534 22.6067C313.493 22.3029 313.516 22.1548 313.537 22.0883C313.545 22.0628 313.571 21.8792 314.351 21.6476L313.781 19.7303ZM311.905 24.3828C312.218 25.4365 312.592 26.231 313.183 26.8002C313.784 27.3794 314.497 27.6149 315.197 27.7948L315.695 25.8579C315.062 25.6951 314.78 25.5617 314.57 25.3601C314.351 25.1485 314.1 24.7502 313.822 23.8135L311.905 24.3828ZM315.209 27.7978C316.86 28.2011 318.188 28.3685 319.335 28.5149C320.49 28.6624 321.417 28.7845 322.379 29.0812L322.969 27.1702C321.817 26.8147 320.722 26.6757 319.588 26.531C318.445 26.385 317.215 26.2289 315.683 25.8549L315.209 27.7978ZM322.354 29.0733C323.426 29.4345 324.177 29.8686 324.879 30.805C325.624 31.7998 326.351 33.4114 327.19 36.2361L329.107 35.6668C328.253 32.7916 327.446 30.8961 326.479 29.6057C325.469 28.2571 324.329 27.6282 322.993 27.1781L322.354 29.0733ZM327.19 36.2361C328.396 40.2996 328.565 42.7923 327.833 44.4819C327.131 46.1016 325.46 47.2745 322.063 48.2833L322.633 50.2005C326.157 49.1539 328.595 47.753 329.668 45.2769C330.71 42.8708 330.318 39.746 329.107 35.6668L327.19 36.2361ZM322.063 48.2833C319.297 49.1046 317.391 49.167 316.035 48.5769C314.732 48.0094 313.683 46.7202 312.924 44.1642L311.007 44.7335C311.847 47.5607 313.162 49.5075 315.237 50.4106C317.259 51.291 319.744 51.0583 322.633 50.2005L322.063 48.2833ZM312.924 44.1642C312.411 42.4352 311.948 40.5292 311.903 39.5026L309.905 39.5899C309.962 40.8959 310.5 43.0245 311.007 44.7335L312.924 44.1642ZM311.188 40.5049L317.114 38.7452L316.545 36.8279L310.619 38.5877L311.188 40.5049ZM315.831 37.8302C315.854 38.3669 316.019 38.9014 316.157 39.3647L318.074 38.7954C317.916 38.2635 317.839 37.9836 317.829 37.7429L315.831 37.8302ZM316.157 39.3647C316.356 40.0354 316.556 40.6258 316.78 41.1193C317.002 41.6088 317.274 42.0633 317.647 42.4136C318.043 42.785 318.515 43.0046 319.056 43.0645C319.567 43.1211 320.09 43.0303 320.606 42.8771L320.036 40.9598C319.648 41.0752 319.415 41.092 319.276 41.0767C319.169 41.0648 319.099 41.0331 319.016 40.9557C318.912 40.8572 318.77 40.6653 318.601 40.2926C318.434 39.924 318.264 39.4365 318.074 38.7954L316.157 39.3647ZM320.606 42.8771C321.554 42.5955 322.541 42.1514 322.873 41.0119C323.019 40.5117 323.006 39.9719 322.925 39.4245C322.844 38.8714 322.681 38.2302 322.462 37.4923L320.545 38.0617C320.755 38.7713 320.886 39.3045 320.946 39.7153C321.008 40.1319 320.984 40.3458 320.953 40.4519C320.932 40.5251 320.898 40.7041 320.036 40.9598L320.606 42.8771ZM322.462 37.4923C322.175 36.5265 321.805 35.7721 321.21 35.1907C320.621 34.6153 319.903 34.3001 319.123 34.0374L318.485 35.933C319.181 36.1671 319.551 36.3656 319.812 36.6209C320.067 36.8702 320.308 37.2632 320.545 38.0617L322.462 37.4923ZM319.103 34.031C317.677 33.5834 316.145 33.405 314.801 33.2089C313.408 33.0056 312.196 32.782 311.172 32.2929L310.31 34.0977C311.637 34.7317 313.126 34.9857 314.512 35.1879C315.947 35.3973 317.271 35.5523 318.504 35.9393L319.103 34.031ZM311.159 32.2872C310.262 31.8735 309.581 31.143 308.947 29.8968C308.3 28.6227 307.752 26.9117 307.076 24.6353L305.159 25.2046C305.826 27.452 306.421 29.3397 307.164 30.803C307.922 32.2941 308.881 33.4394 310.322 34.1035L311.159 32.2872ZM307.076 24.6353C306.127 21.439 306.034 19.4932 306.715 18.1335C307.386 16.7958 308.969 15.7143 312.296 14.7264L311.726 12.8091C308.313 13.8227 305.995 15.1056 304.927 17.2376C303.87 19.3478 304.2 21.9773 305.159 25.2046L307.076 24.6353ZM312.296 14.7264C315.317 13.829 317.198 13.7613 318.491 14.3694C319.744 14.9583 320.736 16.3277 321.574 19.1487L323.491 18.5793C322.609 15.61 321.395 13.5245 319.343 12.5595C317.331 11.6137 314.811 11.8929 311.726 12.8091L312.296 14.7264ZM321.574 19.1487C322.121 20.9896 322.272 21.8416 322.259 22.6184L324.259 22.6529C324.278 21.5495 324.046 20.4478 323.491 18.5793L321.574 19.1487Z" fill="#141414" mask="url(#path-19-outside-10_538_4)"/>
<defs>
<linearGradient id="paint0_linear_538_4" x1="12.6154" y1="-1.03773" x2="48.5425" y2="11.3482" gradientUnits="userSpaceOnUse">
<stop stop-color="#E0B5FC"/>
<stop offset="0.49" stop-color="#FFD87D"/>
<stop offset="1" stop-color="#554CFF"/>
</linearGradient>
<linearGradient id="paint1_linear_538_4" x1="38.229" y1="7.11193" x2="91.262" y2="22.4751" gradientUnits="userSpaceOnUse">
<stop stop-color="#E0B5FC"/>
<stop offset="0.49" stop-color="#FFD87D"/>
<stop offset="1" stop-color="#554CFF"/>
</linearGradient>
<linearGradient id="paint2_linear_538_4" x1="80.6177" y1="16.42" x2="117.928" y2="23.638" gradientUnits="userSpaceOnUse">
<stop stop-color="#E0B5FC"/>
<stop offset="0.49" stop-color="#FFD87D"/>
<stop offset="1" stop-color="#554CFF"/>
</linearGradient>
<linearGradient id="paint3_linear_538_4" x1="109.835" y1="20.829" x2="144.096" y2="25.3189" gradientUnits="userSpaceOnUse">
<stop stop-color="#E0B5FC"/>
<stop offset="0.49" stop-color="#FFD87D"/>
<stop offset="1" stop-color="#554CFF"/>
</linearGradient>
<linearGradient id="paint4_linear_538_4" x1="136.242" y1="23.4518" x2="177.561" y2="26.7314" gradientUnits="userSpaceOnUse">
<stop stop-color="#E0B5FC"/>
<stop offset="0.49" stop-color="#FFD87D"/>
<stop offset="1" stop-color="#554CFF"/>
</linearGradient>
<linearGradient id="paint5_linear_538_4" x1="183.81" y1="24.3707" x2="221.807" y2="23.7321" gradientUnits="userSpaceOnUse">
<stop stop-color="#E0B5FC"/>
<stop offset="0.49" stop-color="#FFD87D"/>
<stop offset="1" stop-color="#554CFF"/>
</linearGradient>
<linearGradient id="paint6_linear_538_4" x1="213.765" y1="22.5605" x2="244.771" y2="20.1025" gradientUnits="userSpaceOnUse">
<stop stop-color="#E0B5FC"/>
<stop offset="0.49" stop-color="#FFD87D"/>
<stop offset="1" stop-color="#554CFF"/>
</linearGradient>
<linearGradient id="paint7_linear_538_4" x1="237.59" y1="19.995" x2="275.296" y2="15.2551" gradientUnits="userSpaceOnUse">
<stop stop-color="#E0B5FC"/>
<stop offset="0.49" stop-color="#FFD87D"/>
<stop offset="1" stop-color="#554CFF"/>
</linearGradient>
<linearGradient id="paint8_linear_538_4" x1="266.087" y1="15.3123" x2="305.148" y2="8.07732" gradientUnits="userSpaceOnUse">
<stop stop-color="#E0B5FC"/>
<stop offset="0.49" stop-color="#FFD87D"/>
<stop offset="1" stop-color="#554CFF"/>
</linearGradient>
<linearGradient id="paint9_linear_538_4" x1="296.791" y1="8.20598" x2="330.29" y2="-0.265678" gradientUnits="userSpaceOnUse">
<stop stop-color="#E0B5FC"/>
<stop offset="0.49" stop-color="#FFD87D"/>
<stop offset="1" stop-color="#554CFF"/>
</linearGradient>
</defs>
</svg>
