<svg width="337" height="82" viewBox="0 0 337 82" fill="none" xmlns="http://www.w3.org/2000/svg">
<mask id="path-1-outside-1_2040_422" maskUnits="userSpaceOnUse" x="1.91673" y="5.97899" width="35.4716" height="48.9935" fill="black">
<rect fill="white" x="1.91673" y="5.97899" width="35.4716" height="48.9935"/>
<path d="M15.1559 50.0318L12.3046 49.1904L13.974 43.5329C8.76393 41.8479 6.84596 39.5107 8.10137 35.2563C8.47533 33.989 8.84112 32.9161 9.32934 31.9286L15.8015 33.8384L15.5744 34.6078C15.0536 36.373 15.0714 37.3131 16.9723 37.874C18.9637 38.4616 19.42 37.4155 19.8074 36.1029C20.1813 34.8356 19.9394 34.3215 18.8005 33.3458C16.7356 31.5064 14.1618 30.0581 12.5576 28.1579C10.9854 26.3164 11.136 24.6388 12.2846 20.7465C13.7938 15.6321 15.9255 14.2439 22.1476 15.8339L23.5766 10.9911L26.428 11.8325L24.9989 16.6753C30.0784 18.4694 31.5386 20.5239 30.2031 25.0499C29.9359 25.9551 29.6369 26.8017 29.3461 27.4539L22.8287 25.5307L23.1091 24.5802C23.5766 22.9961 23.3696 22.197 21.7402 21.7162C19.9751 21.1954 19.4045 21.9618 19.0439 23.1838C18.67 24.4511 18.9252 24.92 20.1999 25.9358C22.6536 27.7914 24.3571 28.6877 25.9775 30.1991C27.7924 31.7187 28.334 33.5513 27.092 37.7605C25.2756 43.9158 22.7841 45.6899 16.8387 44.3291L15.1559 50.0318Z"/>
</mask>
<path d="M15.1559 50.0318L12.3046 49.1904L13.974 43.5329C8.76393 41.8479 6.84596 39.5107 8.10137 35.2563C8.47533 33.989 8.84112 32.9161 9.32934 31.9286L15.8015 33.8384L15.5744 34.6078C15.0536 36.373 15.0714 37.3131 16.9723 37.874C18.9637 38.4616 19.42 37.4155 19.8074 36.1029C20.1813 34.8356 19.9394 34.3215 18.8005 33.3458C16.7356 31.5064 14.1618 30.0581 12.5576 28.1579C10.9854 26.3164 11.136 24.6388 12.2846 20.7465C13.7938 15.6321 15.9255 14.2439 22.1476 15.8339L23.5766 10.9911L26.428 11.8325L24.9989 16.6753C30.0784 18.4694 31.5386 20.5239 30.2031 25.0499C29.9359 25.9551 29.6369 26.8017 29.3461 27.4539L22.8287 25.5307L23.1091 24.5802C23.5766 22.9961 23.3696 22.197 21.7402 21.7162C19.9751 21.1954 19.4045 21.9618 19.0439 23.1838C18.67 24.4511 18.9252 24.92 20.1999 25.9358C22.6536 27.7914 24.3571 28.6877 25.9775 30.1991C27.7924 31.7187 28.334 33.5513 27.092 37.7605C25.2756 43.9158 22.7841 45.6899 16.8387 44.3291L15.1559 50.0318Z" fill="url(#paint0_linear_2040_422)"/>
<path d="M15.1559 50.0318L14.6217 51.8422L16.4321 52.3764L16.9663 50.566L15.1559 50.0318ZM12.3046 49.1904L10.4942 48.6562L9.95995 50.4666L11.7703 51.0008L12.3046 49.1904ZM13.974 43.5329L15.7844 44.0672L16.305 42.303L14.5548 41.737L13.974 43.5329ZM9.32934 31.9286L9.86356 30.1182L8.34084 29.6689L7.63725 31.0921L9.32934 31.9286ZM15.8015 33.8384L17.6119 34.3726L18.1461 32.5623L16.3357 32.028L15.8015 33.8384ZM18.8005 33.3458L17.545 34.7552L17.5586 34.7674L17.5725 34.7792L18.8005 33.3458ZM12.5576 28.1579L14 26.9403L13.9932 26.9323L12.5576 28.1579ZM22.1476 15.8339L21.6802 17.6627L23.443 18.1132L23.958 16.3682L22.1476 15.8339ZM23.5766 10.9911L24.1108 9.18074L22.3004 8.64652L21.7662 10.4569L23.5766 10.9911ZM26.428 11.8325L28.2384 12.3667L28.7726 10.5564L26.9622 10.0221L26.428 11.8325ZM24.9989 16.6753L23.1885 16.1411L22.6817 17.8587L24.3703 18.4551L24.9989 16.6753ZM29.3461 27.4539L28.8119 29.2643L30.3969 29.732L31.07 28.2227L29.3461 27.4539ZM22.8287 25.5307L21.0183 24.9964L20.484 26.8068L22.2944 27.3411L22.8287 25.5307ZM20.1999 25.9358L19.0236 27.412L19.0422 27.4269L19.0613 27.4413L20.1999 25.9358ZM25.9775 30.1991L24.6901 31.5795L24.727 31.6139L24.7658 31.6464L25.9775 30.1991ZM16.8387 44.3291L17.2599 42.4891L15.5304 42.0933L15.0283 43.7949L16.8387 44.3291ZM15.6902 48.2214L12.8388 47.38L11.7703 51.0008L14.6217 51.8422L15.6902 48.2214ZM14.115 49.7246L15.7844 44.0672L12.1636 42.9987L10.4942 48.6562L14.115 49.7246ZM14.5548 41.737C12.0508 40.9271 10.7467 40.0749 10.1348 39.2412C9.62212 38.5428 9.38852 37.5637 9.91177 35.7905L6.29098 34.7221C5.55881 37.2033 5.65649 39.52 7.09147 41.4751C8.4272 43.2948 10.6871 44.4537 13.3932 45.3289L14.5548 41.737ZM9.91177 35.7905C10.276 34.5561 10.6056 33.6062 11.0214 32.7651L7.63725 31.0921C7.07661 32.2261 6.67464 33.4219 6.29098 34.7221L9.91177 35.7905ZM8.79512 33.739L15.2673 35.6488L16.3357 32.028L9.86356 30.1182L8.79512 33.739ZM13.9911 33.3042L13.7641 34.0736L17.3848 35.1421L17.6119 34.3726L13.9911 33.3042ZM13.7641 34.0736C13.5208 34.8979 13.1844 36.1303 13.5762 37.2946C14.0491 38.6997 15.2795 39.3425 16.4381 39.6844L17.5065 36.0636C17.1496 35.9583 17.0236 35.8744 17.0074 35.8623C17.0059 35.8612 17.034 35.8822 17.07 35.9305C17.1074 35.9806 17.1362 36.0371 17.1542 36.0904C17.187 36.188 17.1573 36.1956 17.1796 36.0113C17.2024 35.8238 17.2634 35.5535 17.3848 35.1421L13.7641 34.0736ZM16.4381 39.6844C17.7421 40.0692 19.1217 40.074 20.2188 39.135C21.1157 38.3673 21.4448 37.2234 21.6177 36.6371L17.997 35.5687C17.9044 35.8822 17.8362 36.0779 17.7723 36.214C17.7106 36.3454 17.6961 36.3251 17.7639 36.267C17.8012 36.2351 17.8493 36.204 17.903 36.1812C17.9557 36.1587 17.9912 36.1539 17.9958 36.1533C17.9979 36.1531 17.963 36.1571 17.8804 36.147C17.7972 36.1368 17.6749 36.1133 17.5065 36.0636L16.4381 39.6844ZM21.6177 36.6371C21.8462 35.8629 22.0114 34.9286 21.6347 33.9419C21.2931 33.047 20.6065 32.4074 20.0285 31.9123L17.5725 34.7792C17.8296 34.9995 17.9756 35.1432 18.0615 35.2428C18.1408 35.3347 18.1292 35.3443 18.1078 35.2881C18.0433 35.1192 18.1424 35.0757 17.997 35.5687L21.6177 36.6371ZM20.056 31.9363C18.9468 30.9482 17.683 30.0506 16.6414 29.2666C15.5449 28.4413 14.6527 27.7135 14 26.9403L11.1153 29.3756C12.0667 30.5026 13.2635 31.449 14.3712 32.2828C15.5337 33.1578 16.5893 33.904 17.545 34.7552L20.056 31.9363ZM13.9932 26.9323C13.4626 26.3108 13.297 25.8465 13.2882 25.1958C13.2772 24.3809 13.516 23.2428 14.095 21.2807L10.4742 20.2122C9.90464 22.1425 9.49381 23.7893 9.51343 25.2467C9.53527 26.8682 10.0805 28.1635 11.1221 29.3835L13.9932 26.9323ZM14.095 21.2807C14.8246 18.8082 15.5504 17.8548 16.3265 17.4471C17.1569 17.0109 18.6288 16.883 21.6802 17.6627L22.6149 14.0051C19.4442 13.1949 16.7393 12.966 14.5709 14.105C12.3484 15.2725 11.2538 17.5703 10.4742 20.2122L14.095 21.2807ZM23.958 16.3682L25.387 11.5253L21.7662 10.4569L20.3372 15.2997L23.958 16.3682ZM23.0424 12.8015L25.8938 13.6429L26.9622 10.0221L24.1108 9.18074L23.0424 12.8015ZM24.6176 11.2983L23.1885 16.1411L26.8093 17.2095L28.2384 12.3667L24.6176 11.2983ZM24.3703 18.4551C26.8499 19.3309 27.9467 20.12 28.4161 20.8545C28.8136 21.4767 28.9998 22.4583 28.3927 24.5157L32.0134 25.5841C32.7419 23.1156 32.8657 20.8069 31.5972 18.8218C30.4005 16.949 28.2274 15.8138 25.6276 14.8955L24.3703 18.4551ZM28.3927 24.5157C28.1402 25.3712 27.8682 26.1333 27.6222 26.6851L31.07 28.2227C31.4056 27.47 31.7317 26.539 32.0134 25.5841L28.3927 24.5157ZM29.8803 25.6435L23.3629 23.7203L22.2944 27.3411L28.8119 29.2643L29.8803 25.6435ZM24.6391 26.0649L24.9195 25.1144L21.2987 24.046L21.0183 24.9964L24.6391 26.0649ZM24.9195 25.1144C25.1642 24.2854 25.427 23.1091 24.9449 21.9885C24.4119 20.7496 23.2692 20.1994 22.2744 19.9058L21.206 23.5266C21.5026 23.6141 21.6142 23.6828 21.6316 23.6949C21.6349 23.6972 21.61 23.6803 21.5748 23.6389C21.538 23.5957 21.5032 23.5411 21.4771 23.4804C21.4242 23.3576 21.4453 23.3019 21.4384 23.4033C21.4308 23.5144 21.3969 23.7133 21.2987 24.046L24.9195 25.1144ZM22.2744 19.9058C21.1391 19.5708 19.8799 19.4998 18.7999 20.2384C17.8149 20.9119 17.4321 21.9765 17.2335 22.6496L20.8543 23.718C20.9251 23.4782 20.9812 23.3502 21.0164 23.2873C21.0466 23.2334 21.0275 23.2885 20.9309 23.3545C20.8837 23.3868 20.8344 23.4102 20.7902 23.4245C20.7475 23.4384 20.7251 23.4389 20.7335 23.4384C20.7595 23.4369 20.9006 23.4365 21.206 23.5266L22.2744 19.9058ZM17.2335 22.6496C17.0064 23.4192 16.8274 24.3906 17.2747 25.4116C17.6613 26.2939 18.4098 26.9229 19.0236 27.412L21.3762 24.4596C21.0779 24.2218 20.9021 24.065 20.7939 23.9517C20.6908 23.8438 20.7039 23.8312 20.7325 23.8966C20.7476 23.931 20.7602 23.9715 20.7675 24.0125C20.7746 24.0522 20.7738 24.0757 20.7738 24.0749C20.7744 24.0598 20.782 23.963 20.8543 23.718L17.2335 22.6496ZM19.0613 27.4413C20.3314 28.4018 21.4245 29.1262 22.3295 29.7504C23.2481 30.3839 23.9852 30.922 24.6901 31.5795L27.265 28.8188C26.3495 27.9648 25.4246 27.2991 24.4728 26.6427C23.5076 25.977 22.5221 25.3254 21.3385 24.4303L19.0613 27.4413ZM24.7658 31.6464C25.4229 32.1966 25.7106 32.6661 25.8222 33.2989C25.9536 34.0444 25.8737 35.2196 25.2816 37.2263L28.9024 38.2947C29.5523 36.0922 29.8226 34.2465 29.54 32.6435C29.2375 30.9278 28.347 29.7212 27.1893 28.7519L24.7658 31.6464ZM25.2816 37.2263C24.3977 40.2214 23.4788 41.6302 22.4799 42.284C21.5393 42.8998 20.0716 43.1326 17.2599 42.4891L16.4176 46.1691C19.5512 46.8863 22.302 46.9125 24.5475 45.4426C26.7349 44.0108 27.9698 41.4549 28.9024 38.2947L25.2816 37.2263ZM15.0283 43.7949L13.3455 49.4976L16.9663 50.566L18.6491 44.8633L15.0283 43.7949Z" fill="#141414" mask="url(#path-1-outside-1_2040_422)"/>
<mask id="path-3-outside-2_2040_422" maskUnits="userSpaceOnUse" x="33.0451" y="16.3636" width="40.822" height="46.1549" fill="black">
<rect fill="white" x="33.0451" y="16.3636" width="40.822" height="46.1549"/>
<path d="M63.5327 60.0875L56.896 58.6279L61.4981 37.7041L61.2215 37.6433L51.3194 57.4013L48.1394 56.7019L47.3952 34.6023L47.1187 34.5415L42.5167 55.4652L35.9262 54.0157L43.5996 19.1274L53.831 21.3777L53.7222 37.2501L54.0448 37.321L60.9746 22.9489L71.16 25.1891L63.5327 60.0875Z"/>
</mask>
<path d="M63.5327 60.0875L56.896 58.6279L61.4981 37.7041L61.2215 37.6433L51.3194 57.4013L48.1394 56.7019L47.3952 34.6023L47.1187 34.5415L42.5167 55.4652L35.9262 54.0157L43.5996 19.1274L53.831 21.3777L53.7222 37.2501L54.0448 37.321L60.9746 22.9489L71.16 25.1891L63.5327 60.0875Z" fill="url(#paint1_linear_2040_422)"/>
<path d="M63.5327 60.0875L63.1272 61.931L64.9731 62.337L65.3767 60.4906L63.5327 60.0875ZM56.896 58.6279L55.0525 58.2224L54.6471 60.0659L56.4906 60.4714L56.896 58.6279ZM61.4981 37.7041L63.3416 38.1095L63.747 36.266L61.9035 35.8606L61.4981 37.7041ZM61.2215 37.6433L61.627 35.7997L60.1922 35.4842L59.534 36.7975L61.2215 37.6433ZM51.3194 57.4013L50.914 59.2448L52.3487 59.5604L53.0069 58.247L51.3194 57.4013ZM48.1394 56.7019L46.2529 56.7654L46.3022 58.2305L47.7339 58.5454L48.1394 56.7019ZM47.3952 34.6023L49.2817 34.5387L49.2324 33.0737L47.8007 32.7588L47.3952 34.6023ZM47.1187 34.5415L47.5242 32.6979L45.6807 32.2925L45.2752 34.136L47.1187 34.5415ZM42.5167 55.4652L42.1112 57.3087L43.9547 57.7142L44.3602 55.8707L42.5167 55.4652ZM35.9262 54.0157L34.0827 53.6102L33.6772 55.4537L35.5207 55.8592L35.9262 54.0157ZM43.5996 19.1274L44.005 17.2839L42.1615 16.8784L41.7561 18.7219L43.5996 19.1274ZM53.831 21.3777L55.7186 21.3906L55.729 19.8625L54.2365 19.5342L53.831 21.3777ZM53.7222 37.2501L51.8347 37.2371L51.8242 38.7653L53.3168 39.0936L53.7222 37.2501ZM54.0448 37.321L53.6394 39.1645L55.0969 39.4851L55.7451 38.1408L54.0448 37.321ZM60.9746 22.9489L61.3801 21.1054L59.9225 20.7848L59.2744 22.1291L60.9746 22.9489ZM71.16 25.1891L73.004 25.5921L73.4065 23.7505L71.5654 23.3455L71.16 25.1891ZM63.9381 58.244L57.3015 56.7843L56.4906 60.4714L63.1272 61.931L63.9381 58.244ZM58.7395 59.0333L63.3416 38.1095L59.6546 37.2986L55.0525 58.2224L58.7395 59.0333ZM61.9035 35.8606L61.627 35.7997L60.8161 39.4868L61.0926 39.5476L61.9035 35.8606ZM59.534 36.7975L49.6319 56.5556L53.0069 58.247L62.909 38.489L59.534 36.7975ZM51.7249 55.5578L48.5449 54.8584L47.7339 58.5454L50.914 59.2448L51.7249 55.5578ZM50.0259 56.6384L49.2817 34.5387L45.5087 34.6658L46.2529 56.7654L50.0259 56.6384ZM47.8007 32.7588L47.5242 32.6979L46.7133 36.385L46.9898 36.4458L47.8007 32.7588ZM45.2752 34.136L40.6732 55.0598L44.3602 55.8707L48.9622 34.9469L45.2752 34.136ZM42.9222 53.6217L36.3316 52.1722L35.5207 55.8592L42.1112 57.3087L42.9222 53.6217ZM37.7697 54.4212L45.4431 19.5328L41.7561 18.7219L34.0827 53.6102L37.7697 54.4212ZM43.1941 20.9709L53.4256 23.2212L54.2365 19.5342L44.005 17.2839L43.1941 20.9709ZM51.9435 21.3648L51.8347 37.2371L55.6097 37.263L55.7186 21.3906L51.9435 21.3648ZM53.3168 39.0936L53.6394 39.1645L54.4503 35.4775L54.1277 35.4066L53.3168 39.0936ZM55.7451 38.1408L62.6749 23.7687L59.2744 22.1291L52.3446 36.5012L55.7451 38.1408ZM60.5692 24.7924L70.7545 27.0326L71.5654 23.3455L61.3801 21.1054L60.5692 24.7924ZM69.3159 24.786L61.6886 59.6845L65.3767 60.4906L73.004 25.5921L69.3159 24.786Z" fill="#141414" mask="url(#path-3-outside-2_2040_422)"/>
<mask id="path-5-outside-3_2040_422" maskUnits="userSpaceOnUse" x="77.0198" y="24.2409" width="29.8567" height="45.0456" fill="black">
<rect fill="white" x="77.0198" y="24.2409" width="29.8567" height="45.0456"/>
<path d="M97.1769 63.3893C95.6403 65.4051 93.4363 65.7963 88.9544 65.137C84.4258 64.4709 82.4279 63.4616 81.5368 61.0887C80.6389 58.7626 80.4412 56.5395 82.0756 45.428C83.7101 34.3165 84.5258 32.3379 86.0624 30.3221C87.5922 28.3531 89.803 27.9151 94.3316 28.5813C98.8135 29.2405 100.805 30.2966 101.703 32.6227C102.594 34.9955 102.805 37.1253 101.171 48.2368C99.5361 59.3482 98.7066 61.4203 97.1769 63.3893ZM92.0594 56.6744C92.4769 55.7819 92.8024 54.542 93.9149 46.9787C95.0617 39.182 95.1071 37.9009 94.9575 36.9726C94.8133 36.3313 94.4343 35.9894 93.2672 35.8177C92.1 35.646 91.5919 35.8575 91.3159 36.437C90.8586 37.2759 90.5331 38.5159 89.3863 46.3126C88.2737 53.8758 88.2284 55.157 88.4178 56.1388C88.5153 56.7732 88.9478 57.0753 90.115 57.247C91.2822 57.4187 91.7367 57.247 92.0594 56.6744Z"/>
</mask>
<path d="M97.1769 63.3893C95.6403 65.4051 93.4363 65.7963 88.9544 65.137C84.4258 64.4709 82.4279 63.4616 81.5368 61.0887C80.6389 58.7626 80.4412 56.5395 82.0756 45.428C83.7101 34.3165 84.5258 32.3379 86.0624 30.3221C87.5922 28.3531 89.803 27.9151 94.3316 28.5813C98.8135 29.2405 100.805 30.2966 101.703 32.6227C102.594 34.9955 102.805 37.1253 101.171 48.2368C99.5361 59.3482 98.7066 61.4203 97.1769 63.3893ZM92.0594 56.6744C92.4769 55.7819 92.8024 54.542 93.9149 46.9787C95.0617 39.182 95.1071 37.9009 94.9575 36.9726C94.8133 36.3313 94.4343 35.9894 93.2672 35.8177C92.1 35.646 91.5919 35.8575 91.3159 36.437C90.8586 37.2759 90.5331 38.5159 89.3863 46.3126C88.2737 53.8758 88.2284 55.157 88.4178 56.1388C88.5153 56.7732 88.9478 57.0753 90.115 57.247C91.2822 57.4187 91.7367 57.247 92.0594 56.6744Z" fill="url(#paint2_linear_2040_422)"/>
<path d="M97.1769 63.3893L95.6863 62.2313L95.681 62.2381L95.6758 62.245L97.1769 63.3893ZM81.5368 61.0887L83.3039 60.4251L83.3008 60.417L83.2977 60.409L81.5368 61.0887ZM86.0624 30.3221L84.5718 29.1641L84.5665 29.1709L84.5613 29.1778L86.0624 30.3221ZM101.703 32.6227L103.47 31.9591L103.467 31.951L103.463 31.943L101.703 32.6227ZM92.0594 56.6744L93.7038 57.6012L93.7389 57.5389L93.7692 57.4742L92.0594 56.6744ZM94.9575 36.9726L96.821 36.6722L96.8118 36.6151L96.7991 36.5586L94.9575 36.9726ZM91.3159 36.437L92.9732 37.3403L92.9979 37.2951L93.02 37.2487L91.3159 36.437ZM88.4178 56.1388L90.2835 55.8521L90.278 55.8165L90.2712 55.7811L88.4178 56.1388ZM95.6758 62.245C95.1832 62.8911 94.6462 63.2418 93.7908 63.4173C92.8217 63.6161 91.4188 63.5917 89.2291 63.2696L88.6797 67.0045C90.972 67.3417 92.912 67.4513 94.5495 67.1154C96.3007 66.7561 97.6339 65.9033 98.678 64.5337L95.6758 62.245ZM89.2291 63.2696C87.0146 62.9438 85.6519 62.5612 84.7748 62.0901C84.0014 61.6746 83.5891 61.1846 83.3039 60.4251L79.7697 61.7523C80.3756 63.3657 81.4078 64.5668 82.9883 65.4158C84.465 66.209 86.3656 66.6641 88.6797 67.0045L89.2291 63.2696ZM83.2977 60.409C82.6085 58.6236 82.2947 56.9095 83.9431 45.7027L80.2082 45.1533C78.5877 56.1695 78.6692 58.9016 79.7759 61.7685L83.2977 60.409ZM83.9431 45.7027C85.5895 34.5104 86.3693 33.0331 87.5636 31.4665L84.5613 29.1778C82.6823 31.6426 81.8307 34.1227 80.2082 45.1533L83.9431 45.7027ZM87.553 31.4802C88.0428 30.8498 88.5857 30.4926 89.4567 30.3116C90.4343 30.1083 91.8523 30.1245 94.0569 30.4487L94.6063 26.7138C92.2823 26.3719 90.3306 26.274 88.6882 26.6155C86.9392 26.9791 85.6119 27.8254 84.5718 29.1641L87.553 31.4802ZM94.0569 30.4487C96.2366 30.7694 97.587 31.1602 98.4584 31.6347C99.2356 32.0578 99.6537 32.5567 99.9416 33.3025L103.463 31.943C102.853 30.3626 101.827 29.1704 100.264 28.3192C98.7946 27.5192 96.9085 27.0525 94.6063 26.7138L94.0569 30.4487ZM99.9354 33.2863C100.628 35.1305 100.949 36.7698 99.3031 47.9621L103.038 48.5115C104.661 37.4808 104.559 34.8606 103.47 31.9591L99.9354 33.2863ZM99.3031 47.9621C97.6546 59.1688 96.8604 60.72 95.6863 62.2313L98.6675 64.5474C100.553 62.1206 101.418 59.5276 103.038 48.5115L99.3031 47.9621ZM93.7692 57.4742C94.3336 56.2675 94.6895 54.6827 95.7823 47.2534L92.0474 46.704C90.9152 54.4013 90.6202 55.2963 90.3496 55.8747L93.7692 57.4742ZM95.7823 47.2534C96.3556 43.3564 96.6602 41.0444 96.8012 39.5811C96.943 38.1098 96.9336 37.3711 96.821 36.6722L93.0939 37.273C93.1309 37.5024 93.1737 37.8684 93.0435 39.2189C92.9126 40.5774 92.621 42.8043 92.0474 46.704L95.7823 47.2534ZM96.7991 36.5586C96.656 35.9224 96.3314 35.2171 95.6022 34.6897C94.9729 34.2345 94.2234 34.0505 93.5418 33.9503L92.9925 37.6852C93.2157 37.718 93.3464 37.7514 93.4152 37.774C93.4819 37.7959 93.456 37.7965 93.3897 37.7485C93.3554 37.7237 93.3153 37.6895 93.2747 37.6451C93.2339 37.6006 93.1999 37.5537 93.1729 37.5082C93.1196 37.4182 93.1101 37.3613 93.1158 37.3866L96.7991 36.5586ZM93.5418 33.9503C92.8616 33.8502 92.0862 33.8098 91.3533 34.0573C90.4882 34.3495 89.9333 34.9502 89.6118 35.6252L93.02 37.2487C93.0111 37.2673 92.9676 37.3511 92.8675 37.4455C92.7614 37.5454 92.6472 37.605 92.5614 37.634C92.4883 37.6587 92.4708 37.6494 92.55 37.6477C92.6296 37.6459 92.7696 37.6524 92.9925 37.6852L93.5418 33.9503ZM89.6585 35.5336C89.2949 36.2008 89.0543 36.9386 88.7598 38.3903C88.4664 39.8365 88.0917 42.1431 87.5188 46.0379L91.2537 46.5873C91.8277 42.6853 92.1892 40.4737 92.4595 39.1409C92.7288 37.8137 92.8796 37.5121 92.9732 37.3403L89.6585 35.5336ZM87.5188 46.0379C86.963 49.8164 86.6661 52.0753 86.534 53.5222C86.4007 54.9831 86.4208 55.7519 86.5645 56.4964L90.2712 55.7811C90.2254 55.5439 90.1734 55.1812 90.2936 53.8653C90.4149 52.5353 90.697 50.372 91.2537 46.5873L87.5188 46.0379ZM86.5522 56.4254C86.6703 57.1942 87.0542 57.931 87.8231 58.4402C88.4498 58.8552 89.1947 59.0195 89.8403 59.1145L90.3897 55.3795C90.1537 55.3448 90.0056 55.3105 89.9177 55.2839C89.8288 55.257 89.8439 55.2505 89.9075 55.2926C89.9845 55.3436 90.0905 55.4382 90.1764 55.5807C90.258 55.716 90.2793 55.8248 90.2835 55.8521L86.5522 56.4254ZM89.8403 59.1145C90.4865 59.2095 91.2425 59.2662 91.9631 59.0426C92.8327 58.7729 93.3688 58.1956 93.7038 57.6012L90.415 55.7477C90.4063 55.7631 90.4403 55.6977 90.5333 55.6155C90.58 55.5742 90.6337 55.5357 90.6924 55.503C90.7507 55.4706 90.8034 55.4498 90.8446 55.437C90.9224 55.4129 90.9422 55.4226 90.8579 55.4229C90.7727 55.4233 90.6261 55.4143 90.3897 55.3795L89.8403 59.1145Z" fill="#141414" mask="url(#path-5-outside-3_2040_422)"/>
<mask id="path-7-outside-4_2040_422" maskUnits="userSpaceOnUse" x="107.686" y="28.4274" width="26.6558" height="43.8847" fill="black">
<rect fill="white" x="107.686" y="28.4274" width="26.6558" height="43.8847"/>
<path d="M130.004 44.5158L123.893 43.9685C123.983 43.5027 124.004 43.2676 124.079 42.4216C124.277 40.2126 123.964 39.4739 122.178 39.3139C120.392 39.1539 120 39.8294 119.802 42.0385C119.617 44.1065 120.084 44.7168 121.195 45.5271C123.868 47.4248 125.71 48.0162 127.434 49.4025C129.371 51.0448 130.164 52.774 129.633 58.6961C128.876 67.1563 126.529 69.5519 119.338 68.9076C113.463 68.3813 110.956 66.2143 111.457 60.6212C111.617 58.8351 111.897 56.7755 112.28 55.6727L118.437 56.2243C118.309 56.5919 118.271 57.0149 118.225 57.5319C117.981 60.258 118.277 61.1847 120.157 61.3531C122.037 61.5215 122.514 60.9484 122.784 57.9404C122.948 56.1073 122.494 55.356 121.305 54.3493C119.141 52.5919 116.243 51.6217 114.472 49.71C112.697 47.8453 112.808 45.0126 113.229 40.3125C113.827 33.6384 115.82 31.4954 122.823 32.1227C129.168 32.6912 131.26 34.7263 130.721 40.7424C130.548 42.6695 130.366 43.6481 130.004 44.5158Z"/>
</mask>
<path d="M130.004 44.5158L123.893 43.9685C123.983 43.5027 124.004 43.2676 124.079 42.4216C124.277 40.2126 123.964 39.4739 122.178 39.3139C120.392 39.1539 120 39.8294 119.802 42.0385C119.617 44.1065 120.084 44.7168 121.195 45.5271C123.868 47.4248 125.71 48.0162 127.434 49.4025C129.371 51.0448 130.164 52.774 129.633 58.6961C128.876 67.1563 126.529 69.5519 119.338 68.9076C113.463 68.3813 110.956 66.2143 111.457 60.6212C111.617 58.8351 111.897 56.7755 112.28 55.6727L118.437 56.2243C118.309 56.5919 118.271 57.0149 118.225 57.5319C117.981 60.258 118.277 61.1847 120.157 61.3531C122.037 61.5215 122.514 60.9484 122.784 57.9404C122.948 56.1073 122.494 55.356 121.305 54.3493C119.141 52.5919 116.243 51.6217 114.472 49.71C112.697 47.8453 112.808 45.0126 113.229 40.3125C113.827 33.6384 115.82 31.4954 122.823 32.1227C129.168 32.6912 131.26 34.7263 130.721 40.7424C130.548 42.6695 130.366 43.6481 130.004 44.5158Z" fill="url(#paint3_linear_2040_422)"/>
<path d="M130.004 44.5158L129.835 46.3959L131.213 46.5193L131.746 45.2426L130.004 44.5158ZM123.893 43.9685L122.04 43.6138L121.648 45.6624L123.725 45.8485L123.893 43.9685ZM121.195 45.5271L120.084 47.0526L120.093 47.0594L120.103 47.0662L121.195 45.5271ZM127.434 49.4025L128.654 47.9626L128.636 47.9468L128.617 47.9316L127.434 49.4025ZM112.28 55.6727L112.448 53.7927L110.98 53.6612L110.497 55.0534L112.28 55.6727ZM118.437 56.2243L120.22 56.8437L121.013 54.56L118.605 54.3443L118.437 56.2243ZM121.305 54.3493L122.525 52.9087L122.51 52.8962L122.495 52.884L121.305 54.3493ZM114.472 49.71L115.857 48.4271L115.848 48.4177L115.839 48.4084L114.472 49.71ZM130.172 42.6358L124.062 42.0884L123.725 45.8485L129.835 46.3959L130.172 42.6358ZM125.747 44.3231C125.857 43.7512 125.885 43.4256 125.959 42.5901L122.199 42.2532C122.123 43.1097 122.108 43.2541 122.04 43.6138L125.747 44.3231ZM125.959 42.5901C126.012 42.0009 126.04 41.4192 125.999 40.8819C125.958 40.3458 125.84 39.7326 125.509 39.1578C124.753 37.8437 123.399 37.5281 122.347 37.4338L122.01 41.1939C122.174 41.2086 122.291 41.2274 122.371 41.2453C122.452 41.2632 122.48 41.2767 122.475 41.2743C122.432 41.2547 122.315 41.177 122.237 41.0409C122.183 40.9469 122.217 40.9426 122.235 41.1713C122.253 41.3988 122.246 41.7379 122.199 42.2532L125.959 42.5901ZM122.347 37.4338C121.298 37.3399 119.898 37.4079 118.931 38.596C118.515 39.1076 118.302 39.691 118.174 40.2022C118.046 40.7167 117.974 41.2881 117.922 41.87L121.682 42.2069C121.729 41.6843 121.781 41.3429 121.838 41.1144C121.895 40.8826 121.929 40.893 121.859 40.9795C121.818 41.0295 121.76 41.0829 121.69 41.1266C121.622 41.169 121.57 41.1849 121.555 41.1888C121.547 41.1907 121.662 41.1628 122.01 41.1939L122.347 37.4338ZM117.922 41.87C117.819 43.0188 117.86 44.0789 118.294 45.0343C118.738 46.0142 119.475 46.6092 120.084 47.0526L122.307 44.0016C121.804 43.6348 121.752 43.5195 121.731 43.4746C121.7 43.4053 121.6 43.1262 121.682 42.2069L117.922 41.87ZM120.103 47.0662C121.534 48.0822 122.745 48.7488 123.757 49.3085C124.785 49.8768 125.535 50.2979 126.251 50.8733L128.617 47.9316C127.609 47.1208 126.576 46.553 125.584 46.0046C124.576 45.4476 123.53 44.8697 122.288 43.988L120.103 47.0662ZM126.213 50.8424C126.982 51.4936 127.391 52.0301 127.638 52.9389C127.92 53.9803 128.014 55.6161 127.753 58.5277L131.513 58.8645C131.783 55.854 131.746 53.6642 131.281 51.9499C130.779 50.1029 129.824 48.9537 128.654 47.9626L126.213 50.8424ZM127.753 58.5277C127.376 62.7424 126.624 64.8239 125.565 65.8795C124.609 66.8334 122.977 67.3385 119.506 67.0276L119.169 70.7877C122.89 71.121 126.027 70.7504 128.231 68.5526C130.333 66.4564 131.133 63.1101 131.513 58.8645L127.753 58.5277ZM119.506 67.0276C116.689 66.7752 115.16 66.1539 114.345 65.334C113.606 64.5903 113.111 63.3203 113.337 60.7896L109.577 60.4527C109.303 63.5152 109.81 66.1252 111.667 67.9949C113.45 69.7884 116.112 70.5138 119.169 70.7877L119.506 67.0276ZM113.337 60.7896C113.499 58.984 113.766 57.1456 114.063 56.2921L110.497 55.0534C110.027 56.4054 109.735 58.6862 109.577 60.4527L113.337 60.7896ZM112.111 57.5528L118.268 58.1044L118.605 54.3443L112.448 53.7927L112.111 57.5528ZM116.654 55.605C116.434 56.2366 116.385 56.9137 116.345 57.3635L120.105 57.7004C120.157 57.1161 120.184 56.9472 120.22 56.8437L116.654 55.605ZM116.345 57.3635C116.281 58.0741 116.245 58.7441 116.274 59.3462C116.303 59.9399 116.399 60.5926 116.685 61.2035C116.997 61.8673 117.49 62.389 118.142 62.7353C118.742 63.0542 119.393 63.1799 119.988 63.2332L120.325 59.4731C119.98 59.4422 119.889 59.3888 119.913 59.4014C119.988 59.4414 120.07 59.5295 120.103 59.5998C120.111 59.6172 120.062 59.5166 120.045 59.1645C120.028 58.821 120.046 58.3528 120.105 57.7004L116.345 57.3635ZM119.988 63.2332C121.013 63.325 122.531 63.3231 123.563 61.9979C123.995 61.4432 124.22 60.796 124.361 60.2005C124.504 59.5943 124.594 58.8885 124.664 58.1088L120.904 57.7719C120.839 58.4962 120.768 58.9901 120.687 59.3321C120.604 59.6849 120.541 59.7344 120.585 59.6779C120.674 59.5634 120.81 59.496 120.872 59.481C120.877 59.4796 120.842 59.4887 120.745 59.4914C120.648 59.4941 120.513 59.4899 120.325 59.4731L119.988 63.2332ZM124.664 58.1088C124.761 57.0282 124.7 56.0198 124.277 55.0675C123.859 54.1299 123.184 53.4668 122.525 52.9087L120.086 55.7899C120.615 56.2385 120.762 56.4545 120.828 56.6024C120.887 56.7357 120.971 57.0195 120.904 57.7719L124.664 58.1088ZM122.495 52.884C121.265 51.8848 119.825 51.11 118.684 50.4522C117.462 49.7478 116.527 49.1502 115.857 48.4271L113.087 50.9929C114.189 52.1815 115.588 53.0248 116.799 53.7228C118.09 54.4674 119.182 55.0564 120.115 55.8146L122.495 52.884ZM115.839 48.4084C115.341 47.8851 115.024 47.1713 114.906 45.9007C114.784 44.5714 114.896 42.8595 115.109 40.481L111.349 40.1441C111.141 42.4657 110.988 44.5202 111.147 46.2484C111.313 48.0353 111.828 49.6702 113.105 51.0116L115.839 48.4084ZM115.109 40.481C115.406 37.1743 116.023 35.6525 116.88 34.8883C117.703 34.1547 119.237 33.6967 122.654 34.0028L122.991 30.2427C119.405 29.9214 116.442 30.2212 114.368 32.0709C112.328 33.8898 111.651 36.7766 111.349 40.1441L115.109 40.481ZM122.654 34.0028C125.765 34.2814 127.24 34.8952 127.976 35.6807C128.654 36.4042 129.097 37.7114 128.841 40.574L132.601 40.9109C132.883 37.7573 132.549 35.0389 130.73 33.0987C128.969 31.2204 126.226 30.5325 122.991 30.2427L122.654 34.0028ZM128.841 40.574C128.67 42.474 128.505 43.2058 128.262 43.7891L131.746 45.2426C132.226 44.0904 132.426 42.8649 132.601 40.9109L128.841 40.574Z" fill="#141414" mask="url(#path-7-outside-4_2040_422)"/>
<mask id="path-9-outside-5_2040_422" maskUnits="userSpaceOnUse" x="138.692" y="32.0454" width="27.1908" height="40.7636" fill="black">
<rect fill="white" x="138.692" y="32.0454" width="27.1908" height="40.7636"/>
<path d="M162.298 70.7365L153.808 70.4811L149.809 54.3092L149.338 54.295C149.408 55.0997 149.379 56.0431 149.352 56.9393L148.95 70.335L141.356 70.1065L142.429 34.4005L150.024 34.6289L149.632 47.6472C149.609 48.4019 149.545 48.9665 149.479 49.5783L149.951 49.5924L155.165 34.7835L162.948 35.0176L162.94 35.2534L157.037 51.033L162.305 70.5006L162.298 70.7365Z"/>
</mask>
<path d="M162.298 70.7365L153.808 70.4811L149.809 54.3092L149.338 54.295C149.408 55.0997 149.379 56.0431 149.352 56.9393L148.95 70.335L141.356 70.1065L142.429 34.4005L150.024 34.6289L149.632 47.6472C149.609 48.4019 149.545 48.9665 149.479 49.5783L149.951 49.5924L155.165 34.7835L162.948 35.0176L162.94 35.2534L157.037 51.033L162.305 70.5006L162.298 70.7365Z" fill="url(#paint4_linear_2040_422)"/>
<path d="M162.298 70.7365L162.241 72.6232L164.128 72.6799L164.185 70.7932L162.298 70.7365ZM153.808 70.4811L151.975 70.9342L152.319 72.3247L153.751 72.3678L153.808 70.4811ZM149.809 54.3092L151.642 53.8562L151.298 52.4656L149.866 52.4225L149.809 54.3092ZM149.338 54.295L149.394 52.4083L147.273 52.3445L147.457 54.4591L149.338 54.295ZM148.95 70.335L148.893 72.2217L150.78 72.2784L150.836 70.3917L148.95 70.335ZM141.356 70.1065L139.469 70.0498L139.412 71.9365L141.299 71.9933L141.356 70.1065ZM142.429 34.4005L142.486 32.5138L140.6 32.457L140.543 34.3437L142.429 34.4005ZM150.024 34.6289L151.91 34.6856L151.967 32.7989L150.08 32.7422L150.024 34.6289ZM149.479 49.5783L147.603 49.377L147.385 51.4037L149.423 51.465L149.479 49.5783ZM149.951 49.5924L149.894 51.4792L151.273 51.5206L151.732 50.2193L149.951 49.5924ZM155.165 34.7835L155.222 32.8968L153.843 32.8553L153.384 34.1567L155.165 34.7835ZM162.948 35.0176L164.834 35.0744L164.891 33.1876L163.004 33.1309L162.948 35.0176ZM162.94 35.2534L164.708 35.9149L164.818 35.6224L164.827 35.3102L162.94 35.2534ZM157.037 51.033L155.269 50.3716L155.056 50.9402L155.215 51.5261L157.037 51.033ZM162.305 70.5006L164.192 70.5574L164.2 70.2776L164.127 70.0075L162.305 70.5006ZM162.355 68.8497L153.865 68.5944L153.751 72.3678L162.241 72.6232L162.355 68.8497ZM155.64 70.028L151.642 53.8562L147.977 54.7623L151.975 70.9342L155.64 70.028ZM149.866 52.4225L149.394 52.4083L149.281 56.1818L149.753 56.1959L149.866 52.4225ZM147.457 54.4591C147.516 55.1317 147.494 55.9564 147.466 56.8825L151.239 56.996C151.265 56.1298 151.3 55.0678 151.218 54.131L147.457 54.4591ZM147.466 56.8825L147.063 70.2782L150.836 70.3917L151.239 56.996L147.466 56.8825ZM149.006 68.4482L141.412 68.2198L141.299 71.9933L148.893 72.2217L149.006 68.4482ZM143.242 70.1633L144.316 34.4572L140.543 34.3437L139.469 70.0498L143.242 70.1633ZM142.373 36.2872L149.967 36.5156L150.08 32.7422L142.486 32.5138L142.373 36.2872ZM148.137 34.5721L147.745 47.5905L151.519 47.704L151.91 34.6856L148.137 34.5721ZM147.745 47.5905C147.725 48.262 147.669 48.757 147.603 49.377L151.356 49.7795C151.421 49.176 151.493 48.5418 151.519 47.704L147.745 47.5905ZM149.423 51.465L149.894 51.4792L150.008 47.7057L149.536 47.6915L149.423 51.465ZM151.732 50.2193L156.945 35.4104L153.384 34.1567L148.171 48.9656L151.732 50.2193ZM155.108 36.6702L162.891 36.9043L163.004 33.1309L155.222 32.8968L155.108 36.6702ZM161.061 34.9609L161.054 35.1967L164.827 35.3102L164.834 35.0744L161.061 34.9609ZM161.173 34.592L155.269 50.3716L158.804 51.6945L164.708 35.9149L161.173 34.592ZM155.215 51.5261L160.483 70.9937L164.127 70.0075L158.859 50.5399L155.215 51.5261ZM160.418 70.4439L160.411 70.6797L164.185 70.7932L164.192 70.5574L160.418 70.4439Z" fill="#141414" mask="url(#path-9-outside-5_2040_422)"/>
<mask id="path-11-outside-6_2040_422" maskUnits="userSpaceOnUse" x="187.861" y="31.2143" width="26.4268" height="41.4071" fill="black">
<rect fill="white" x="187.861" y="31.2143" width="26.4268" height="41.4071"/>
<path d="M200.204 70.0062L192.809 70.4642L190.601 34.8103L201.292 34.1481C207.651 33.7543 209.539 36.7579 210.105 45.895C210.682 55.2206 209.194 58.6697 202.836 59.0635L199.539 59.2677L200.204 70.0062ZM199.084 51.9202L201.062 51.7977C202.428 51.7131 202.87 50.4565 202.604 46.1705C202.371 42.4025 201.706 41.5927 200.246 41.6831L198.456 41.794L199.084 51.9202Z"/>
</mask>
<path d="M200.204 70.0062L192.809 70.4642L190.601 34.8103L201.292 34.1481C207.651 33.7543 209.539 36.7579 210.105 45.895C210.682 55.2206 209.194 58.6697 202.836 59.0635L199.539 59.2677L200.204 70.0062ZM199.084 51.9202L201.062 51.7977C202.428 51.7131 202.87 50.4565 202.604 46.1705C202.371 42.4025 201.706 41.5927 200.246 41.6831L198.456 41.794L199.084 51.9202Z" fill="url(#paint5_linear_2040_422)"/>
<path d="M200.204 70.0062L200.32 71.8902L202.204 71.7735L202.088 69.8896L200.204 70.0062ZM192.809 70.4642L190.925 70.5809L191.042 72.4649L192.926 72.3482L192.809 70.4642ZM190.601 34.8103L190.484 32.9264L188.6 33.043L188.717 34.927L190.601 34.8103ZM199.539 59.2677L199.422 57.3837L197.538 57.5004L197.655 59.3844L199.539 59.2677ZM199.084 51.9202L197.2 52.0369L197.316 53.9209L199.2 53.8042L199.084 51.9202ZM198.456 41.794L198.34 39.91L196.456 40.0267L196.572 41.9106L198.456 41.794ZM200.087 68.1223L192.692 68.5803L192.926 72.3482L200.32 71.8902L200.087 68.1223ZM194.693 70.3475L192.485 34.6936L188.717 34.927L190.925 70.5809L194.693 70.3475ZM190.718 36.6943L201.409 36.0321L201.176 32.2642L190.484 32.9264L190.718 36.6943ZM201.409 36.0321C204.295 35.8534 205.553 36.4673 206.343 37.5558C207.323 38.9076 207.937 41.4213 208.221 46.0117L211.989 45.7784C211.707 41.2316 211.093 37.675 209.399 35.3391C207.513 32.74 204.649 32.0491 201.176 32.2642L201.409 36.0321ZM208.221 46.0117C208.511 50.6926 208.223 53.3897 207.401 54.9486C206.737 56.2093 205.556 57.0038 202.719 57.1795L202.952 60.9474C206.473 60.7294 209.216 59.6025 210.741 56.7087C212.109 54.1133 212.276 50.423 211.989 45.7784L208.221 46.0117ZM202.719 57.1795L199.422 57.3837L199.655 61.1516L202.952 60.9474L202.719 57.1795ZM197.655 59.3844L198.32 70.1229L202.088 69.8896L201.423 59.151L197.655 59.3844ZM199.2 53.8042L201.178 53.6817L200.945 49.9138L198.967 50.0363L199.2 53.8042ZM201.178 53.6817C201.811 53.6425 202.524 53.4508 203.145 52.9185C203.745 52.4037 204.072 51.73 204.258 51.0826C204.608 49.8716 204.62 48.1831 204.488 46.0538L200.72 46.2871C200.854 48.4439 200.778 49.5266 200.631 50.0367C200.57 50.2497 200.546 50.1739 200.688 50.0525C200.85 49.9136 200.996 49.9106 200.945 49.9138L201.178 53.6817ZM204.488 46.0538C204.373 44.1854 204.144 42.6297 203.525 41.5443C203.172 40.9266 202.666 40.4071 201.972 40.0949C201.316 39.7996 200.659 39.7664 200.129 39.7992L200.363 43.5671C200.563 43.5547 200.537 43.5887 200.423 43.5376C200.272 43.4695 200.221 43.3711 200.246 43.4155C200.292 43.4966 200.392 43.7251 200.49 44.2286C200.586 44.7203 200.665 45.3871 200.72 46.2871L204.488 46.0538ZM200.129 39.7992L198.34 39.91L198.573 43.6779L200.363 43.5671L200.129 39.7992ZM196.572 41.9106L197.2 52.0369L200.968 51.8036L200.34 41.6773L196.572 41.9106Z" fill="#141414" mask="url(#path-11-outside-6_2040_422)"/>
<mask id="path-13-outside-7_2040_422" maskUnits="userSpaceOnUse" x="217.572" y="28.4683" width="24.4944" height="42.0457" fill="black">
<rect fill="white" x="217.572" y="28.4683" width="24.4944" height="42.0457"/>
<path d="M239.509 66.484L224.556 68.226L220.423 32.7438L227.782 31.8864L230.998 59.4942L238.591 58.6095L239.509 66.484Z"/>
</mask>
<path d="M239.509 66.484L224.556 68.226L220.423 32.7438L227.782 31.8864L230.998 59.4942L238.591 58.6095L239.509 66.484Z" fill="url(#paint6_linear_2040_422)"/>
<path d="M239.509 66.484L239.727 68.3589L241.602 68.1405L241.384 66.2656L239.509 66.484ZM224.556 68.226L222.682 68.4444L222.9 70.3193L224.775 70.1009L224.556 68.226ZM220.423 32.7438L220.204 30.8689L218.329 31.0873L218.548 32.9622L220.423 32.7438ZM227.782 31.8864L229.656 31.668L229.438 29.7931L227.563 30.0116L227.782 31.8864ZM230.998 59.4942L229.123 59.7126L229.341 61.5875L231.216 61.369L230.998 59.4942ZM238.591 58.6095L240.466 58.3911L240.248 56.5162L238.373 56.7346L238.591 58.6095ZM239.29 64.6092L224.338 66.3511L224.775 70.1009L239.727 68.3589L239.29 64.6092ZM226.431 68.0076L222.298 32.5253L218.548 32.9622L222.682 68.4444L226.431 68.0076ZM220.641 34.6187L228 33.7613L227.563 30.0116L220.204 30.8689L220.641 34.6187ZM225.907 32.1049L229.123 59.7126L232.873 59.2757L229.656 31.668L225.907 32.1049ZM231.216 61.369L238.81 60.4844L238.373 56.7346L230.78 57.6193L231.216 61.369ZM236.716 58.8279L237.634 66.7025L241.384 66.2656L240.466 58.3911L236.716 58.8279Z" fill="#141414" mask="url(#path-13-outside-7_2040_422)"/>
<mask id="path-15-outside-8_2040_422" maskUnits="userSpaceOnUse" x="241.482" y="23.8728" width="31.4105" height="43.6548" fill="black">
<rect fill="white" x="241.482" y="23.8728" width="31.4105" height="43.6548"/>
<path d="M270.024 61.759L262.489 63.0531L260.487 55.018L256.952 55.6251L257.792 63.8599L250.444 65.1221L248.164 29.2684L260.442 27.1594L270.024 61.759ZM258.939 47.9582L255.565 35.5622L255.053 35.6501L256.056 48.4535L258.939 47.9582Z"/>
</mask>
<path d="M270.024 61.759L262.489 63.0531L260.487 55.018L256.952 55.6251L257.792 63.8599L250.444 65.1221L248.164 29.2684L260.442 27.1594L270.024 61.759ZM258.939 47.9582L255.565 35.5622L255.053 35.6501L256.056 48.4535L258.939 47.9582Z" fill="url(#paint7_linear_2040_422)"/>
<path d="M270.024 61.759L270.343 63.6193L272.4 63.2661L271.843 61.2552L270.024 61.759ZM262.489 63.0531L260.658 63.5096L261.082 65.2101L262.809 64.9134L262.489 63.0531ZM260.487 55.018L262.318 54.5615L261.895 52.861L260.167 53.1577L260.487 55.018ZM256.952 55.6251L256.633 53.7648L254.896 54.0632L255.074 55.8166L256.952 55.6251ZM257.792 63.8599L258.112 65.7202L259.849 65.4219L259.67 63.6684L257.792 63.8599ZM250.444 65.1221L248.56 65.2419L248.693 67.3379L250.763 66.9824L250.444 65.1221ZM248.164 29.2684L247.844 27.408L246.172 27.6952L246.28 29.3882L248.164 29.2684ZM260.442 27.1594L262.261 26.6557L261.805 25.01L260.122 25.2991L260.442 27.1594ZM258.939 47.9582L259.259 49.8185L261.306 49.4669L260.76 47.4624L258.939 47.9582ZM255.565 35.5622L257.386 35.0664L256.936 33.4115L255.245 33.7019L255.565 35.5622ZM255.053 35.6501L254.734 33.7897L253.037 34.0811L253.172 35.7973L255.053 35.6501ZM256.056 48.4535L254.174 48.6008L254.335 50.6642L256.375 50.3138L256.056 48.4535ZM269.704 59.8986L262.17 61.1928L262.809 64.9134L270.343 63.6193L269.704 59.8986ZM264.321 62.5966L262.318 54.5615L258.655 55.4745L260.658 63.5096L264.321 62.5966ZM260.167 53.1577L256.633 53.7648L257.272 57.4855L260.806 56.8783L260.167 53.1577ZM255.074 55.8166L255.914 64.0514L259.67 63.6684L258.83 55.4336L255.074 55.8166ZM257.473 61.9996L250.124 63.2617L250.763 66.9824L258.112 65.7202L257.473 61.9996ZM252.328 65.0023L250.048 29.1486L246.28 29.3882L248.56 65.2419L252.328 65.0023ZM248.483 31.1287L260.761 29.0198L260.122 25.2991L247.844 27.408L248.483 31.1287ZM258.623 27.6632L268.205 62.2627L271.843 61.2552L262.261 26.6557L258.623 27.6632ZM260.76 47.4624L257.386 35.0664L253.744 36.0579L257.118 48.4539L260.76 47.4624ZM255.245 33.7019L254.734 33.7897L255.373 37.5104L255.885 37.4225L255.245 33.7019ZM253.172 35.7973L254.174 48.6008L257.937 48.3062L256.935 35.5028L253.172 35.7973ZM256.375 50.3138L259.259 49.8185L258.62 46.0979L255.736 46.5931L256.375 50.3138Z" fill="#141414" mask="url(#path-15-outside-8_2040_422)"/>
<mask id="path-17-outside-9_2040_422" maskUnits="userSpaceOnUse" x="271.566" y="17.4848" width="32.4951" height="44.4215" fill="black">
<rect fill="white" x="271.566" y="17.4848" width="32.4951" height="44.4215"/>
<path d="M301.565 54.9602L297.797 55.8433L285.201 39.1177L284.925 39.1823L289.298 57.8356L282.728 59.3756L274.576 24.596L281.651 22.9376L289.353 33.8793L289.629 33.8147L286.797 21.7314L293.413 20.1807L301.565 54.9602Z"/>
</mask>
<path d="M301.565 54.9602L297.797 55.8433L285.201 39.1177L284.925 39.1823L289.298 57.8356L282.728 59.3756L274.576 24.596L281.651 22.9376L289.353 33.8793L289.629 33.8147L286.797 21.7314L293.413 20.1807L301.565 54.9602Z" fill="url(#paint8_linear_2040_422)"/>
<path d="M301.565 54.9602L301.996 56.798L303.833 56.3672L303.403 54.5295L301.565 54.9602ZM297.797 55.8433L296.29 56.9788L297.03 57.9619L298.228 57.6811L297.797 55.8433ZM285.201 39.1177L286.709 37.9822L285.969 36.9991L284.77 37.28L285.201 39.1177ZM284.925 39.1823L284.495 37.3446L282.657 37.7754L283.088 39.6131L284.925 39.1823ZM289.298 57.8356L289.729 59.6733L291.566 59.2426L291.135 57.4048L289.298 57.8356ZM282.728 59.3756L280.89 59.8063L281.321 61.6441L283.159 61.2133L282.728 59.3756ZM274.576 24.596L274.145 22.7582L272.307 23.189L272.738 25.0268L274.576 24.596ZM281.651 22.9376L283.194 21.851L282.461 20.809L281.22 21.0998L281.651 22.9376ZM289.353 33.8793L287.81 34.9658L288.543 36.0079L289.784 35.717L289.353 33.8793ZM289.629 33.8147L290.06 35.6524L291.897 35.2217L291.467 33.3839L289.629 33.8147ZM286.797 21.7314L286.366 19.8937L284.528 20.3244L284.959 22.1622L286.797 21.7314ZM293.413 20.1807L295.25 19.7499L294.82 17.9121L292.982 18.3429L293.413 20.1807ZM301.134 53.1225L297.367 54.0055L298.228 57.6811L301.996 56.798L301.134 53.1225ZM299.305 54.7078L286.709 37.9822L283.693 40.2533L296.29 56.9788L299.305 54.7078ZM284.77 37.28L284.495 37.3446L285.356 41.0201L285.632 40.9555L284.77 37.28ZM283.088 39.6131L287.46 58.2664L291.135 57.4048L286.763 38.7516L283.088 39.6131ZM288.867 55.9978L282.297 57.5378L283.159 61.2133L289.729 59.6733L288.867 55.9978ZM284.566 58.9448L276.413 24.1652L272.738 25.0268L280.89 59.8063L284.566 58.9448ZM275.006 26.4338L282.082 24.7753L281.22 21.0998L274.145 22.7582L275.006 26.4338ZM280.107 24.0241L287.81 34.9658L290.897 32.7928L283.194 21.851L280.107 24.0241ZM289.784 35.717L290.06 35.6524L289.198 31.9769L288.922 32.0415L289.784 35.717ZM291.467 33.3839L288.634 21.3007L284.959 22.1622L287.791 34.2454L291.467 33.3839ZM287.227 23.5692L293.843 22.0184L292.982 18.3429L286.366 19.8937L287.227 23.5692ZM291.575 20.6114L299.727 55.391L303.403 54.5295L295.25 19.7499L291.575 20.6114Z" fill="#141414" mask="url(#path-17-outside-9_2040_422)"/>
<mask id="path-19-outside-10_2040_422" maskUnits="userSpaceOnUse" x="300.956" y="8.49701" width="34.0044" height="46.8097" fill="black">
<rect fill="white" x="300.956" y="8.49701" width="34.0044" height="46.8097"/>
<path d="M324.153 23.1432L318.273 24.8895C318.184 24.4237 318.116 24.1976 317.875 23.3833C317.243 21.2572 316.68 20.6861 314.961 21.1965C313.242 21.707 313.127 22.4796 313.758 24.6057C314.349 26.5961 315.008 26.9912 316.34 27.3339C319.525 28.1112 321.455 27.981 323.569 28.6333C325.975 29.4446 327.35 30.7592 329.043 36.459C331.461 44.6016 330.164 47.6942 323.243 49.7495C317.588 51.4286 314.459 50.3396 312.86 44.9564C312.35 43.2374 311.849 41.2201 311.798 40.0538L317.724 38.2941C317.741 38.6829 317.862 39.09 318.01 39.5876C318.789 42.2113 319.406 42.9634 321.216 42.426C323.025 41.8887 323.258 41.1797 322.398 38.2846C321.874 36.5203 321.175 35.9895 319.698 35.4927C317.038 34.6582 313.987 34.8259 311.635 33.7029C309.297 32.6251 308.355 29.9512 307.012 25.4275C305.104 19.0039 306.165 16.2769 312.906 14.2753C319.012 12.4618 321.708 13.5813 323.427 19.3716C323.978 21.2263 324.17 22.2031 324.153 23.1432Z"/>
</mask>
<path d="M324.153 23.1432L318.273 24.8895C318.184 24.4237 318.116 24.1976 317.875 23.3833C317.243 21.2572 316.68 20.6861 314.961 21.1965C313.242 21.707 313.127 22.4796 313.758 24.6057C314.349 26.5961 315.008 26.9912 316.34 27.3339C319.525 28.1112 321.455 27.981 323.569 28.6333C325.975 29.4446 327.35 30.7592 329.043 36.459C331.461 44.6016 330.164 47.6942 323.243 49.7495C317.588 51.4286 314.459 50.3396 312.86 44.9564C312.35 43.2374 311.849 41.2201 311.798 40.0538L317.724 38.2941C317.741 38.6829 317.862 39.09 318.01 39.5876C318.789 42.2113 319.406 42.9634 321.216 42.426C323.025 41.8887 323.258 41.1797 322.398 38.2846C321.874 36.5203 321.175 35.9895 319.698 35.4927C317.038 34.6582 313.987 34.8259 311.635 33.7029C309.297 32.6251 308.355 29.9512 307.012 25.4275C305.104 19.0039 306.165 16.2769 312.906 14.2753C319.012 12.4618 321.708 13.5813 323.427 19.3716C323.978 21.2263 324.17 22.2031 324.153 23.1432Z" fill="url(#paint9_linear_2040_422)"/>
<path d="M324.153 23.1432L324.691 24.9527L326.017 24.5589L326.041 23.1757L324.153 23.1432ZM318.273 24.8895L316.419 25.2441L316.811 27.2928L318.81 26.699L318.273 24.8895ZM316.34 27.3339L315.87 29.162L315.881 29.1649L315.893 29.1677L316.34 27.3339ZM323.569 28.6333L324.171 26.8446L324.148 26.8368L324.125 26.8297L323.569 28.6333ZM311.798 40.0538L311.261 38.2444L309.848 38.6639L309.913 40.1363L311.798 40.0538ZM317.724 38.2941L319.61 38.2117L319.505 35.7964L317.187 36.4846L317.724 38.2941ZM319.698 35.4927L320.3 33.7037L320.282 33.6975L320.263 33.6917L319.698 35.4927ZM311.635 33.7029L312.449 31.9996L312.437 31.994L312.425 31.9887L311.635 33.7029ZM323.616 21.3337L317.735 23.0801L318.81 26.699L324.691 24.9527L323.616 21.3337ZM320.127 24.5349C320.017 23.963 319.923 23.6501 319.684 22.846L316.065 23.9206C316.31 24.745 316.35 24.8844 316.419 25.2441L320.127 24.5349ZM319.684 22.846C319.516 22.2789 319.327 21.7279 319.09 21.2438C318.854 20.7608 318.518 20.2345 317.999 19.8223C316.811 18.8801 315.436 19.0864 314.423 19.3871L315.498 23.006C315.656 22.9591 315.771 22.9335 315.853 22.9204C315.934 22.9074 315.966 22.9095 315.96 22.9092C315.913 22.9068 315.776 22.8776 315.653 22.7801C315.568 22.7127 315.598 22.6958 315.699 22.902C315.799 23.1069 315.918 23.4246 316.065 23.9206L319.684 22.846ZM314.423 19.3871C313.414 19.6868 312.138 20.2665 311.678 21.7279C311.479 22.357 311.497 22.9779 311.567 23.5C311.638 24.0254 311.782 24.583 311.949 25.143L315.567 24.0684C315.418 23.5654 315.34 23.2291 315.309 22.9957C315.277 22.7591 315.312 22.7562 315.278 22.8626C315.259 22.9241 315.225 22.995 315.176 23.0616C315.128 23.1261 315.085 23.1602 315.073 23.1693C315.067 23.1739 315.163 23.1054 315.498 23.006L314.423 19.3871ZM311.949 25.143C312.277 26.2486 312.706 27.2189 313.461 27.9469C314.236 28.6935 315.141 28.9744 315.87 29.162L316.811 25.5059C316.207 25.3507 316.116 25.2627 316.081 25.2285C316.026 25.1757 315.83 24.9532 315.567 24.0684L311.949 25.143ZM315.893 29.1677C317.598 29.5838 318.969 29.7564 320.117 29.9029C321.282 30.0516 322.135 30.1662 323.012 30.4369L324.125 26.8297C322.889 26.4481 321.72 26.3017 320.595 26.1581C319.453 26.0123 318.267 25.8613 316.788 25.5002L315.893 29.1677ZM322.966 30.422C323.92 30.7437 324.498 31.0913 325.063 31.8448C325.71 32.7084 326.401 34.1941 327.233 36.9964L330.852 35.9217C329.992 33.0241 329.149 31.0026 328.084 29.581C326.936 28.0495 325.624 27.3342 324.171 26.8446L322.966 30.422ZM327.233 36.9964C328.438 41.0528 328.507 43.265 327.913 44.6367C327.376 45.8764 326.046 46.9481 322.705 47.94L323.78 51.5589C327.361 50.4955 330.14 48.9934 331.377 46.1373C332.557 43.4132 332.066 40.0079 330.852 35.9217L327.233 36.9964ZM322.705 47.94C319.994 48.7452 318.344 48.732 317.284 48.2706C316.323 47.8522 315.393 46.8548 314.67 44.4191L311.051 45.4937C311.926 48.4412 313.36 50.6799 315.777 51.732C318.095 52.7412 320.837 52.4328 323.78 51.5589L322.705 47.94ZM314.67 44.4191C314.154 42.6813 313.724 40.8741 313.684 39.9714L309.913 40.1363C309.975 41.5662 310.546 43.7935 311.051 45.4937L314.67 44.4191ZM312.336 41.8633L318.262 40.1036L317.187 36.4846L311.261 38.2444L312.336 41.8633ZM315.839 38.3765C315.868 39.0446 316.072 39.692 316.201 40.1249L319.82 39.0503C319.653 38.488 319.615 38.3211 319.61 38.2117L315.839 38.3765ZM316.201 40.1249C316.404 40.8088 316.617 41.4449 316.866 41.9938C317.112 42.535 317.442 43.1062 317.934 43.5681C318.469 44.0701 319.12 44.373 319.853 44.4543C320.529 44.5291 321.18 44.4056 321.753 44.2355L320.678 40.6166C320.346 40.7152 320.242 40.6991 320.269 40.7021C320.354 40.7115 320.462 40.7632 320.519 40.8163C320.533 40.8294 320.45 40.7542 320.304 40.4333C320.162 40.1201 320.006 39.6782 319.82 39.0503L316.201 40.1249ZM321.753 44.2355C322.74 43.9425 324.15 43.3806 324.62 41.768C324.817 41.093 324.787 40.4085 324.698 39.8031C324.607 39.1868 324.43 38.4977 324.207 37.7472L320.589 38.8219C320.796 39.519 320.912 40.0042 320.963 40.3519C321.016 40.7105 320.976 40.7797 320.996 40.711C321.036 40.5715 321.138 40.4587 321.189 40.4221C321.194 40.4187 321.165 40.4401 321.076 40.4785C320.987 40.5168 320.859 40.5628 320.678 40.6166L321.753 44.2355ZM324.207 37.7472C323.899 36.7072 323.47 35.7923 322.725 35.0636C321.991 34.3462 321.119 33.9791 320.3 33.7037L319.096 37.2818C319.755 37.5032 319.97 37.6499 320.086 37.7631C320.19 37.8651 320.373 38.0977 320.589 38.8219L324.207 37.7472ZM320.263 33.6917C318.751 33.2172 317.127 33.0284 315.824 32.8382C314.428 32.6345 313.338 32.4243 312.449 31.9996L310.822 35.4062C312.284 36.1045 313.896 36.3719 315.279 36.5738C316.754 36.7891 317.986 36.9337 319.133 37.2937L320.263 33.6917ZM312.425 31.9887C311.769 31.6862 311.211 31.1397 310.633 30.0022C310.028 28.8121 309.501 27.1794 308.821 24.8902L305.203 25.9649C305.866 28.1993 306.481 30.1655 307.268 31.7127C308.081 33.3125 309.163 34.6418 310.845 35.4171L312.425 31.9887ZM308.821 24.8902C307.876 21.7077 307.889 20.0653 308.403 19.0387C308.897 18.0534 310.154 17.0613 313.443 16.0848L312.368 12.4658C308.917 13.4908 306.273 14.8631 305.028 17.3476C303.804 19.7909 304.24 22.7238 305.203 25.9649L308.821 24.8902ZM313.443 16.0848C316.436 15.1958 318.034 15.2219 319.008 15.6801C319.906 16.1021 320.8 17.1537 321.618 19.9089L325.237 18.8342C324.335 15.7991 323.022 13.3958 320.615 12.2639C318.285 11.1682 315.482 11.5413 312.368 12.4658L313.443 16.0848ZM321.618 19.9089C322.161 21.7376 322.277 22.4788 322.266 23.1107L326.041 23.1757C326.062 21.9275 325.795 20.715 325.237 18.8342L321.618 19.9089Z" fill="#141414" mask="url(#path-19-outside-10_2040_422)"/>
<defs>
<linearGradient id="paint0_linear_2040_422" x1="13.5101" y1="-0.530409" x2="49.4372" y2="11.8555" gradientUnits="userSpaceOnUse">
<stop stop-color="#E0B5FC"/>
<stop offset="0.49" stop-color="#FFD87D"/>
<stop offset="1" stop-color="#554CFF"/>
</linearGradient>
<linearGradient id="paint1_linear_2040_422" x1="39.1237" y1="7.6195" x2="92.1566" y2="22.9827" gradientUnits="userSpaceOnUse">
<stop stop-color="#E0B5FC"/>
<stop offset="0.49" stop-color="#FFD87D"/>
<stop offset="1" stop-color="#554CFF"/>
</linearGradient>
<linearGradient id="paint2_linear_2040_422" x1="81.5125" y1="16.9273" x2="118.823" y2="24.1454" gradientUnits="userSpaceOnUse">
<stop stop-color="#E0B5FC"/>
<stop offset="0.49" stop-color="#FFD87D"/>
<stop offset="1" stop-color="#554CFF"/>
</linearGradient>
<linearGradient id="paint3_linear_2040_422" x1="110.73" y1="21.3364" x2="144.99" y2="25.8262" gradientUnits="userSpaceOnUse">
<stop stop-color="#E0B5FC"/>
<stop offset="0.49" stop-color="#FFD87D"/>
<stop offset="1" stop-color="#554CFF"/>
</linearGradient>
<linearGradient id="paint4_linear_2040_422" x1="137.137" y1="23.9589" x2="178.456" y2="27.2385" gradientUnits="userSpaceOnUse">
<stop stop-color="#E0B5FC"/>
<stop offset="0.49" stop-color="#FFD87D"/>
<stop offset="1" stop-color="#554CFF"/>
</linearGradient>
<linearGradient id="paint5_linear_2040_422" x1="184.705" y1="24.878" x2="222.701" y2="24.2394" gradientUnits="userSpaceOnUse">
<stop stop-color="#E0B5FC"/>
<stop offset="0.49" stop-color="#FFD87D"/>
<stop offset="1" stop-color="#554CFF"/>
</linearGradient>
<linearGradient id="paint6_linear_2040_422" x1="214.66" y1="23.0679" x2="245.666" y2="20.6098" gradientUnits="userSpaceOnUse">
<stop stop-color="#E0B5FC"/>
<stop offset="0.49" stop-color="#FFD87D"/>
<stop offset="1" stop-color="#554CFF"/>
</linearGradient>
<linearGradient id="paint7_linear_2040_422" x1="238.485" y1="20.5026" x2="276.19" y2="15.7626" gradientUnits="userSpaceOnUse">
<stop stop-color="#E0B5FC"/>
<stop offset="0.49" stop-color="#FFD87D"/>
<stop offset="1" stop-color="#554CFF"/>
</linearGradient>
<linearGradient id="paint8_linear_2040_422" x1="266.982" y1="15.8196" x2="306.043" y2="8.58464" gradientUnits="userSpaceOnUse">
<stop stop-color="#E0B5FC"/>
<stop offset="0.49" stop-color="#FFD87D"/>
<stop offset="1" stop-color="#554CFF"/>
</linearGradient>
<linearGradient id="paint9_linear_2040_422" x1="297.685" y1="8.71355" x2="331.184" y2="0.24189" gradientUnits="userSpaceOnUse">
<stop stop-color="#E0B5FC"/>
<stop offset="0.49" stop-color="#FFD87D"/>
<stop offset="1" stop-color="#554CFF"/>
</linearGradient>
</defs>
</svg>
