<svg width="362" height="185" viewBox="0 0 362 185" fill="none" xmlns="http://www.w3.org/2000/svg">
<mask id="path-1-outside-1_2021_50" maskUnits="userSpaceOnUse" x="8.66851" y="16.0757" width="95.735" height="128.202" fill="black">
<rect fill="white" x="8.66851" y="16.0757" width="95.735" height="128.202"/>
<path d="M40.8337 132.014L33.3179 129.092L39.1166 114.179C25.4172 108.44 20.7645 101.687 25.1251 90.4728C26.424 87.1325 27.6566 84.3157 29.2008 81.7574L46.2604 88.3911L45.4718 90.4192C43.6626 95.0718 43.497 97.6168 48.5075 99.5652C53.7566 101.606 55.2278 98.8823 56.5731 95.4227C57.872 92.0823 57.3352 90.6375 54.4786 87.7414C49.3155 82.3003 42.6878 77.8003 38.784 72.2996C34.9531 66.9645 35.7416 62.4643 39.7311 52.2047C44.9731 38.724 51.0505 35.4564 67.507 41.1689L72.4707 28.404L79.9865 31.3265L75.0228 44.0914C88.3444 50.0956 91.8241 55.9808 87.1851 67.9106C86.2573 70.2966 85.2566 72.5169 84.3222 74.2135L67.1433 67.5335L68.1175 65.0282C69.7411 60.8528 69.3633 58.6458 65.0685 56.9758C60.4159 55.1666 58.6994 57.1085 57.4469 60.3296C56.148 63.6699 56.7313 64.9954 59.9457 68.0307C66.156 73.6044 70.5568 76.4143 74.5931 80.8679C79.153 85.3878 80.2003 90.4645 75.8861 101.559C69.5771 117.784 62.4394 122.012 46.6788 116.983L40.8337 132.014Z"/>
</mask>
<path d="M40.8337 132.014L33.3179 129.092L39.1166 114.179C25.4172 108.44 20.7645 101.687 25.1251 90.4728C26.424 87.1325 27.6566 84.3157 29.2008 81.7574L46.2604 88.3911L45.4718 90.4192C43.6626 95.0718 43.497 97.6168 48.5075 99.5652C53.7566 101.606 55.2278 98.8823 56.5731 95.4227C57.872 92.0823 57.3352 90.6375 54.4786 87.7414C49.3155 82.3003 42.6878 77.8003 38.784 72.2996C34.9531 66.9645 35.7416 62.4643 39.7311 52.2047C44.9731 38.724 51.0505 35.4564 67.507 41.1689L72.4707 28.404L79.9865 31.3265L75.0228 44.0914C88.3444 50.0956 91.8241 55.9808 87.1851 67.9106C86.2573 70.2966 85.2566 72.5169 84.3222 74.2135L67.1433 67.5335L68.1175 65.0282C69.7411 60.8528 69.3633 58.6458 65.0685 56.9758C60.4159 55.1666 58.6994 57.1085 57.4469 60.3296C56.148 63.6699 56.7313 64.9954 59.9457 68.0307C66.156 73.6044 70.5568 76.4143 74.5931 80.8679C79.153 85.3878 80.2003 90.4645 75.8861 101.559C69.5771 117.784 62.4394 122.012 46.6788 116.983L40.8337 132.014Z" fill="url(#paint0_linear_2021_50)"/>
<path d="M40.8337 132.014L39.7465 134.81L42.5425 135.897L43.6298 133.101L40.8337 132.014ZM33.3179 129.092L30.5219 128.004L29.4346 130.8L32.2307 131.888L33.3179 129.092ZM39.1166 114.179L41.9127 115.267L42.9722 112.542L40.2758 111.412L39.1166 114.179ZM29.2008 81.7574L30.288 78.9614L27.9363 78.0469L26.6324 80.2072L29.2008 81.7574ZM46.2604 88.3911L49.0564 89.4784L50.1437 86.6823L47.3476 85.5951L46.2604 88.3911ZM54.4786 87.7414L52.3024 89.8064L52.3223 89.8274L52.3427 89.848L54.4786 87.7414ZM38.784 72.2996L41.2305 70.5633L41.2257 70.5565L41.2208 70.5498L38.784 72.2996ZM67.507 41.1689L66.5232 44.003L69.255 44.9513L70.3031 42.2562L67.507 41.1689ZM72.4707 28.404L73.5579 25.608L70.7619 24.5207L69.6746 27.3168L72.4707 28.404ZM79.9865 31.3265L82.7825 32.4138L83.8698 29.6178L81.0737 28.5305L79.9865 31.3265ZM75.0228 44.0914L72.2267 43.0042L71.1952 45.6569L73.7901 46.8265L75.0228 44.0914ZM84.3222 74.2135L83.235 77.0096L85.6829 77.9615L86.95 75.6608L84.3222 74.2135ZM67.1433 67.5335L64.3472 66.4462L63.26 69.2422L66.056 70.3295L67.1433 67.5335ZM59.9457 68.0307L57.8861 70.212L57.9137 70.2381L57.9419 70.2634L59.9457 68.0307ZM74.5931 80.8679L72.3702 82.8826L72.4241 82.9421L72.4812 82.9986L74.5931 80.8679ZM46.6788 116.983L47.5909 114.125L44.9047 113.267L43.8827 115.895L46.6788 116.983ZM41.921 129.218L34.4052 126.295L32.2307 131.888L39.7465 134.81L41.921 129.218ZM36.114 130.179L41.9127 115.267L36.3206 113.092L30.5219 128.004L36.114 130.179ZM40.2758 111.412C33.5817 108.608 29.7301 105.791 27.9071 102.813C26.2232 100.062 25.9534 96.6203 27.9211 91.5601L22.329 89.3856C19.9361 95.5393 19.8124 101.081 22.7896 105.945C25.6276 110.582 30.9521 114.012 37.9574 116.946L40.2758 111.412ZM27.9211 91.5601C29.2003 88.2705 30.3592 85.6436 31.7692 83.3077L26.6324 80.2072C24.954 82.9878 23.6477 85.9945 22.329 89.3856L27.9211 91.5601ZM28.1135 84.5535L45.1731 91.1872L47.3476 85.5951L30.288 78.9614L28.1135 84.5535ZM43.4643 87.3039L42.6757 89.3319L48.2678 91.5064L49.0564 89.4784L43.4643 87.3039ZM42.6757 89.3319C41.8061 91.5683 40.9047 94.2202 41.5187 96.7215C42.2291 99.6149 44.5935 101.262 47.4202 102.361L49.5947 96.7691C47.4109 95.9199 47.3529 95.3204 47.3457 95.291C47.3105 95.1474 47.2763 94.8179 47.4156 94.1468C47.556 93.4706 47.8334 92.6235 48.2678 91.5064L42.6757 89.3319ZM47.4202 102.361C50.521 103.567 53.4009 103.688 55.7571 101.991C57.7734 100.54 58.7386 98.1316 59.3692 96.5099L53.7771 94.3354C53.4495 95.1778 53.1729 95.8176 52.8842 96.3187C52.5995 96.8126 52.383 97.0273 52.2513 97.1221C52.2233 97.1423 51.7431 97.6045 49.5947 96.7691L47.4202 102.361ZM59.3692 96.5099C60.1031 94.6226 60.568 92.6696 59.9667 90.5843C59.4088 88.6492 58.0552 87.0954 56.6144 85.6347L52.3427 89.848C53.7585 91.2835 54.1017 91.9002 54.2016 92.2466C54.2582 92.4428 54.3421 92.8824 53.7771 94.3354L59.3692 96.5099ZM56.6548 85.6764C53.9608 82.8373 50.8583 80.2182 48.1577 77.8056C45.3758 75.3203 42.9694 73.0136 41.2305 70.5633L36.3375 74.0358C38.5024 77.0863 41.3618 79.7799 44.1604 82.2801C47.0404 84.8529 49.8333 87.2044 52.3024 89.8064L56.6548 85.6764ZM41.2208 70.5498C39.6701 68.3902 39.1548 66.6147 39.3175 64.31C39.4985 61.7449 40.5228 58.4464 42.5272 53.2919L36.9351 51.1174C34.9499 56.2226 33.5852 60.304 33.3323 63.8876C33.0611 67.7317 34.0669 70.8738 36.3471 74.0494L41.2208 70.5498ZM42.5272 53.2919C45.0973 46.6825 47.5455 43.5354 50.5812 42.2528C53.7065 40.9323 58.3875 41.1789 66.5232 44.003L68.4908 38.3348C60.1701 35.4465 53.5841 34.4705 48.246 36.7259C42.8184 39.0191 39.607 44.2462 36.9351 51.1174L42.5272 53.2919ZM70.3031 42.2562L75.2667 29.4913L69.6746 27.3168L64.711 40.0816L70.3031 42.2562ZM71.3834 31.2001L78.8992 34.1226L81.0737 28.5305L73.5579 25.608L71.3834 31.2001ZM77.1904 30.2393L72.2267 43.0042L77.8188 45.1787L82.7825 32.4138L77.1904 30.2393ZM73.7901 46.8265C80.3585 49.7869 83.7296 52.4134 85.1847 55.1767C86.5411 57.7525 86.5851 61.176 84.3891 66.8234L89.9812 68.9979C92.4241 62.7155 93.0478 57.2315 90.4936 52.3811C88.0383 47.7183 83.0087 44.4001 76.2555 41.3564L73.7901 46.8265ZM84.3891 66.8234C83.4911 69.1326 82.5445 71.2227 81.6944 72.7663L86.95 75.6608C87.9688 73.811 89.0235 71.4606 89.9812 68.9979L84.3891 66.8234ZM85.4095 71.4175L68.2305 64.7374L66.056 70.3295L83.235 77.0096L85.4095 71.4175ZM69.9393 68.6207L70.9135 66.1155L65.3214 63.9409L64.3472 66.4462L69.9393 68.6207ZM70.9135 66.1155C71.7476 63.9706 72.4495 61.4821 71.6579 59.112C70.8014 56.5479 68.5813 55.1229 66.1558 54.1797L63.9813 59.7718C65.8505 60.4987 65.9667 61.0121 65.9669 61.0129C66.032 61.2077 66.111 61.9104 65.3214 63.9409L70.9135 66.1155ZM66.1558 54.1797C63.4392 53.1234 60.795 52.8568 58.5028 54.1568C56.3697 55.3664 55.3144 57.5359 54.6509 59.2423L60.243 61.4168C60.8319 59.9022 61.2611 59.4902 61.4626 59.3759C61.5049 59.3519 62.0453 59.019 63.9813 59.7718L66.1558 54.1797ZM54.6509 59.2423C53.9198 61.1225 53.4327 63.1201 54.1647 65.2639C54.8189 67.1798 56.3137 68.7272 57.8861 70.212L62.0054 65.8495C60.3633 64.2989 59.9592 63.6659 59.8429 63.3252C59.8043 63.2123 59.6751 62.877 60.243 61.4168L54.6509 59.2423ZM57.9419 70.2634C61.1112 73.1078 63.8443 75.2685 66.1804 77.1875C68.5366 79.1231 70.5057 80.8254 72.3702 82.8826L76.816 78.8533C74.6441 76.4569 72.3947 74.5274 69.9889 72.5512C67.563 70.5584 64.9905 68.5273 61.9495 65.7981L57.9419 70.2634ZM72.4812 82.9986C74.3926 84.8933 75.3662 86.6686 75.5797 89.0194C75.8097 91.5513 75.1884 95.0759 73.0901 100.472L78.6822 102.646C80.8981 96.9479 81.9102 92.3868 81.5551 88.4767C81.1835 84.3855 79.3535 81.3625 76.705 78.7373L72.4812 82.9986ZM73.0901 100.472C69.9852 108.457 66.9501 112.683 63.3999 114.602C59.947 116.469 55.2211 116.56 47.5909 114.125L45.7667 119.841C53.897 122.435 60.6203 122.926 66.2537 119.88C71.7898 116.887 75.4781 110.886 78.6822 102.646L73.0901 100.472ZM43.8827 115.895L38.0377 130.927L43.6298 133.101L49.4748 118.07L43.8827 115.895Z" fill="#141414" mask="url(#path-1-outside-1_2021_50)"/>
<mask id="path-3-outside-2_2021_50" maskUnits="userSpaceOnUse" x="74.118" y="40.9981" width="99.0728" height="115.442" fill="black">
<rect fill="white" x="74.118" y="40.9981" width="99.0728" height="115.442"/>
<path d="M153.262 152.941L135.091 149.855L144.82 92.5637L144.063 92.4351L119.821 147.263L111.114 145.784L106.205 86.0062L105.447 85.8776L95.7183 143.169L77.6726 140.105L93.8949 44.5766L121.91 49.334L123.693 92.3517L124.576 92.5017L141.47 52.6556L169.359 57.3916L153.262 152.941Z"/>
</mask>
<path d="M153.262 152.941L135.091 149.855L144.82 92.5637L144.063 92.4351L119.821 147.263L111.114 145.784L106.205 86.0062L105.447 85.8776L95.7183 143.169L77.6726 140.105L93.8949 44.5766L121.91 49.334L123.693 92.3517L124.576 92.5017L141.47 52.6556L169.359 57.3916L153.262 152.941Z" fill="url(#paint1_linear_2021_50)"/>
<path d="M153.262 152.941L152.76 155.899L155.722 156.402L156.221 153.44L153.262 152.941ZM135.091 149.855L132.133 149.353L131.631 152.311L134.588 152.813L135.091 149.855ZM144.82 92.5637L147.777 93.066L148.28 90.1083L145.322 89.606L144.82 92.5637ZM144.063 92.4351L144.565 89.4775L142.263 89.0866L141.319 91.222L144.063 92.4351ZM119.821 147.263L119.319 150.22L121.621 150.611L122.565 148.476L119.821 147.263ZM111.114 145.784L108.124 146.029L108.315 148.351L110.612 148.742L111.114 145.784ZM106.205 86.0062L109.194 85.7606L109.004 83.4386L106.707 83.0485L106.205 86.0062ZM105.447 85.8776L105.95 82.92L102.992 82.4177L102.49 85.3754L105.447 85.8776ZM95.7183 143.169L95.216 146.127L98.1737 146.629L98.6759 143.672L95.7183 143.169ZM77.6726 140.105L74.7149 139.603L74.2127 142.56L77.1703 143.063L77.6726 140.105ZM93.8949 44.5766L94.3972 41.6189L91.4395 41.1167L90.9373 44.0743L93.8949 44.5766ZM121.91 49.334L124.907 49.2097L124.807 46.783L122.412 46.3763L121.91 49.334ZM123.693 92.3517L120.696 92.4759L120.796 94.9027L123.191 95.3093L123.693 92.3517ZM124.576 92.5017L124.074 95.4594L126.413 95.8565L127.338 93.6727L124.576 92.5017ZM141.47 52.6556L141.972 49.6979L139.634 49.3008L138.708 51.4846L141.47 52.6556ZM169.359 57.3916L172.317 57.8899L172.815 54.9355L169.861 54.4339L169.359 57.3916ZM153.765 149.984L135.593 146.898L134.588 152.813L152.76 155.899L153.765 149.984ZM138.048 150.358L147.777 93.066L141.862 92.0614L132.133 149.353L138.048 150.358ZM145.322 89.606L144.565 89.4775L143.56 95.3928L144.317 95.5214L145.322 89.606ZM141.319 91.222L117.077 146.049L122.565 148.476L146.806 93.6483L141.319 91.222ZM120.323 144.305L111.616 142.826L110.612 148.742L119.319 150.22L120.323 144.305ZM114.104 145.538L109.194 85.7606L103.215 86.2518L108.124 146.029L114.104 145.538ZM106.707 83.0485L105.95 82.92L104.945 88.8353L105.702 88.9639L106.707 83.0485ZM102.49 85.3754L92.7606 142.667L98.6759 143.672L108.405 86.3799L102.49 85.3754ZM96.2205 140.212L78.1749 137.147L77.1703 143.063L95.216 146.127L96.2205 140.212ZM80.6303 140.607L96.8526 45.0788L90.9373 44.0743L74.7149 139.603L80.6303 140.607ZM93.3927 47.5342L121.408 52.2916L122.412 46.3763L94.3972 41.6189L93.3927 47.5342ZM118.912 49.4582L120.696 92.4759L126.69 92.2274L124.907 49.2097L118.912 49.4582ZM123.191 95.3093L124.074 95.4594L125.079 89.544L124.195 89.394L123.191 95.3093ZM127.338 93.6727L144.232 53.8266L138.708 51.4846L121.814 91.3307L127.338 93.6727ZM140.968 55.6132L168.856 60.3492L169.861 54.4339L141.972 49.6979L140.968 55.6132ZM166.4 56.8932L150.304 152.443L156.221 153.44L172.317 57.8899L166.4 56.8932Z" fill="#141414" mask="url(#path-3-outside-2_2021_50)"/>
<mask id="path-5-outside-3_2021_50" maskUnits="userSpaceOnUse" x="161.307" y="48.8722" width="63.6485" height="109.002" fill="black">
<rect fill="white" x="161.307" y="48.8722" width="63.6485" height="109.002"/>
<path d="M216.005 144.838C212.886 150.965 207.195 153.083 194.914 153.506C182.506 153.933 176.683 152.213 173.15 146.315C169.621 140.545 168.011 134.709 166.962 104.263C165.914 73.817 167.127 68.1398 170.246 62.0128C173.369 56.0137 179.055 53.7686 191.464 53.3411C203.744 52.918 209.572 54.7665 213.1 60.5364C216.633 66.4343 218.235 72.0145 219.283 102.46C220.332 132.906 219.128 138.839 216.005 144.838ZM199.079 129.412C199.759 126.827 200.024 123.36 199.31 102.636C198.574 81.2729 198.071 77.8322 197.22 75.428C196.523 73.7871 195.345 73.0592 192.147 73.1694C188.949 73.2795 187.696 74.0911 187.242 75.7718C186.43 78.2332 186.165 81.7004 186.901 103.064C187.615 123.787 188.118 127.228 189.101 129.756C189.67 131.401 190.972 131.997 194.17 131.887C197.368 131.776 198.497 131.097 199.079 129.412Z"/>
</mask>
<path d="M216.005 144.838C212.886 150.965 207.195 153.083 194.914 153.506C182.506 153.933 176.683 152.213 173.15 146.315C169.621 140.545 168.011 134.709 166.962 104.263C165.914 73.817 167.127 68.1398 170.246 62.0128C173.369 56.0137 179.055 53.7686 191.464 53.3411C203.744 52.918 209.572 54.7665 213.1 60.5364C216.633 66.4343 218.235 72.0145 219.283 102.46C220.332 132.906 219.128 138.839 216.005 144.838ZM199.079 129.412C199.759 126.827 200.024 123.36 199.31 102.636C198.574 81.2729 198.071 77.8322 197.22 75.428C196.523 73.7871 195.345 73.0592 192.147 73.1694C188.949 73.2795 187.696 74.0911 187.242 75.7718C186.43 78.2332 186.165 81.7004 186.901 103.064C187.615 123.787 188.118 127.228 189.101 129.756C189.67 131.401 190.972 131.997 194.17 131.887C197.368 131.776 198.497 131.097 199.079 129.412Z" fill="url(#paint2_linear_2021_50)"/>
<path d="M216.005 144.838L213.344 143.453L213.337 143.465L213.331 143.477L216.005 144.838ZM173.15 146.315L175.724 144.773L175.716 144.761L175.709 144.75L173.15 146.315ZM170.246 62.0128L167.585 60.6274L167.578 60.6396L167.572 60.6519L170.246 62.0128ZM213.1 60.5364L215.674 58.9947L215.667 58.9829L215.66 58.9712L213.1 60.5364ZM199.079 129.412L201.915 130.392L201.952 130.285L201.981 130.175L199.079 129.412ZM197.22 75.428L200.048 74.4267L200.017 74.34L199.981 74.2553L197.22 75.428ZM187.242 75.7718L190.091 76.7114L190.116 76.6337L190.138 76.5548L187.242 75.7718ZM189.101 129.756L191.937 128.775L191.918 128.721L191.897 128.668L189.101 129.756ZM213.331 143.477C212.1 145.897 210.448 147.452 207.775 148.528C204.93 149.674 200.869 150.299 194.811 150.507L195.018 156.504C201.24 156.29 206.165 155.644 210.016 154.094C214.038 152.474 216.791 149.907 218.678 146.199L213.331 143.477ZM194.811 150.507C188.687 150.718 184.56 150.375 181.626 149.427C178.87 148.537 177.118 147.1 175.724 144.773L170.576 147.856C172.716 151.427 175.641 153.799 179.782 155.137C183.745 156.417 188.734 156.72 195.018 156.504L194.811 150.507ZM175.709 144.75C172.661 139.766 171.015 134.759 169.961 104.16L163.964 104.366C165.008 134.659 166.581 141.324 170.591 147.88L175.709 144.75ZM169.961 104.16C168.907 73.5839 170.208 68.7009 172.919 63.3737L167.572 60.6519C164.046 67.5787 162.92 74.05 163.964 104.366L169.961 104.16ZM172.907 63.3982C174.139 61.0309 175.798 59.4641 178.501 58.3675C181.364 57.2058 185.459 56.5498 191.567 56.3393L191.36 50.3429C185.06 50.5599 180.108 51.2403 176.245 52.8077C172.221 54.4403 169.476 56.9957 167.585 60.6274L172.907 63.3982ZM191.567 56.3393C197.609 56.1312 201.706 56.5046 204.626 57.4659C207.383 58.3739 209.148 59.8232 210.541 62.1016L215.66 58.9712C213.524 55.4797 210.611 53.1199 206.502 51.7669C202.556 50.4673 197.599 50.128 191.36 50.3429L191.567 56.3393ZM210.527 62.0781C213.599 67.2061 215.232 71.988 216.285 102.564L222.282 102.357C221.237 72.0409 219.668 65.6625 215.674 58.9947L210.527 62.0781ZM216.285 102.564C217.339 133.163 216.041 138.271 213.344 143.453L218.666 146.224C222.214 139.407 223.325 132.65 222.282 102.357L216.285 102.564ZM201.981 130.175C202.8 127.057 203.014 123.042 202.308 102.533L196.311 102.739C197.033 123.678 196.717 126.598 196.178 128.649L201.981 130.175ZM202.308 102.533C201.94 91.8534 201.628 85.584 201.297 81.6695C200.965 77.7423 200.599 75.985 200.048 74.4267L194.392 76.4294C194.691 77.2752 195.003 78.4403 195.319 82.1753C195.636 85.923 195.943 92.0557 196.311 102.739L202.308 102.533ZM199.981 74.2553C199.431 72.9616 198.529 71.7063 196.915 70.9351C195.477 70.2484 193.8 70.1106 192.044 70.1711L192.25 76.1676C193.692 76.1179 194.203 76.289 194.328 76.3489C194.348 76.3586 194.348 76.3609 194.338 76.3531C194.334 76.3498 194.329 76.3459 194.325 76.342C194.323 76.3401 194.321 76.3385 194.32 76.3373C194.319 76.336 194.318 76.3354 194.318 76.3354C194.318 76.3354 194.319 76.3362 194.321 76.338C194.322 76.3398 194.324 76.3427 194.327 76.3469C194.333 76.3552 194.342 76.3688 194.355 76.3892C194.379 76.4307 194.415 76.4977 194.458 76.6007L199.981 74.2553ZM192.044 70.1711C190.289 70.2316 188.605 70.485 187.211 71.2579C185.623 72.1382 184.75 73.4937 184.346 74.9888L190.138 76.5548C190.176 76.4124 190.2 76.4044 190.166 76.4504C190.124 76.5069 190.087 76.5239 190.12 76.5054C190.265 76.4247 190.806 76.2173 192.25 76.1676L192.044 70.1711ZM184.392 74.8322C183.846 76.4887 183.569 78.3246 183.491 82.2705C183.414 86.2073 183.535 92.4911 183.903 103.167L189.899 102.96C189.531 92.273 189.416 86.1415 189.49 82.3885C189.564 78.6446 189.825 77.5163 190.091 76.7114L184.392 74.8322ZM183.903 103.167C184.26 113.524 184.566 119.642 184.912 123.501C185.26 127.383 185.665 129.197 186.306 130.844L191.897 128.668C191.554 127.787 191.216 126.617 190.888 122.965C190.558 119.291 190.256 113.327 189.899 102.96L183.903 103.167ZM186.266 130.736C186.788 132.245 187.792 133.52 189.469 134.237C190.897 134.849 192.574 134.943 194.273 134.885L194.066 128.888C193.356 128.913 192.833 128.895 192.448 128.851C192.061 128.807 191.884 128.744 191.83 128.721C191.8 128.709 191.862 128.733 191.933 128.813C191.995 128.883 191.981 128.904 191.937 128.775L186.266 130.736ZM194.273 134.885C195.973 134.826 197.619 134.617 198.994 133.899C200.589 133.066 201.44 131.766 201.915 130.392L196.244 128.432C196.174 128.633 196.135 128.67 196.158 128.64C196.195 128.593 196.235 128.571 196.217 128.581C196.175 128.602 196.019 128.673 195.653 128.741C195.286 128.81 194.777 128.864 194.066 128.888L194.273 134.885Z" fill="#141414" mask="url(#path-5-outside-3_2021_50)"/>
<mask id="path-7-outside-4_2021_50" maskUnits="userSpaceOnUse" x="210.438" y="39.0562" width="75.7683" height="115.858" fill="black">
<rect fill="white" x="210.438" y="39.0562" width="75.7683" height="115.858"/>
<path d="M265.98 74.8051L249.658 78.0461C249.535 76.7657 249.41 76.138 248.961 73.8781C247.789 67.9773 246.411 66.2935 241.64 67.2409C236.869 68.1883 236.365 70.246 237.536 76.1468C238.633 81.6709 240.313 82.9033 243.826 84.1632C252.232 87.0616 257.478 87.1943 263.023 89.4862C269.32 92.2813 272.703 96.1769 275.844 111.996C280.332 134.595 276.054 142.622 256.845 146.436C241.151 149.553 232.973 145.826 230.006 130.886C229.058 126.115 228.213 120.541 228.368 117.378L244.814 114.112C244.763 115.167 244.987 116.297 245.261 117.678C246.707 124.959 248.185 127.145 253.207 126.148C258.229 125.151 259.035 123.294 257.44 115.259C256.467 110.363 254.712 108.754 250.849 107.042C243.874 104.12 235.591 103.808 229.521 100.184C223.476 96.6868 221.603 89.2287 219.11 76.6738C215.57 58.8459 219.119 51.7467 237.826 48.032C254.775 44.6663 261.774 48.366 264.965 64.4362C265.987 69.5837 266.259 72.2701 265.98 74.8051Z"/>
</mask>
<path d="M265.98 74.8051L249.658 78.0461C249.535 76.7657 249.41 76.138 248.961 73.8781C247.789 67.9773 246.411 66.2935 241.64 67.2409C236.869 68.1883 236.365 70.246 237.536 76.1468C238.633 81.6709 240.313 82.9033 243.826 84.1632C252.232 87.0616 257.478 87.1943 263.023 89.4862C269.32 92.2813 272.703 96.1769 275.844 111.996C280.332 134.595 276.054 142.622 256.845 146.436C241.151 149.553 232.973 145.826 230.006 130.886C229.058 126.115 228.213 120.541 228.368 117.378L244.814 114.112C244.763 115.167 244.987 116.297 245.261 117.678C246.707 124.959 248.185 127.145 253.207 126.148C258.229 125.151 259.035 123.294 257.44 115.259C256.467 110.363 254.712 108.754 250.849 107.042C243.874 104.12 235.591 103.808 229.521 100.184C223.476 96.6868 221.603 89.2287 219.11 76.6738C215.57 58.8459 219.119 51.7467 237.826 48.032C254.775 44.6663 261.774 48.366 264.965 64.4362C265.987 69.5837 266.259 72.2701 265.98 74.8051Z" fill="url(#paint3_linear_2021_50)"/>
<path d="M265.98 74.8051L266.564 77.7476L268.721 77.3194L268.962 75.134L265.98 74.8051ZM249.658 78.0461L246.672 78.3347L246.991 81.6343L250.243 80.9887L249.658 78.0461ZM243.826 84.1632L242.813 86.9871L242.831 86.9933L242.848 86.9994L243.826 84.1632ZM263.023 89.4862L264.24 86.7442L264.204 86.7285L264.169 86.7138L263.023 89.4862ZM228.368 117.378L227.783 114.436L225.486 114.892L225.371 117.232L228.368 117.378ZM244.814 114.112L247.811 114.259L247.999 110.421L244.23 111.17L244.814 114.112ZM250.849 107.042L252.064 104.299L252.036 104.286L252.008 104.275L250.849 107.042ZM229.521 100.184L231.058 97.6084L231.041 97.5979L231.023 97.5877L229.521 100.184ZM265.395 71.8625L249.074 75.1036L250.243 80.9887L266.564 77.7476L265.395 71.8625ZM252.645 77.7575C252.504 76.3062 252.349 75.5372 251.904 73.2938L246.019 74.4624C246.471 76.7387 246.565 77.2252 246.672 78.3347L252.645 77.7575ZM251.904 73.2938C251.599 71.7608 251.255 70.3594 250.799 69.1556C250.344 67.9538 249.711 66.7675 248.724 65.8235C246.532 63.7271 243.69 63.7752 241.056 64.2984L242.225 70.1834C243.26 69.9778 243.865 69.9694 244.208 70.0184C244.473 70.0562 244.532 70.1164 244.577 70.1594C244.677 70.2555 244.907 70.5373 245.188 71.2812C245.47 72.0231 245.737 73.045 246.019 74.4624L251.904 73.2938ZM241.056 64.2984C238.427 64.8205 235.776 65.8614 234.594 68.6738C234.069 69.924 233.963 71.2569 234.015 72.523C234.067 73.7945 234.292 75.2095 234.594 76.7311L240.479 75.5625C240.195 74.1337 240.043 73.0787 240.01 72.2751C239.976 71.4663 240.075 71.1191 240.125 70.9989C240.142 70.9586 240.156 70.8999 240.361 70.7774C240.64 70.6105 241.186 70.3896 242.225 70.1834L241.056 64.2984ZM234.594 76.7311C235.178 79.6727 236.002 81.9707 237.503 83.7125C239.032 85.4867 240.96 86.3222 242.813 86.9871L244.839 81.3394C243.18 80.7443 242.512 80.3337 242.048 79.7957C241.556 79.2253 240.992 78.145 240.479 75.5625L234.594 76.7311ZM242.848 86.9994C247.225 88.5087 250.784 89.2971 253.844 89.9801C256.931 90.6691 259.38 91.2268 261.877 92.2587L264.169 86.7138C261.12 85.4537 258.174 84.799 255.151 84.1242C252.1 83.4432 248.832 82.7161 244.804 81.3271L242.848 86.9994ZM261.806 92.2283C264.572 93.4563 266.438 94.784 268.06 97.4263C269.796 100.255 271.347 104.748 272.902 112.58L278.787 111.412C277.201 103.425 275.489 98.0608 273.174 94.2879C270.744 90.3288 267.77 88.3112 264.24 86.7442L261.806 92.2283ZM272.902 112.58C275.141 123.856 274.947 130.537 272.6 134.818C270.363 138.899 265.669 141.625 256.26 143.494L257.429 149.379C267.229 147.433 274.279 144.238 277.861 137.702C281.334 131.367 281.036 122.735 278.787 111.412L272.902 112.58ZM256.26 143.494C248.602 145.015 243.521 144.688 240.099 142.804C236.827 141.003 234.349 137.356 232.948 130.302L227.063 131.47C228.629 139.357 231.724 145.042 237.206 148.06C242.539 150.996 249.394 150.974 257.429 149.379L256.26 143.494ZM232.948 130.302C231.995 125.5 231.23 120.269 231.364 117.525L225.371 117.232C225.196 120.813 226.122 126.73 227.063 131.47L232.948 130.302ZM228.952 120.321L245.399 117.055L244.23 111.17L227.783 114.436L228.952 120.321ZM241.818 113.966C241.745 115.464 242.065 116.986 242.319 118.262L248.204 117.093C247.909 115.607 247.781 114.87 247.811 114.259L241.818 113.966ZM242.319 118.262C242.689 120.128 243.084 121.788 243.572 123.195C244.055 124.59 244.692 125.926 245.646 127.005C246.662 128.154 247.938 128.897 249.446 129.208C250.863 129.499 252.341 129.379 253.792 129.091L252.623 123.206C251.563 123.416 250.973 123.396 250.655 123.331C250.429 123.284 250.303 123.213 250.141 123.03C249.917 122.777 249.599 122.263 249.241 121.231C248.888 120.212 248.556 118.868 248.204 117.093L242.319 118.262ZM253.792 129.091C256.436 128.566 259.353 127.588 260.595 124.446C261.136 123.077 261.234 121.568 261.153 120.05C261.072 118.515 260.79 116.727 260.382 114.675L254.497 115.844C254.887 117.809 255.103 119.266 255.162 120.37C255.222 121.492 255.104 122.016 255.015 122.24C254.998 122.284 255.001 122.733 252.623 123.206L253.792 129.091ZM260.382 114.675C259.845 111.97 259.019 109.786 257.515 108.014C256.027 106.262 254.119 105.21 252.064 104.299L249.633 109.784C251.442 110.586 252.343 111.194 252.942 111.898C253.524 112.584 254.062 113.652 254.497 115.844L260.382 114.675ZM252.008 104.275C248.24 102.696 244.119 101.824 240.551 100.96C236.84 100.062 233.66 99.1615 231.058 97.6084L227.983 102.76C231.451 104.83 235.448 105.898 239.14 106.792C242.975 107.721 246.483 108.465 249.69 109.809L252.008 104.275ZM231.023 97.5877C228.778 96.2885 227.156 94.2076 225.772 90.7195C224.354 87.1443 223.308 82.4115 222.053 76.0895L216.168 77.2582C217.405 83.4911 218.542 88.7647 220.195 92.9317C221.882 97.1858 224.219 100.583 228.018 102.781L231.023 97.5877ZM222.053 76.0895C220.292 67.2232 220.554 62.0455 222.672 58.6467C224.75 55.3101 229.189 52.8055 238.41 50.9745L237.242 45.0894C227.756 46.9731 221.067 49.8755 217.579 55.4742C214.13 61.0107 214.388 68.2966 216.168 77.2582L222.053 76.0895ZM238.41 50.9745C246.787 49.311 251.791 49.6217 255.032 51.5307C258.157 53.371 260.472 57.2131 262.022 65.0205L267.907 63.8519C266.266 55.5891 263.486 49.5462 258.077 46.3606C252.784 43.2436 245.814 43.3872 237.242 45.0894L238.41 50.9745ZM262.022 65.0205C263.036 70.1257 263.224 72.428 262.998 74.4762L268.962 75.134C269.295 72.1121 268.938 69.0417 267.907 63.8519L262.022 65.0205Z" fill="#141414" mask="url(#path-7-outside-4_2021_50)"/>
<mask id="path-9-outside-5_2021_50" maskUnits="userSpaceOnUse" x="257.052" y="20.9411" width="96.4938" height="119.042" fill="black">
<rect fill="white" x="257.052" y="20.9411" width="96.4938" height="119.042"/>
<path d="M348.912 115.74L327.383 123.948L300.517 87.6147L299.321 88.0707C300.336 90.0128 301.248 92.4048 302.114 94.6773L315.064 128.644L295.808 135.986L261.29 45.4466L280.546 38.1052L293.131 71.1155C293.861 73.0292 294.288 74.51 294.762 76.1104L295.958 75.6545L293.583 33.135L313.317 25.6113L313.545 26.2093L315.203 71.8788L348.684 115.142L348.912 115.74Z"/>
</mask>
<path d="M348.912 115.74L327.383 123.948L300.517 87.6147L299.321 88.0707C300.336 90.0128 301.248 92.4048 302.114 94.6773L315.064 128.644L295.808 135.986L261.29 45.4466L280.546 38.1052L293.131 71.1155C293.861 73.0292 294.288 74.51 294.762 76.1104L295.958 75.6545L293.583 33.135L313.317 25.6113L313.545 26.2093L315.203 71.8788L348.684 115.142L348.912 115.74Z" fill="url(#paint4_linear_2021_50)"/>
<path d="M348.912 115.74L349.98 118.543L352.784 117.475L351.715 114.671L348.912 115.74ZM327.383 123.948L324.971 125.731L326.325 127.562L328.452 126.751L327.383 123.948ZM300.517 87.6147L302.93 85.8311L301.576 84.0005L299.449 84.8115L300.517 87.6147ZM299.321 88.0707L298.253 85.2675L295.1 86.4693L296.662 89.4596L299.321 88.0707ZM315.064 128.644L316.133 131.448L318.936 130.379L317.867 127.576L315.064 128.644ZM295.808 135.986L293.005 137.054L294.074 139.858L296.877 138.789L295.808 135.986ZM261.29 45.4466L260.221 42.6434L257.418 43.7121L258.487 46.5153L261.29 45.4466ZM280.546 38.1052L283.349 37.0365L282.281 34.2333L279.477 35.302L280.546 38.1052ZM294.762 76.1104L291.885 76.961L292.803 80.0677L295.83 78.9136L294.762 76.1104ZM295.958 75.6545L297.026 78.4576L299.075 77.6765L298.953 75.4872L295.958 75.6545ZM293.583 33.135L292.514 30.3318L290.465 31.113L290.587 33.3023L293.583 33.135ZM313.317 25.6113L316.12 24.5425L315.052 21.7394L312.248 22.8081L313.317 25.6113ZM313.545 26.2093L316.543 26.1004L316.525 25.6044L316.348 25.1406L313.545 26.2093ZM315.203 71.8788L312.205 71.9876L312.24 72.9518L312.831 73.7148L315.203 71.8788ZM348.684 115.142L351.487 114.073L351.328 113.658L351.056 113.306L348.684 115.142ZM347.843 112.937L326.314 121.145L328.452 126.751L349.98 118.543L347.843 112.937ZM329.795 122.164L302.93 85.8311L298.105 89.3984L324.971 125.731L329.795 122.164ZM299.449 84.8115L298.253 85.2675L300.39 90.8739L301.586 90.4179L299.449 84.8115ZM296.662 89.4596C297.579 91.2148 298.428 93.4291 299.311 95.746L304.917 93.6085C304.068 91.3805 303.092 88.8107 301.981 86.6818L296.662 89.4596ZM299.311 95.746L312.261 129.713L317.867 127.576L304.917 93.6085L299.311 95.746ZM313.995 125.841L294.739 133.183L296.877 138.789L316.133 131.448L313.995 125.841ZM298.611 134.917L264.093 44.3779L258.487 46.5153L293.005 137.054L298.611 134.917ZM262.359 48.2498L281.615 40.9084L279.477 35.302L260.221 42.6434L262.359 48.2498ZM277.743 39.1739L290.328 72.1843L295.934 70.0468L283.349 37.0365L277.743 39.1739ZM290.328 72.1843C291.01 73.9743 291.408 75.348 291.885 76.961L297.638 75.2599C297.169 73.672 296.711 72.0841 295.934 70.0468L290.328 72.1843ZM295.83 78.9136L297.026 78.4576L294.889 72.8513L293.693 73.3073L295.83 78.9136ZM298.953 75.4872L296.578 32.9677L290.587 33.3023L292.962 75.8218L298.953 75.4872ZM294.651 35.9382L314.386 28.4144L312.248 22.8081L292.514 30.3318L294.651 35.9382ZM310.514 26.68L310.742 27.278L316.348 25.1406L316.12 24.5425L310.514 26.68ZM310.547 26.3181L312.205 71.9876L318.201 71.7699L316.543 26.1004L310.547 26.3181ZM312.831 73.7148L346.311 116.978L351.056 113.306L317.576 70.0427L312.831 73.7148ZM345.88 116.211L346.108 116.809L351.715 114.671L351.487 114.073L345.88 116.211Z" fill="#141414" mask="url(#path-9-outside-5_2021_50)"/>
<defs>
<linearGradient id="paint0_linear_2021_50" x1="47.4982" y1="-3.27191" x2="139.193" y2="37.1083" gradientUnits="userSpaceOnUse">
<stop stop-color="#E0B5FC"/>
<stop offset="0.49" stop-color="#FFFF7D"/>
<stop offset="0.89" stop-color="#FF4C9D"/>
</linearGradient>
<linearGradient id="paint1_linear_2021_50" x1="80.2603" y1="15.7835" x2="222.982" y2="49.591" gradientUnits="userSpaceOnUse">
<stop stop-color="#E0B5FC"/>
<stop offset="0.49" stop-color="#FFFF7D"/>
<stop offset="0.89" stop-color="#FF4C9D"/>
</linearGradient>
<linearGradient id="paint2_linear_2021_50" x1="151.923" y1="30.2489" x2="252.11" y2="31.2031" gradientUnits="userSpaceOnUse">
<stop stop-color="#E0B5FC"/>
<stop offset="0.49" stop-color="#FFFF7D"/>
<stop offset="0.89" stop-color="#FF4C9D"/>
</linearGradient>
<linearGradient id="paint3_linear_2021_50" x1="198.5" y1="30.9239" x2="290.675" y2="16.5124" gradientUnits="userSpaceOnUse">
<stop stop-color="#E0B5FC"/>
<stop offset="0.49" stop-color="#FFFF7D"/>
<stop offset="0.89" stop-color="#FF4C9D"/>
</linearGradient>
<linearGradient id="paint4_linear_2021_50" x1="238.113" y1="26.346" x2="341.52" y2="-7.5198" gradientUnits="userSpaceOnUse">
<stop stop-color="#E0B5FC"/>
<stop offset="0.49" stop-color="#FFFF7D"/>
<stop offset="0.89" stop-color="#FF4C9D"/>
</linearGradient>
</defs>
</svg>
