<svg width="34" height="28" viewBox="0 0 34 28" fill="none" xmlns="http://www.w3.org/2000/svg">
<path d="M31.6776 0.114419L0.885311 11.8599C0.86699 11.8669 0.849231 11.8752 0.832184 11.8848C0.582488 12.0242 -1.16007 13.0748 1.29704 14.0168L1.32228 14.026L8.65445 16.3609C8.71039 16.3788 8.76962 16.3845 8.82801 16.3775C8.8864 16.3705 8.94252 16.351 8.99247 16.3204L27.1784 5.13586C27.223 5.10842 27.2727 5.08996 27.3245 5.08152C27.5776 5.04028 28.3061 4.96304 27.8452 5.53974C27.3239 6.19434 14.9022 17.1667 13.5235 18.3836C13.444 18.454 13.3948 18.5517 13.3861 18.6566L12.7844 25.7263C12.7843 25.7983 12.8013 25.8693 12.8339 25.9338C12.8665 25.9982 12.9139 26.0542 12.9723 26.0975C13.0552 26.1489 13.1527 26.1728 13.2504 26.1655C13.3481 26.1581 13.4408 26.1201 13.5149 26.0569L17.8713 22.219C17.9401 22.1583 18.0279 22.1228 18.1201 22.1181C18.2122 22.1135 18.3032 22.14 18.378 22.1934L25.9784 27.6331L26.003 27.6495C26.187 27.7614 28.1739 28.9011 28.7477 26.356L33.994 1.76597C34.0013 1.68808 34.0723 0.831861 33.4514 0.325855C32.7993 -0.203062 31.8762 0.0640147 31.7374 0.0928171C31.7169 0.0984349 31.6969 0.105659 31.6776 0.114419Z" fill="#141414"/>
</svg>
